<svg width="16" height="17" viewBox="0 0 16 17" fill="none" xmlns="http://www.w3.org/2000/svg">
<g clip-path="url(#clip0_0_203)">
<path d="M6.06733 16.3906V11.0706H4.418V8.62598H6.06733V7.57264C6.06733 4.84931 7.29933 3.58731 9.97267 3.58731C10.24 3.58731 10.6093 3.61531 10.9513 3.65598C11.2074 3.68294 11.4615 3.72637 11.712 3.78598V6.00264C11.5672 5.98937 11.422 5.98137 11.2767 5.97864C11.1138 5.97443 10.9509 5.97243 10.788 5.97264C10.3167 5.97264 9.94867 6.03664 9.67133 6.17864C9.48517 6.27259 9.32854 6.41608 9.21867 6.59331C9.04667 6.87331 8.96933 7.25664 8.96933 7.76131V8.62598H11.582L11.3247 10.028L11.1333 11.0706H8.96933V16.5673C12.9307 16.0886 16 12.716 16 8.62598C16 4.20798 12.418 0.625977 8 0.625977C3.582 0.625977 0 4.20798 0 8.62598C0 12.378 2.58267 15.526 6.06733 16.3906Z" fill="#F0EFEC"/>
</g>
<defs>
<clipPath id="clip0_0_203">
<rect width="16" height="16" fill="white" transform="translate(0 0.59668)"/>
</clipPath>
</defs>
</svg>
