<svg width="16" height="17" viewBox="0 0 16 17" fill="none" xmlns="http://www.w3.org/2000/svg">
<g clip-path="url(#clip0_0_197)">
<path d="M4.68689 0.652523C3.83556 0.692523 3.25423 0.828523 2.74689 1.02786C2.21337 1.22996 1.7302 1.5457 1.33089 1.95319C0.925088 2.3536 0.611174 2.83744 0.410892 3.37119C0.214226 3.88052 0.0802256 4.46319 0.0428923 5.31386C0.00555894 6.16452 -0.00310772 6.43919 0.000892277 8.61186C0.00489228 10.7845 0.0148923 11.0565 0.0562256 11.9099C0.0968923 12.7612 0.232226 13.3425 0.431559 13.8505C0.636892 14.3765 0.911559 14.8219 1.35689 15.2659C1.75769 15.6718 2.242 15.9857 2.77623 16.1859C3.28489 16.3825 3.86689 16.5165 4.71823 16.5539C5.57023 16.5912 5.84423 16.5999 8.01623 16.5959C10.1882 16.5919 10.4616 16.5819 11.3142 16.5412C12.1676 16.5012 12.7456 16.3645 13.2542 16.1659C13.7875 15.9637 14.2704 15.6479 14.6696 15.2405C15.0755 14.8397 15.3894 14.3554 15.5896 13.8212C15.7862 13.3125 15.9202 12.7305 15.9569 11.8799C15.9942 11.0265 16.0036 10.7532 15.9989 8.58119C15.9949 6.40919 15.9856 6.13652 15.9449 5.28319C15.9049 4.42986 15.7689 3.85119 15.5689 3.34252C15.3669 2.8093 15.0514 2.32637 14.6442 1.92719C14.2436 1.5213 13.7596 1.20739 13.2256 1.00719C12.7162 0.81119 12.1349 0.676523 11.2829 0.640523C10.4316 0.602523 10.1576 0.592523 7.98489 0.596523C5.81223 0.600523 5.54023 0.610523 4.68689 0.652523ZM4.78023 15.1145C4.00023 15.0812 3.57689 14.9512 3.29489 14.8425C2.94687 14.7154 2.63196 14.5114 2.37356 14.2459C2.10712 13.9886 1.90205 13.6746 1.77356 13.3272C1.66356 13.0452 1.53156 12.6219 1.49556 11.8419C1.45556 10.9992 1.44756 10.7459 1.44223 8.60986C1.43823 6.47386 1.44623 6.22119 1.48289 5.37786C1.51623 4.59852 1.64689 4.17452 1.75489 3.89252C1.89889 3.51852 2.07289 3.25252 2.35156 2.97119C2.60904 2.70467 2.92327 2.49959 3.27089 2.37119C3.55289 2.26119 3.97556 2.13052 4.75556 2.09319C5.59889 2.05319 5.85156 2.04519 7.98756 2.03986C10.1229 2.03586 10.3762 2.04386 11.2209 2.08119C11.9996 2.11452 12.4236 2.24386 12.7056 2.35319C13.0789 2.49719 13.3456 2.66986 13.6269 2.94986C13.9082 3.22986 14.0809 3.49452 14.2269 3.86852C14.3369 4.14986 14.4682 4.57252 14.5049 5.35319C14.5449 6.19652 14.5542 6.44986 14.5582 8.58519C14.5616 10.7205 14.5542 10.9739 14.5176 11.8172C14.4836 12.5972 14.3542 13.0205 14.2456 13.3039C14.1016 13.6772 13.9276 13.9439 13.6482 14.2239C13.3909 14.4903 13.0769 14.6954 12.7296 14.8239C12.4482 14.9339 12.0242 15.0652 11.2456 15.1025C10.4016 15.1425 10.1489 15.1505 8.01223 15.1552C5.87556 15.1599 5.62423 15.1505 4.78023 15.1145ZM11.3022 4.32052C11.3025 4.51042 11.3591 4.69598 11.4648 4.85371C11.5705 5.01145 11.7207 5.13429 11.8962 5.20669C12.0718 5.27908 12.2649 5.29779 12.4511 5.26043C12.6373 5.22308 12.8082 5.13134 12.9422 4.99683C13.0763 4.86232 13.1674 4.69107 13.2041 4.50476C13.2408 4.31844 13.2215 4.12542 13.1484 3.95012C13.0754 3.77481 12.9521 3.6251 12.794 3.51991C12.6359 3.41473 12.4501 3.35879 12.2602 3.35919C12.0057 3.35972 11.7619 3.46128 11.5822 3.64155C11.4026 3.82181 11.3019 4.06603 11.3022 4.32052ZM3.89289 8.60452C3.89501 9.69394 4.32982 10.7379 5.10166 11.5067C5.87349 12.2756 6.91914 12.7063 8.00856 12.7042C9.09798 12.7021 10.1419 12.2673 10.9108 11.4954C11.6796 10.7236 12.1103 9.67794 12.1082 8.58852C12.0925 7.50809 11.6518 6.47734 10.8814 5.7196C10.1111 4.96186 9.07321 4.53814 7.99266 4.54025C6.91211 4.54235 5.8759 4.97011 5.10852 5.73084C4.34114 6.49158 3.90439 7.52403 3.89289 8.60452ZM5.33356 8.60186C5.33251 8.07444 5.48787 7.55856 5.78001 7.11944C6.07215 6.68033 6.48794 6.3377 6.97481 6.13489C7.46167 5.93209 7.99774 5.87821 8.51523 5.98007C9.03272 6.08193 9.50838 6.33495 9.88206 6.70714C10.2557 7.07934 10.5107 7.55398 10.6146 8.07106C10.7185 8.58813 10.6668 9.12441 10.4659 9.61209C10.2651 10.0998 9.92412 10.5169 9.48618 10.8108C9.04823 11.1047 8.53298 11.2621 8.00556 11.2632C7.65537 11.2639 7.30847 11.1956 6.98466 11.0622C6.66086 10.9289 6.3665 10.733 6.11838 10.4859C5.87026 10.2388 5.67325 9.94521 5.53859 9.62194C5.40393 9.29867 5.33426 8.95205 5.33356 8.60186Z" fill="#F0EFEC"/>
</g>
<defs>
<clipPath id="clip0_0_197">
<rect width="16" height="16" fill="white" transform="translate(0 0.59668)"/>
</clipPath>
</defs>
</svg>
