<svg width="16" height="17" viewBox="0 0 16 17" fill="none" xmlns="http://www.w3.org/2000/svg">
<path d="M7.96267 0.59668C5.84741 0.606551 3.82216 1.45376 2.32993 2.95298C0.837705 4.45221 -2.30327e-05 6.4814 4.74957e-10 8.59668C4.7496e-10 10.7184 0.842855 12.7532 2.34315 14.2535C3.84344 15.7538 5.87827 16.5967 8 16.5967C10.1217 16.5967 12.1566 15.7538 13.6569 14.2535C15.1571 12.7532 16 10.7184 16 8.59668C16 6.47495 15.1571 4.44012 13.6569 2.93983C12.1566 1.43953 10.1217 0.59668 8 0.59668L7.96267 0.59668ZM11.2707 5.41268C11.3373 5.41135 11.4847 5.42801 11.5807 5.50601C11.6448 5.56116 11.6855 5.63861 11.6947 5.72268C11.7053 5.78468 11.7187 5.92668 11.708 6.03735C11.588 7.30268 11.0667 10.372 10.8013 11.7887C10.6893 12.3887 10.4687 12.5893 10.2547 12.6087C9.79067 12.652 9.438 12.302 8.988 12.0073C8.284 11.5453 7.886 11.258 7.20267 10.8073C6.41267 10.2873 6.92467 10.0007 7.37467 9.53401C7.49267 9.41135 9.53933 7.54935 9.57933 7.38068C9.584 7.35935 9.58867 7.28068 9.542 7.23935C9.49533 7.19801 9.426 7.21201 9.376 7.22335C9.30533 7.23979 8.18067 7.98312 6.002 9.45335C5.682 9.67335 5.39267 9.78001 5.134 9.77335C4.84867 9.76801 4.29933 9.61268 3.89067 9.48001C3.38933 9.31668 2.99133 9.23068 3.026 8.95401C3.04378 8.81001 3.24222 8.66268 3.62133 8.51201C5.95333 7.49601 7.50844 6.82624 8.28667 6.50268C10.508 5.57868 10.97 5.41801 11.2707 5.41268Z" fill="#F0EFEC"/>
</svg>
