<svg width="16" height="17" viewBox="0 0 16 17" fill="none" xmlns="http://www.w3.org/2000/svg">
<path d="M15.6653 4.72063C15.5747 4.38026 15.3964 4.06964 15.1481 3.81976C14.8999 3.56988 14.5904 3.3895 14.2507 3.29663C13.0033 2.95996 8 2.95996 8 2.95996C8 2.95996 2.99667 2.95996 1.74867 3.29663C1.40903 3.3896 1.09972 3.57003 0.851603 3.8199C0.603487 4.06977 0.425245 4.38034 0.334667 4.72063C0 5.97663 0 8.59663 0 8.59663C0 8.59663 0 11.2166 0.334667 12.4726C0.425303 12.813 0.603646 13.1236 0.851885 13.3735C1.10012 13.6234 1.40957 13.8038 1.74933 13.8966C2.99667 14.2333 8 14.2333 8 14.2333C8 14.2333 13.0033 14.2333 14.2513 13.8966C14.5911 13.8038 14.9005 13.6234 15.1488 13.3735C15.397 13.1236 15.5754 12.813 15.666 12.4726C16 11.2166 16 8.59663 16 8.59663C16 8.59663 16 5.97663 15.6653 4.72063ZM6.36333 10.9753V6.21796L10.5453 8.59663L6.36333 10.9753Z" fill="#F0EFEC"/>
</svg>
