<svg width="233" height="351" viewBox="0 0 233 351" fill="none" xmlns="http://www.w3.org/2000/svg">
<rect width="233" height="350" transform="translate(0 0.596924)" fill="#F0EFEC"/>
<path d="M118.933 189.791C118.8 189.929 118.642 190.039 118.467 190.115C118.292 190.19 118.105 190.229 117.915 190.229C117.726 190.23 117.538 190.191 117.363 190.117C117.188 190.042 117.029 189.933 116.896 189.794C116.763 189.656 116.658 189.493 116.587 189.313C116.516 189.133 116.481 188.94 116.484 188.746C116.487 188.552 116.527 188.361 116.603 188.183C116.679 188.005 116.789 187.845 116.926 187.711L127.463 177.056L102.213 177.056C101.834 177.056 101.47 176.902 101.203 176.628C100.935 176.353 100.784 175.982 100.784 175.594C100.784 175.206 100.935 174.834 101.203 174.56C101.47 174.286 101.834 174.132 102.213 174.132L127.46 174.132L116.926 163.482C116.663 163.208 116.516 162.839 116.517 162.456C116.518 162.072 116.666 161.704 116.929 161.431C117.192 161.158 117.55 161.002 117.925 160.996C118.3 160.991 118.662 161.136 118.933 161.401L131.688 174.296C131.856 174.466 131.99 174.668 132.081 174.891C132.172 175.114 132.219 175.354 132.219 175.595C132.219 175.837 132.172 176.077 132.081 176.3C131.99 176.523 131.856 176.725 131.688 176.895L118.933 189.791Z" fill="#F4444A"/>
</svg>
