<svg width="48" height="48" viewBox="0 0 48 48" fill="none" xmlns="http://www.w3.org/2000/svg">
<g clip-path="url(#clip0_0_1722)">
<path d="M36.1883 36.1883C35.9774 36.3993 35.6912 36.5178 35.3928 36.5178C35.0945 36.5178 34.8083 36.3993 34.5974 36.1883L23.7256 25.3166L12.8538 36.1883C12.6428 36.3993 12.3567 36.5178 12.0583 36.5178C11.76 36.5178 11.4738 36.3993 11.2628 36.1883C11.0519 35.9773 10.9333 35.6912 10.9333 35.3928C10.9333 35.0945 11.0518 34.8083 11.2628 34.5973L22.1346 23.7256L11.2628 12.8538C11.0519 12.6428 10.9333 12.3567 10.9333 12.0583C10.9333 11.7599 11.0519 11.4738 11.2628 11.2628C11.4738 11.0518 11.76 10.9333 12.0583 10.9333C12.3567 10.9333 12.6428 11.0518 12.8538 11.2628L23.7256 22.1346L34.5974 11.2628C34.8083 11.0518 35.0945 10.9333 35.3928 10.9333C35.6912 10.9333 35.9774 11.0518 36.1883 11.2628C36.3993 11.4738 36.5178 11.7599 36.5178 12.0583C36.5178 12.3567 36.3993 12.6428 36.1883 12.8538L25.3166 23.7256L36.1883 34.5973C36.3993 34.8083 36.5178 35.0945 36.5178 35.3928C36.5178 35.6912 36.3993 35.9773 36.1883 36.1883Z" fill="white"/>
</g>
<defs>
<clipPath id="clip0_0_1722">
<rect width="48" height="48" fill="white"/>
</clipPath>
</defs>
</svg>
