<svg width="24" height="26" viewBox="0 0 24 26" fill="none" xmlns="http://www.w3.org/2000/svg">
<path d="M10.5403 21.5164C10.6199 21.5995 10.7149 21.6656 10.8197 21.7107C10.9245 21.7559 11.0371 21.7792 11.1508 21.7794C11.2645 21.7796 11.3772 21.7567 11.4821 21.7119C11.5871 21.6671 11.6823 21.6014 11.7622 21.5186C11.8421 21.4358 11.9051 21.3375 11.9476 21.2295C11.99 21.1216 12.011 21.006 12.0093 20.8897C12.0077 20.7733 11.9834 20.6584 11.938 20.5518C11.8925 20.4451 11.8268 20.3488 11.7446 20.2683L5.42229 13.8753L20.5723 13.8753C20.7996 13.8753 21.0176 13.7829 21.1784 13.6184C21.3391 13.454 21.4294 13.2309 21.4294 12.9983C21.4294 12.7656 21.3391 12.5425 21.1784 12.3781C21.0176 12.2136 20.7996 12.1212 20.5723 12.1212L5.424 12.1212L11.7446 5.7308C11.9021 5.56646 11.9901 5.34537 11.9897 5.11521C11.9893 4.88505 11.9005 4.66427 11.7425 4.50049C11.5845 4.33671 11.3699 4.24306 11.145 4.23974C10.92 4.23641 10.7029 4.32368 10.5403 4.48272L2.88686 12.2194C2.78605 12.3214 2.70601 12.4428 2.65139 12.5766C2.59676 12.7105 2.56863 12.8541 2.56863 12.9991C2.56863 13.1442 2.59676 13.2878 2.65139 13.4216C2.70601 13.5555 2.78605 13.6769 2.88686 13.7788L10.5403 21.5164Z" fill="#020204"/>
</svg>
