<svg width="820" height="156" viewBox="0 0 820 156" fill="none" xmlns="http://www.w3.org/2000/svg">
<g clip-path="url(#clip0_21_1788)">
<rect width="822.211" height="41.4013" transform="translate(0.000976562 114.43) rotate(-8)" fill="#020204"/>
<path d="M-43.5818 153.072L-46.2816 133.862L-49.0111 134.246L-46.3114 153.456L-48.2684 153.731L-51.2468 132.538L-44.6032 131.604L-41.6248 152.797L-43.5818 153.072ZM-37.1621 134.471C-37.2514 133.836 -37.4453 133.391 -37.7438 133.135C-38.0447 132.862 -38.5042 132.769 -39.1222 132.856L-40.4612 133.044L-39.4443 140.28L-38.0795 140.088C-37.513 140.009 -37.113 139.804 -36.8793 139.473C-36.6456 139.143 -36.5747 138.651 -36.6663 137.999L-37.1621 134.471ZM-39.7185 152.529L-42.6969 131.337L-39.4009 130.873C-38.1649 130.7 -37.2116 130.881 -36.5411 131.417C-35.8558 131.933 -35.4191 132.861 -35.2309 134.2L-34.7423 137.676C-34.5541 139.015 -34.7096 140.026 -35.2089 140.709C-35.7081 141.392 -36.5757 141.82 -37.8117 141.994L-39.1765 142.186L-37.7615 152.254L-39.7185 152.529ZM-31.4201 151.363L-34.3985 130.17L-28.785 129.381L-28.5063 131.364L-32.1628 131.878L-31.1169 139.32L-28.5419 138.958L-28.2669 140.915L-30.8419 141.277L-29.7345 149.156L-25.9492 148.624L-25.6778 150.556L-31.4201 151.363ZM-16.2468 149.23L-17.1479 142.818C-17.3675 141.256 -17.5822 139.728 -17.7921 138.235C-17.9848 136.739 -18.1824 135.209 -18.3848 133.644L-18.4871 149.545L-20.2123 149.788L-24.6678 134.527C-24.4311 136.087 -24.2078 137.614 -23.9979 139.107C-23.7708 140.598 -23.5475 142.125 -23.328 143.687L-22.4268 150.099L-24.2294 150.352L-27.2078 129.16L-24.5812 128.791L-20.014 145.033L-20.1007 128.161L-17.3969 127.781L-14.4185 148.973L-16.2468 149.23ZM-12.5601 148.712L-15.5385 127.52L-13.7617 127.27L-11.6917 141.999L-11.1867 126.908L-8.89494 126.586L-5.91655 147.778L-7.71906 148.032L-9.82891 133.019L-10.6803 148.448L-12.5601 148.712ZM-4.49948 147.579C-4.44408 145.856 -4.38748 144.141 -4.32967 142.435C-4.27186 140.729 -4.21526 139.014 -4.15986 137.291C-4.73063 137.091 -5.17975 136.76 -5.50722 136.298C-5.81752 135.834 -6.02937 135.199 -6.14276 134.392L-6.73627 130.169C-6.9317 128.778 -6.7688 127.758 -6.24758 127.107C-5.7116 126.436 -4.82561 126.014 -3.5896 125.84L-0.370827 125.388L2.60757 146.58L0.650557 146.855L-0.699312 137.251L-1.85807 137.413C-2.06407 137.442 -2.19403 137.452 -2.24794 137.442L-2.36222 147.279L-4.49948 147.579ZM-4.19257 133.882C-4.10089 134.534 -3.91934 135.016 -3.64792 135.328C-3.35933 135.638 -2.88887 135.746 -2.23653 135.655L-0.94902 135.474L-2.04918 127.646L-3.31094 127.823C-3.92895 127.91 -4.3474 128.109 -4.5663 128.42C-4.7852 128.731 -4.8476 129.221 -4.75351 129.89L-4.19257 133.882ZM7.77752 145.854L7.23106 141.966C7.14421 141.348 7.08537 140.804 7.05457 140.336C7.02376 139.868 7.03828 139.411 7.09813 138.964C7.17515 138.516 7.31105 138.05 7.50582 137.568C7.70059 137.085 7.97276 136.531 8.32231 135.904C8.78266 135.069 9.15689 134.369 9.44502 133.803C9.73314 133.237 9.95246 132.743 10.103 132.319C10.2511 131.878 10.3329 131.464 10.3485 131.076C10.3617 130.672 10.3333 130.221 10.2633 129.723L9.94485 127.457C9.78561 126.324 9.24249 125.823 8.31549 125.953C7.78332 126.028 7.44332 126.224 7.2955 126.543C7.16485 126.859 7.13933 127.3 7.21895 127.866L7.73284 131.523L5.80157 131.794L5.28768 128.138C5.10432 126.833 5.22913 125.853 5.6621 125.197C6.11225 124.538 6.90382 124.129 8.03683 123.97C9.16984 123.811 10.0532 123.993 10.687 124.517C11.3184 125.023 11.7245 125.92 11.9055 127.208L12.2384 129.577C12.3205 130.16 12.345 130.708 12.3119 131.221C12.2765 131.716 12.1883 132.21 12.0475 132.702C11.9238 133.192 11.7486 133.689 11.5219 134.194C11.2928 134.681 11.0244 135.2 10.7167 135.751C10.2786 136.496 9.93882 137.13 9.69737 137.654C9.45351 138.161 9.28207 138.623 9.18306 139.039C9.08405 139.456 9.03775 139.874 9.04415 140.293C9.06531 140.692 9.11328 141.158 9.18808 141.69L9.46312 143.648L14.1239 142.992L14.3953 144.924L7.77752 145.854ZM13.3226 126.903C13.1561 125.719 13.3053 124.788 13.7702 124.11C14.2327 123.414 15.0562 122.984 16.2407 122.817C17.4252 122.651 18.3355 122.838 18.9717 123.379C19.6055 123.902 20.0056 124.756 20.1721 125.941L22.2023 140.387C22.3688 141.571 22.2208 142.511 21.7583 143.206C21.2934 143.884 20.4687 144.307 19.2842 144.473C18.0997 144.639 17.1906 144.461 16.5568 143.937C15.9206 143.396 15.5193 142.534 15.3528 141.349L13.3226 126.903ZM18.2372 126.186C18.0828 125.088 17.5078 124.608 16.5121 124.748C15.5336 124.886 15.1215 125.504 15.276 126.603L17.317 141.126C17.4714 142.224 18.0379 142.705 19.0164 142.567C20.0121 142.428 20.4327 141.808 20.2783 140.71L18.2372 126.186ZM24.1732 143.55L23.6267 139.661C23.5398 139.043 23.481 138.5 23.4502 138.032C23.4194 137.563 23.4339 137.106 23.4938 136.66C23.5708 136.212 23.7067 135.746 23.9015 135.264C24.0962 134.781 24.3684 134.227 24.7179 133.6C25.1783 132.765 25.5525 132.064 25.8406 131.499C26.1288 130.933 26.3481 130.438 26.4986 130.015C26.6467 129.574 26.7285 129.159 26.7441 128.772C26.7573 128.368 26.7289 127.917 26.6589 127.419L26.3405 125.153C26.1812 124.02 25.6381 123.518 24.7111 123.649C24.1789 123.723 23.839 123.92 23.6911 124.238C23.5605 124.554 23.535 124.996 23.6146 125.562L24.1285 129.219L22.1972 129.49L21.6833 125.833C21.5 124.529 21.6248 123.548 22.0577 122.892C22.5079 122.234 23.2994 121.825 24.4325 121.666C25.5655 121.507 26.4489 121.689 27.0826 122.212C27.714 122.719 28.1202 123.616 28.3011 124.903L28.6341 127.272C28.7161 127.856 28.7406 128.404 28.7075 128.916C28.6721 129.411 28.5839 129.905 28.4431 130.398C28.3194 130.888 28.1442 131.385 27.9175 131.89C27.6884 132.377 27.42 132.896 27.1123 133.447C26.6742 134.191 26.3344 134.825 26.093 135.35C25.8491 135.857 25.6777 136.318 25.5787 136.735C25.4797 137.151 25.4334 137.569 25.4398 137.988C25.4609 138.388 25.5089 138.854 25.5837 139.386L25.8587 141.343L30.5195 140.688L30.791 142.619L24.1732 143.55ZM35.6516 133.56C35.572 132.993 35.4184 132.586 35.191 132.338C34.9807 132.087 34.5838 132.003 34.0001 132.085L32.9958 132.226L32.7389 130.398L33.8461 130.242C34.3783 130.168 34.7024 129.982 34.8183 129.686C34.9489 129.37 34.9756 128.937 34.8984 128.388L34.2832 124.01C34.2012 123.426 34.0476 123.019 33.8226 122.788C33.5952 122.54 33.2154 122.453 32.6832 122.528C32.1682 122.601 31.8356 122.787 31.6854 123.089C31.5327 123.373 31.4974 123.806 31.5794 124.39L32.1042 128.124L30.1729 128.395L29.6482 124.662C29.4672 123.374 29.5944 122.411 30.0298 121.772C30.48 121.113 31.2715 120.705 32.4046 120.545C33.5376 120.386 34.4026 120.562 34.9996 121.073C35.5942 121.568 35.9832 122.467 36.1666 123.772L36.8071 128.329C36.9036 129.016 36.8485 129.558 36.6416 129.955C36.4348 130.351 36.0957 130.679 35.6244 130.938C36.122 130.99 36.5334 131.178 36.8588 131.5C37.1989 131.802 37.4232 132.339 37.5318 133.112L38.2375 138.133C38.3895 139.215 38.2464 140.127 37.8083 140.872C37.3678 141.599 36.5811 142.042 35.4481 142.201C34.3151 142.361 33.4281 142.153 32.7871 141.577C32.1632 141 31.7753 140.17 31.6233 139.089L31.037 134.917L33.0198 134.639L33.606 138.81C33.6784 139.325 33.8381 139.714 34.0851 139.977C34.3322 140.24 34.696 140.338 35.1767 140.27C35.6745 140.2 36.0059 140.005 36.1709 139.684C36.3531 139.361 36.4067 138.933 36.3319 138.401L35.6516 133.56ZM44.198 130.599C43.5971 130.684 43.0961 130.544 42.6949 130.18C42.3084 129.797 42.0729 129.305 41.9885 128.704C41.904 128.103 41.9971 127.583 42.2678 127.142C42.5533 126.682 42.9964 126.409 43.5972 126.325C44.1809 126.243 44.6648 126.385 45.0488 126.751C45.4477 127.098 45.6893 127.571 45.7737 128.172C45.8582 128.773 45.7589 129.312 45.4759 129.79C45.2076 130.247 44.7816 130.517 44.198 130.599ZM52.4883 139.57L51.9418 135.682C51.855 135.064 51.7961 134.521 51.7653 134.052C51.7345 133.584 51.7491 133.127 51.8089 132.681C51.8859 132.232 52.0218 131.767 52.2166 131.284C52.4114 130.802 52.6835 130.247 53.0331 129.62C53.4934 128.785 53.8677 128.085 54.1558 127.519C54.4439 126.954 54.6632 126.459 54.8137 126.035C54.9618 125.594 55.0437 125.18 55.0593 124.793C55.0725 124.388 55.0441 123.937 54.9741 123.439L54.6556 121.173C54.4964 120.04 53.9533 119.539 53.0263 119.669C52.4941 119.744 52.1541 119.94 52.0063 120.259C51.8756 120.575 51.8501 121.016 51.9297 121.583L52.4436 125.239L50.5123 125.511L49.9985 121.854C49.8151 120.549 49.9399 119.569 50.3729 118.913C50.823 118.254 51.6146 117.846 52.7476 117.686C53.8806 117.527 54.764 117.709 55.3978 118.233C56.0292 118.739 56.4353 119.636 56.6163 120.924L56.9492 123.293C57.0312 123.877 57.0557 124.425 57.0227 124.937C56.9872 125.432 56.8991 125.926 56.7582 126.418C56.6345 126.908 56.4593 127.406 56.2326 127.91C56.0035 128.398 55.7351 128.917 55.4274 129.468C54.9894 130.212 54.6496 130.846 54.4081 131.37C54.1643 131.877 53.9928 132.339 53.8938 132.755C53.7948 133.172 53.7485 133.59 53.7549 134.009C53.7761 134.409 53.8241 134.875 53.8988 135.407L54.1739 137.364L58.8347 136.709L59.1061 138.64L52.4883 139.57ZM58.0333 120.62C57.8741 119.487 58.0159 118.565 58.4588 117.855C58.9189 117.143 59.7154 116.707 60.8485 116.548C61.9815 116.389 62.8415 116.592 63.4286 117.157C64.0329 117.72 64.4146 118.568 64.5739 119.701L65.0878 123.357L63.208 123.621L62.6941 119.965C62.6217 119.45 62.4547 119.071 62.1929 118.827C61.9459 118.564 61.5906 118.465 61.1271 118.531C60.6808 118.593 60.3579 118.788 60.1586 119.113C59.9741 119.419 59.918 119.83 59.9903 120.345L60.7757 125.932C60.9039 125.599 61.1166 125.307 61.4138 125.055C61.7111 124.803 62.1343 124.639 62.6837 124.561C63.6107 124.431 64.3176 124.603 64.8044 125.077C65.3059 125.532 65.6411 126.36 65.81 127.562L66.7329 134.128C66.8921 135.261 66.7417 136.184 66.2816 136.896C65.8215 137.609 65.025 138.045 63.892 138.204C62.759 138.363 61.8744 138.172 61.2382 137.631C60.6168 137.071 60.2264 136.224 60.0672 135.091L58.0333 120.62ZM63.9145 128.275C63.8229 127.622 63.6437 127.157 63.3771 126.88C63.1253 126.583 62.7504 126.469 62.2526 126.539C61.4114 126.657 61.0156 127.142 61.0652 127.992L61.9554 134.327C62.0495 134.997 62.2175 135.507 62.4594 135.858C62.7014 136.209 63.0884 136.347 63.6206 136.273C64.1184 136.203 64.4498 136.007 64.6148 135.686C64.797 135.363 64.8506 134.935 64.7759 134.403L63.9145 128.275ZM77.097 136.112L75.7182 126.301L72.9887 126.684L74.3675 136.495L72.4105 136.77L69.4321 115.578L71.3891 115.303L72.7173 124.753L75.4468 124.37L74.1186 114.919L76.0756 114.644L79.054 135.837L77.097 136.112ZM78.3015 117.771C77.9638 115.368 78.9022 114.011 81.1167 113.699C83.3483 113.386 84.6331 114.431 84.9708 116.834L87.0011 131.28C87.3388 133.683 86.3919 135.042 84.1602 135.355C81.9457 135.666 80.6695 134.62 80.3318 132.217L78.3015 117.771ZM83.0138 117.109C82.8618 116.027 82.3223 115.552 81.3953 115.682C80.4855 115.81 80.1066 116.415 80.2586 117.496L82.2888 131.942C82.4456 133.058 82.9789 133.552 83.8888 133.424C84.8158 133.294 85.2009 132.671 85.0441 131.555L83.0138 117.109ZM88.7444 134.475C88.7998 132.751 88.8564 131.037 88.9142 129.33C88.972 127.624 89.0286 125.909 89.084 124.186C88.5132 123.986 88.0641 123.655 87.7366 123.194C87.4263 122.73 87.2145 122.094 87.1011 121.287L86.5076 117.064C86.3122 115.674 86.4751 114.653 86.9963 114.002C87.5322 113.332 88.4182 112.91 89.6543 112.736L92.873 112.283L95.8514 133.476L93.8944 133.751L92.5445 124.146L91.3858 124.309C91.1798 124.338 91.0498 124.347 90.9959 124.337L90.8816 134.174L88.7444 134.475ZM89.0513 120.777C89.143 121.429 89.3245 121.911 89.5959 122.223C89.8845 122.533 90.355 122.642 91.0073 122.55L92.2948 122.369L91.1947 114.541L89.9329 114.719C89.3149 114.805 88.8965 115.004 88.6776 115.315C88.4587 115.626 88.3963 116.116 88.4903 116.786L89.0513 120.777ZM100.547 111.205L100.826 113.188L97.0408 113.72L98.0866 121.161L99.4771 120.966C100.713 120.792 101.657 120.966 102.308 121.487C102.976 122.006 103.404 122.935 103.592 124.274L104.171 128.394C104.359 129.733 104.205 130.753 103.708 131.453C103.209 132.135 102.341 132.564 101.105 132.737L97.7835 133.204L94.8051 112.012L100.547 111.205ZM101.65 124.468C101.479 123.249 100.844 122.717 99.7449 122.872L98.3544 123.067L99.4655 130.972L100.83 130.78C101.946 130.624 102.417 129.927 102.243 128.691L101.65 124.468ZM108.638 113.98C108.549 113.345 108.355 112.9 108.057 112.644C107.756 112.371 107.296 112.278 106.678 112.365L105.339 112.553L106.356 119.789L107.721 119.597C108.287 119.518 108.687 119.313 108.921 118.982C109.155 118.652 109.226 118.16 109.134 117.508L108.638 113.98ZM106.082 132.038L103.103 110.846L106.4 110.382C107.636 110.209 108.589 110.39 109.259 110.926C109.945 111.442 110.381 112.37 110.57 113.709L111.058 117.185C111.246 118.524 111.091 119.535 110.592 120.218C110.092 120.901 109.225 121.329 107.989 121.503L106.624 121.695L108.039 131.763L106.082 132.038ZM113.891 130.941C113.946 129.217 114.003 127.502 114.061 125.796C114.119 124.09 114.175 122.375 114.231 120.652C113.66 120.452 113.211 120.121 112.883 119.66C112.573 119.196 112.361 118.56 112.248 117.753L111.654 113.53C111.459 112.14 111.622 111.119 112.143 110.468C112.679 109.797 113.565 109.375 114.801 109.202L118.02 108.749L120.998 129.942L119.041 130.217L117.691 120.612L116.532 120.775C116.326 120.804 116.196 120.813 116.143 120.803L116.028 130.64L113.891 130.941ZM114.198 117.243C114.29 117.895 114.471 118.377 114.743 118.689C115.031 118.999 115.502 119.108 116.154 119.016L117.441 118.835L116.341 111.007L115.08 111.184C114.462 111.271 114.043 111.47 113.824 111.781C113.605 112.092 113.543 112.582 113.637 113.252L114.198 117.243ZM126.78 118.993C126.179 119.078 125.678 118.938 125.277 118.574C124.89 118.191 124.655 117.699 124.57 117.098C124.486 116.497 124.579 115.976 124.849 115.536C125.135 115.076 125.578 114.803 126.179 114.719C126.763 114.637 127.246 114.779 127.631 115.145C128.029 115.492 128.271 115.965 128.355 116.566C128.44 117.167 128.341 117.706 128.058 118.183C127.789 118.641 127.363 118.911 126.78 118.993Z" fill="#F0EFEC"/>
<path d="M141.797 127.019L139.097 107.809L136.368 108.193L139.068 127.402L137.111 127.677L134.132 106.485L140.776 105.551L143.754 126.744L141.797 127.019ZM148.217 108.418C148.128 107.783 147.934 107.337 147.635 107.082C147.334 106.809 146.875 106.716 146.257 106.803L144.918 106.991L145.935 114.227L147.299 114.035C147.866 113.955 148.266 113.75 148.5 113.42C148.733 113.09 148.804 112.598 148.713 111.946L148.217 108.418ZM145.66 126.476L142.682 105.283L145.978 104.82C147.214 104.646 148.167 104.828 148.838 105.363C149.523 105.88 149.96 106.808 150.148 108.147L150.637 111.623C150.825 112.962 150.669 113.973 150.17 114.656C149.671 115.339 148.803 115.767 147.567 115.941L146.202 116.132L147.617 126.201L145.66 126.476ZM153.959 125.309L150.98 104.117L156.594 103.328L156.873 105.311L153.216 105.825L154.262 113.267L156.837 112.905L157.112 114.862L154.537 115.224L155.644 123.103L159.43 122.571L159.701 124.502L153.959 125.309ZM169.132 123.177L168.231 116.765C168.011 115.203 167.797 113.675 167.587 112.182C167.394 110.686 167.197 109.155 166.994 107.591L166.892 123.492L165.167 123.734L160.711 108.474C160.948 110.034 161.171 111.56 161.381 113.054C161.608 114.545 161.831 116.072 162.051 117.634L162.952 124.046L161.15 124.299L158.171 103.106L160.798 102.737L165.365 118.98L165.278 102.108L167.982 101.728L170.96 122.92L169.132 123.177ZM172.819 122.659L169.84 101.466L171.617 101.217L173.687 115.946L174.192 100.855L176.484 100.533L179.462 121.725L177.66 121.978L175.55 106.966L174.699 122.395L172.819 122.659ZM180.879 121.526C180.935 119.803 180.991 118.088 181.049 116.382C181.107 114.675 181.164 112.961 181.219 111.237C180.648 111.037 180.199 110.707 179.872 110.245C179.561 109.781 179.35 109.146 179.236 108.339L178.643 104.116C178.447 102.725 178.61 101.704 179.131 101.053C179.667 100.383 180.553 99.9609 181.789 99.7871L185.008 99.3348L187.986 120.527L186.029 120.802L184.68 111.197L183.521 111.36C183.315 111.389 183.185 111.399 183.131 111.389L183.017 121.226L180.879 121.526ZM181.186 107.828C181.278 108.481 181.46 108.963 181.731 109.275C182.02 109.584 182.49 109.693 183.142 109.602L184.43 109.421L183.33 101.593L182.068 101.77C181.45 101.857 181.032 102.056 180.813 102.366C180.594 102.677 180.531 103.168 180.625 103.837L181.186 107.828ZM193.156 119.801L192.61 115.912C192.523 115.294 192.464 114.751 192.433 114.283C192.403 113.814 192.417 113.357 192.477 112.911C192.554 112.463 192.69 111.997 192.885 111.515C193.08 111.032 193.352 110.478 193.701 109.851C194.162 109.016 194.536 108.315 194.824 107.75C195.112 107.184 195.331 106.689 195.482 106.266C195.63 105.825 195.712 105.411 195.727 105.023C195.741 104.619 195.712 104.168 195.642 103.67L195.324 101.404C195.165 100.271 194.621 99.7693 193.694 99.8996C193.162 99.9744 192.822 100.171 192.674 100.489C192.544 100.805 192.518 101.247 192.598 101.813L193.112 105.47L191.18 105.741L190.667 102.084C190.483 100.78 190.608 99.7994 191.041 99.1434C191.491 98.4849 192.283 98.0761 193.416 97.9168C194.549 97.7576 195.432 97.9398 196.066 98.4634C196.697 98.9699 197.103 99.8669 197.284 101.154L197.617 103.523C197.699 104.107 197.724 104.655 197.691 105.167C197.655 105.663 197.567 106.156 197.426 106.649C197.303 107.139 197.127 107.636 196.901 108.141C196.672 108.628 196.403 109.147 196.096 109.698C195.657 110.442 195.318 111.077 195.076 111.601C194.832 112.108 194.661 112.569 194.562 112.986C194.463 113.402 194.417 113.82 194.423 114.24C194.444 114.639 194.492 115.105 194.567 115.637L194.842 117.594L199.503 116.939L199.774 118.871L193.156 119.801ZM198.701 100.85C198.535 99.6657 198.684 98.7344 199.149 98.0564C199.612 97.3612 200.435 96.9303 201.62 96.7639C202.804 96.5974 203.714 96.7845 204.351 97.3253C204.984 97.849 205.385 98.703 205.551 99.8876L207.581 114.333C207.748 115.518 207.6 116.458 207.137 117.153C206.672 117.831 205.848 118.253 204.663 118.42C203.479 118.586 202.569 118.408 201.936 117.884C201.299 117.343 200.898 116.481 200.732 115.296L198.701 100.85ZM203.616 100.133C203.462 99.0346 202.887 98.5552 201.891 98.6951C200.912 98.8326 200.5 99.4507 200.655 100.549L202.696 115.073C202.85 116.171 203.417 116.652 204.395 116.514C205.391 116.374 205.812 115.755 205.657 114.656L203.616 100.133ZM209.552 117.496L209.006 113.608C208.919 112.99 208.86 112.447 208.829 111.979C208.798 111.51 208.813 111.053 208.873 110.607C208.95 110.159 209.086 109.693 209.28 109.21C209.475 108.728 209.747 108.173 210.097 107.546C210.557 106.712 210.931 106.011 211.22 105.446C211.508 104.88 211.727 104.385 211.878 103.961C212.026 103.52 212.107 103.106 212.123 102.719C212.136 102.314 212.108 101.863 212.038 101.365L211.719 99.0994C211.56 97.9664 211.017 97.4651 210.09 97.5953C209.558 97.6701 209.218 97.8667 209.07 98.1851C208.939 98.501 208.914 98.9423 208.993 99.5088L209.507 103.165L207.576 103.437L207.062 99.7802C206.879 98.4755 207.004 97.4952 207.437 96.8391C207.887 96.1807 208.678 95.7718 209.811 95.6126C210.944 95.4533 211.828 95.6355 212.462 96.1592C213.093 96.6656 213.499 97.5626 213.68 98.8501L214.013 101.219C214.095 101.803 214.119 102.351 214.086 102.863C214.051 103.358 213.963 103.852 213.822 104.345C213.698 104.835 213.523 105.332 213.296 105.836C213.067 106.324 212.799 106.843 212.491 107.394C212.053 108.138 211.713 108.772 211.472 109.296C211.228 109.803 211.057 110.265 210.958 110.682C210.859 111.098 210.812 111.516 210.819 111.935C210.84 112.335 210.888 112.801 210.963 113.333L211.238 115.29L215.898 114.635L216.17 116.566L209.552 117.496ZM221.03 107.507C220.951 106.94 220.797 106.533 220.57 106.285C220.36 106.034 219.963 105.95 219.379 106.032L218.375 106.173L218.118 104.345L219.225 104.189C219.757 104.114 220.081 103.929 220.197 103.632C220.328 103.316 220.355 102.884 220.277 102.334L219.662 97.9569C219.58 97.3732 219.427 96.9659 219.202 96.7349C218.974 96.4868 218.594 96.4001 218.062 96.4749C217.547 96.5473 217.214 96.7341 217.064 97.0353C216.912 97.3194 216.876 97.7532 216.958 98.3369L217.483 102.071L215.552 102.342L215.027 98.6083C214.846 97.3208 214.973 96.3576 215.409 95.7187C215.859 95.0602 216.65 94.6514 217.783 94.4922C218.916 94.3329 219.781 94.509 220.379 95.0203C220.973 95.5144 221.362 96.4138 221.545 97.7185L222.186 102.276C222.283 102.963 222.227 103.505 222.021 103.901C221.814 104.298 221.475 104.626 221.003 104.885C221.501 104.937 221.912 105.124 222.238 105.446C222.578 105.749 222.802 106.286 222.911 107.059L223.616 112.08C223.768 113.161 223.625 114.074 223.187 114.819C222.747 115.546 221.96 115.989 220.827 116.148C219.694 116.307 218.807 116.099 218.166 115.524C217.542 114.947 217.154 114.117 217.002 113.036L216.416 108.864L218.399 108.585L218.985 112.757C219.057 113.272 219.217 113.661 219.464 113.924C219.711 114.187 220.075 114.284 220.556 114.217C221.053 114.147 221.385 113.951 221.55 113.631C221.732 113.307 221.786 112.88 221.711 112.348L221.03 107.507ZM229.577 104.546C228.976 104.631 228.475 104.491 228.074 104.127C227.687 103.744 227.452 103.252 227.367 102.651C227.283 102.05 227.376 101.529 227.647 101.089C227.932 100.628 228.375 100.356 228.976 100.272C229.56 100.19 230.044 100.332 230.428 100.698C230.827 101.044 231.068 101.518 231.153 102.119C231.237 102.72 231.138 103.259 230.855 103.736C230.587 104.194 230.161 104.464 229.577 104.546ZM237.867 113.517L237.321 109.629C237.234 109.011 237.175 108.467 237.144 107.999C237.113 107.531 237.128 107.074 237.188 106.628C237.265 106.179 237.401 105.714 237.596 105.231C237.79 104.749 238.062 104.194 238.412 103.567C238.872 102.732 239.247 102.032 239.535 101.466C239.823 100.9 240.042 100.406 240.193 99.9819C240.341 99.5409 240.423 99.1268 240.438 98.7395C240.451 98.335 240.423 97.8838 240.353 97.386L240.035 95.12C239.875 93.987 239.332 93.4856 238.405 93.6159C237.873 93.6907 237.533 93.8873 237.385 94.2056C237.255 94.5216 237.229 94.9628 237.309 95.5293L237.823 99.1859L235.891 99.4573L235.377 95.8008C235.194 94.4961 235.319 93.5157 235.752 92.8597C236.202 92.2012 236.994 91.7924 238.127 91.6331C239.26 91.4739 240.143 91.6561 240.777 92.1797C241.408 92.6862 241.814 93.5832 241.995 94.8707L242.328 97.2397C242.41 97.8234 242.435 98.3714 242.402 98.8837C242.366 99.3788 242.278 99.8726 242.137 100.365C242.013 100.855 241.838 101.352 241.612 101.857C241.382 102.344 241.114 102.863 240.806 103.414C240.368 104.159 240.028 104.793 239.787 105.317C239.543 105.824 239.372 106.286 239.273 106.702C239.174 107.119 239.127 107.537 239.134 107.956C239.155 108.355 239.203 108.821 239.278 109.354L239.553 111.311L244.214 110.656L244.485 112.587L237.867 113.517ZM243.412 94.5665C243.253 93.4335 243.395 92.512 243.838 91.8021C244.298 91.0897 245.094 90.6539 246.227 90.4946C247.36 90.3354 248.22 90.5384 248.808 91.1036C249.412 91.6664 249.794 92.5143 249.953 93.6473L250.467 97.3038L248.587 97.568L248.073 93.9115C248.001 93.3965 247.834 93.0173 247.572 92.774C247.325 92.5111 246.97 92.4123 246.506 92.4774C246.06 92.5401 245.737 92.7343 245.538 93.0599C245.353 93.3659 245.297 93.7765 245.369 94.2915L246.155 99.8793C246.283 99.5461 246.496 99.2536 246.793 99.0018C247.09 98.75 247.513 98.5854 248.063 98.5082C248.99 98.378 249.696 98.5499 250.183 99.0242C250.685 99.4789 251.02 100.307 251.189 101.509L252.112 108.075C252.271 109.208 252.121 110.131 251.661 110.843C251.2 111.556 250.404 111.991 249.271 112.151C248.138 112.31 247.253 112.119 246.617 111.578C245.996 111.018 245.605 110.171 245.446 109.038L243.412 94.5665ZM249.293 102.222C249.202 101.569 249.023 101.104 248.756 100.827C248.504 100.529 248.129 100.416 247.632 100.486C246.79 100.604 246.395 101.088 246.444 101.939L247.334 108.274C247.428 108.943 247.596 109.454 247.838 109.805C248.08 110.156 248.467 110.294 248.999 110.219C249.497 110.149 249.829 109.954 249.994 109.633C250.176 109.31 250.23 108.882 250.155 108.35L249.293 102.222ZM262.476 110.058L261.097 100.248L258.368 100.631L259.746 110.442L257.789 110.717L254.811 89.5246L256.768 89.2496L258.096 98.6999L260.826 98.3163L259.498 88.866L261.455 88.5909L264.433 109.783L262.476 110.058ZM263.68 91.718C263.343 89.3146 264.281 87.9574 266.496 87.6461C268.727 87.3325 270.012 88.3773 270.35 90.7807L272.38 105.227C272.718 107.63 271.771 108.988 269.539 109.302C267.325 109.613 266.048 108.567 265.711 106.164L263.68 91.718ZM268.393 91.0557C268.241 89.9742 267.701 89.4986 266.774 89.6289C265.864 89.7568 265.485 90.3614 265.637 91.443L267.668 105.889C267.825 107.005 268.358 107.499 269.268 107.371C270.195 107.24 270.58 106.617 270.423 105.502L268.393 91.0557ZM274.123 108.421C274.179 106.698 274.235 104.983 274.293 103.277C274.351 101.571 274.408 99.8561 274.463 98.1328C273.892 97.9329 273.443 97.6021 273.116 97.1405C272.805 96.6764 272.593 96.041 272.48 95.2341L271.886 91.0111C271.691 89.6206 271.854 88.5999 272.375 87.9489C272.911 87.2784 273.797 86.8563 275.033 86.6826L278.252 86.2302L281.23 107.423L279.273 107.698L277.923 98.0928L276.765 98.2557C276.559 98.2846 276.429 98.2941 276.375 98.2842L276.261 108.121L274.123 108.421ZM274.43 94.7237C274.522 95.3761 274.703 95.8582 274.975 96.1702C275.263 96.4798 275.734 96.5887 276.386 96.497L277.674 96.3161L276.574 88.488L275.312 88.6653C274.694 88.7522 274.275 88.9511 274.056 89.2619C273.838 89.5728 273.775 90.0629 273.869 90.7325L274.43 94.7237ZM285.926 85.1516L286.205 87.1344L282.42 87.6664L283.466 95.1082L284.856 94.9128C286.092 94.7391 287.036 94.9128 287.686 95.434C288.355 95.9529 288.783 96.8818 288.971 98.2208L289.55 102.341C289.738 103.68 289.584 104.699 289.087 105.399C288.588 106.082 287.72 106.511 286.484 106.684L283.162 107.151L280.184 85.9587L285.926 85.1516ZM287.029 98.4149C286.858 97.1961 286.223 96.6639 285.124 96.8183L283.733 97.0137L284.844 104.919L286.209 104.727C287.325 104.57 287.796 103.874 287.622 102.638L287.029 98.4149ZM294.017 87.9271C293.928 87.2919 293.734 86.8465 293.435 86.5909C293.135 86.3181 292.675 86.2251 292.057 86.3119L290.718 86.5001L291.735 93.7359L293.1 93.5441C293.666 93.4645 294.066 93.2595 294.3 92.929C294.534 92.5986 294.605 92.1072 294.513 91.4549L294.017 87.9271ZM291.461 105.985L288.482 84.7924L291.778 84.3292C293.014 84.1555 293.968 84.3366 294.638 84.8726C295.324 85.389 295.76 86.3167 295.948 87.6557L296.437 91.132C296.625 92.471 296.47 93.4819 295.97 94.1648C295.471 94.8476 294.604 95.2759 293.368 95.4496L292.003 95.6414L293.418 105.71L291.461 105.985ZM299.27 104.887C299.325 103.164 299.382 101.449 299.44 99.743C299.498 98.0368 299.554 96.322 299.61 94.5986C299.039 94.3988 298.59 94.068 298.262 93.6064C297.952 93.1423 297.74 92.5068 297.627 91.7L297.033 87.477C296.838 86.0865 297.001 85.0657 297.522 84.4148C298.058 83.7443 298.944 83.3222 300.18 83.1484L303.399 82.6961L306.377 103.888L304.42 104.164L303.07 94.5587L301.911 94.7216C301.705 94.7505 301.575 94.76 301.521 94.7501L301.407 104.587L299.27 104.887ZM299.577 91.1896C299.669 91.8419 299.85 92.3241 300.122 92.6361C300.41 92.9456 300.881 93.0546 301.533 92.9629L302.82 92.7819L301.72 84.9539L300.458 85.1312C299.84 85.2181 299.422 85.4169 299.203 85.7278C298.984 86.0386 298.922 86.5288 299.016 87.1983L299.577 91.1896ZM312.159 92.94C311.558 93.0245 311.057 92.8848 310.655 92.5211C310.269 92.1377 310.033 91.6457 309.949 91.0448C309.865 90.444 309.958 89.9232 310.228 89.4826C310.514 89.0223 310.957 88.7499 311.558 88.6655C312.141 88.5835 312.625 88.7255 313.009 89.0917C313.408 89.4383 313.65 89.912 313.734 90.5128C313.819 91.1137 313.719 91.6528 313.436 92.1302C313.168 92.5881 312.742 92.858 312.159 92.94Z" fill="#F0EFEC"/>
<path d="M327.176 100.965L324.476 81.7558L321.747 82.1394L324.446 101.349L322.489 101.624L319.511 80.4317L326.155 79.498L329.133 100.69L327.176 100.965ZM333.596 82.3648C333.506 81.7296 333.313 81.2842 333.014 81.0286C332.713 80.7558 332.254 80.6628 331.636 80.7496L330.297 80.9378L331.314 88.1736L332.678 87.9818C333.245 87.9022 333.645 87.6972 333.879 87.3667C334.112 87.0363 334.183 86.5449 334.091 85.8926L333.596 82.3648ZM331.039 100.422L328.061 79.2301L331.357 78.7669C332.593 78.5932 333.546 78.7743 334.217 79.3103C334.902 79.8267 335.339 80.7544 335.527 82.0934L336.016 85.5696C336.204 86.9087 336.048 87.9196 335.549 88.6025C335.05 89.2853 334.182 89.7136 332.946 89.8873L331.581 90.0791L332.996 100.147L331.039 100.422ZM339.338 99.2562L336.359 78.0638L341.973 77.2749L342.252 79.2577L338.595 79.7716L339.641 87.2134L342.216 86.8515L342.491 88.8085L339.916 89.1704L341.023 97.0499L344.809 96.5179L345.08 98.4492L339.338 99.2562ZM354.511 97.1238L353.61 90.712C353.39 89.1498 353.176 87.6219 352.966 86.1284C352.773 84.6325 352.575 83.1023 352.373 81.5377L352.271 97.4386L350.545 97.6811L346.09 82.4207C346.327 83.9805 346.55 85.5071 346.76 87.0006C346.987 88.4917 347.21 90.0183 347.43 91.5805L348.331 97.9923L346.528 98.2456L343.55 77.0532L346.177 76.6841L350.744 92.9266L350.657 76.0544L353.361 75.6744L356.339 96.8668L354.511 97.1238ZM358.198 96.6056L355.219 75.4132L356.996 75.1635L359.066 89.8926L359.571 74.8016L361.863 74.4795L364.841 95.6719L363.039 95.9253L360.929 80.9129L360.077 96.3414L358.198 96.6056ZM366.258 95.4728C366.314 93.7494 366.37 92.0346 366.428 90.3285C366.486 88.6223 366.543 86.9075 366.598 85.1841C366.027 84.9842 365.578 84.6535 365.251 84.1918C364.94 83.7278 364.728 83.0923 364.615 82.2855L364.022 78.0625C363.826 76.6719 363.989 75.6512 364.51 75.0003C365.046 74.3297 365.932 73.9076 367.168 73.7339L370.387 73.2816L373.365 94.474L371.408 94.749L370.059 85.1442L368.9 85.307C368.694 85.336 368.564 85.3455 368.51 85.3356L368.396 95.1724L366.258 95.4728ZM366.565 81.7751C366.657 82.4274 366.838 82.9096 367.11 83.2215C367.398 83.5311 367.869 83.64 368.521 83.5484L369.809 83.3674L368.709 75.5394L367.447 75.7167C366.829 75.8035 366.41 76.0024 366.192 76.3133C365.973 76.6241 365.91 77.1143 366.004 77.7838L366.565 81.7751ZM378.535 93.7474L377.989 89.8591C377.902 89.2411 377.843 88.6979 377.812 88.2296C377.782 87.7613 377.796 87.3041 377.856 86.858C377.933 86.4095 378.069 85.944 378.264 85.4615C378.458 84.979 378.731 84.4243 379.08 83.7975C379.54 82.9625 379.915 82.2622 380.203 81.6966C380.491 81.1309 380.71 80.6362 380.861 80.2124C381.009 79.7714 381.091 79.3573 381.106 78.97C381.119 78.5655 381.091 78.1143 381.021 77.6165L380.703 75.3505C380.543 74.2174 380 73.7161 379.073 73.8464C378.541 73.9212 378.201 74.1177 378.053 74.4361C377.923 74.7521 377.897 75.1933 377.977 75.7598L378.491 79.4163L376.559 79.6878L376.045 76.0312C375.862 74.7266 375.987 73.7462 376.42 73.0901C376.87 72.4317 377.662 72.0228 378.795 71.8636C379.928 71.7044 380.811 71.8866 381.445 72.4102C382.076 72.9167 382.482 73.8137 382.663 75.1012L382.996 77.4702C383.078 78.0539 383.103 78.6018 383.07 79.1142C383.034 79.6093 382.946 80.1031 382.805 80.5956C382.682 81.0856 382.506 81.5829 382.28 82.0874C382.051 82.5748 381.782 83.0939 381.474 83.6448C381.036 84.3891 380.697 85.0233 380.455 85.5474C380.211 86.0543 380.04 86.5161 379.941 86.9326C379.842 87.3492 379.796 87.7671 379.802 88.1863C379.823 88.586 379.871 89.0519 379.946 89.584L380.221 91.5411L384.882 90.886L385.153 92.8173L378.535 93.7474ZM384.08 74.797C383.914 73.6125 384.063 72.6812 384.528 72.0031C384.99 71.3079 385.814 70.8771 386.998 70.7106C388.183 70.5442 389.093 70.7313 389.73 71.2721C390.363 71.7958 390.763 72.6498 390.93 73.8343L392.96 88.2802C393.127 89.4647 392.979 90.4046 392.516 91.0998C392.051 91.7778 391.227 92.2001 390.042 92.3665C388.858 92.533 387.948 92.3544 387.315 91.8308C386.678 91.29 386.277 90.4273 386.111 89.2428L384.08 74.797ZM388.995 74.08C388.841 72.9813 388.266 72.502 387.27 72.6419C386.291 72.7794 385.879 73.3975 386.034 74.4962L388.075 89.0193C388.229 90.118 388.796 90.5985 389.774 90.461C390.77 90.3211 391.191 89.7018 391.036 88.6031L388.995 74.08ZM394.931 91.4431L394.385 87.5548C394.298 86.9368 394.239 86.3937 394.208 85.9253C394.177 85.457 394.192 84.9998 394.252 84.5538C394.329 84.1053 394.464 83.6398 394.659 83.1573C394.854 82.6747 395.126 82.1201 395.476 81.4932C395.936 80.6583 396.31 79.958 396.598 79.3923C396.887 78.8266 397.106 78.3319 397.256 77.9081C397.405 77.4672 397.486 77.053 397.502 76.6657C397.515 76.2612 397.487 75.8101 397.417 75.3122L397.098 73.0462C396.939 71.9132 396.396 71.4118 395.469 71.5421C394.937 71.6169 394.597 71.8135 394.449 72.1319C394.318 72.4478 394.293 72.8891 394.372 73.4556L394.886 77.1121L392.955 77.3835L392.441 73.727C392.258 72.4223 392.383 71.4419 392.816 70.7859C393.266 70.1274 394.057 69.7186 395.19 69.5593C396.323 69.4001 397.207 69.5823 397.84 70.1059C398.472 70.6124 398.878 71.5094 399.059 72.7969L399.392 75.1659C399.474 75.7496 399.498 76.2976 399.465 76.8099C399.43 77.305 399.342 77.7989 399.201 78.2913C399.077 78.7813 398.902 79.2786 398.675 79.7831C398.446 80.2705 398.178 80.7896 397.87 81.3405C397.432 82.0848 397.092 82.719 396.851 83.2431C396.607 83.7501 396.436 84.2118 396.337 84.6284C396.237 85.0449 396.191 85.4628 396.198 85.882C396.219 86.2817 396.267 86.7476 396.342 87.2798L396.617 89.2368L401.277 88.5818L401.549 90.513L394.931 91.4431ZM406.409 81.4534C406.33 80.8869 406.176 80.4795 405.949 80.2314C405.739 79.9809 405.342 79.8966 404.758 79.9786L403.754 80.1198L403.497 78.2915L404.604 78.1359C405.136 78.0611 405.46 77.8755 405.576 77.5791C405.707 77.2632 405.733 76.8305 405.656 76.2812L405.041 71.9037C404.959 71.32 404.805 70.9127 404.58 70.6817C404.353 70.4336 403.973 70.3469 403.441 70.4217C402.926 70.4941 402.593 70.6809 402.443 70.9821C402.291 71.2661 402.255 71.7 402.337 72.2837L402.862 76.0174L400.931 76.2889L400.406 72.5551C400.225 71.2676 400.352 70.3044 400.788 69.6655C401.238 69.007 402.029 68.5982 403.162 68.4389C404.295 68.2797 405.16 68.4557 405.757 68.967C406.352 69.4612 406.741 70.3606 406.924 71.6652L407.565 76.223C407.661 76.9097 407.606 77.4514 407.399 77.8481C407.193 78.2448 406.854 78.5725 406.382 78.8313C406.88 78.8839 407.291 79.0712 407.617 79.3931C407.957 79.6954 408.181 80.2328 408.29 81.0053L408.995 86.0266C409.147 87.1081 409.004 88.021 408.566 88.7653C408.126 89.4924 407.339 89.9356 406.206 90.0949C405.073 90.2541 404.186 90.0461 403.545 89.471C402.921 88.8935 402.533 88.0639 402.381 86.9824L401.795 82.8109L403.778 82.5322L404.364 86.7038C404.436 87.2188 404.596 87.6077 404.843 87.8706C405.09 88.1335 405.454 88.2311 405.934 88.1636C406.432 88.0936 406.764 87.8982 406.929 87.5775C407.111 87.2543 407.165 86.8266 407.09 86.2944L406.409 81.4534ZM414.956 78.4929C414.355 78.5774 413.854 78.4377 413.453 78.0739C413.066 77.6906 412.831 77.1985 412.746 76.5977C412.662 75.9969 412.755 75.4761 413.026 75.0354C413.311 74.5752 413.754 74.3028 414.355 74.2184C414.939 74.1363 415.423 74.2784 415.807 74.6446C416.205 74.9912 416.447 75.4649 416.532 76.0657C416.616 76.6665 416.517 77.2057 416.234 77.6831C415.965 78.1409 415.539 78.4109 414.956 78.4929ZM423.246 87.4637L422.7 83.5754C422.613 82.9574 422.554 82.4142 422.523 81.9459C422.492 81.4776 422.507 81.0204 422.567 80.5743C422.644 80.1258 422.78 79.6603 422.974 79.1778C423.169 78.6953 423.441 78.1406 423.791 77.5138C424.251 76.6788 424.625 75.9785 424.914 75.4129C425.202 74.8472 425.421 74.3525 425.572 73.9287C425.72 73.4877 425.801 73.0736 425.817 72.6863C425.83 72.2818 425.802 71.8306 425.732 71.3328L425.413 69.0668C425.254 67.9338 424.711 67.4324 423.784 67.5627C423.252 67.6375 422.912 67.8341 422.764 68.1524C422.633 68.4684 422.608 68.9096 422.688 69.4761L423.201 73.1327L421.27 73.4041L420.756 69.7475C420.573 68.4429 420.698 67.4625 421.131 66.8065C421.581 66.148 422.372 65.7391 423.505 65.5799C424.638 65.4207 425.522 65.6029 426.156 66.1265C426.787 66.633 427.193 67.53 427.374 68.8175L427.707 71.1865C427.789 71.7702 427.814 72.3182 427.781 72.8305C427.745 73.3256 427.657 73.8194 427.516 74.3119C427.392 74.8019 427.217 75.2992 426.99 75.8037C426.761 76.2911 426.493 76.8102 426.185 77.3611C425.747 78.1054 425.407 78.7396 425.166 79.2637C424.922 79.7706 424.751 80.2324 424.652 80.6489C424.553 81.0655 424.506 81.4834 424.513 81.9026C424.534 82.3023 424.582 82.7682 424.657 83.3004L424.932 85.2574L429.592 84.6023L429.864 86.5336L423.246 87.4637ZM428.791 68.5133C428.632 67.3803 428.774 66.4588 429.217 65.7488C429.677 65.0365 430.473 64.6006 431.606 64.4414C432.739 64.2822 433.599 64.4852 434.186 65.0504C434.791 65.6132 435.172 66.4611 435.332 67.5941L435.846 71.2506L433.966 71.5148L433.452 67.8583C433.38 67.3432 433.212 66.9641 432.951 66.7208C432.704 66.4579 432.348 66.359 431.885 66.4242C431.439 66.4869 431.116 66.6811 430.916 67.0067C430.732 67.3127 430.676 67.7232 430.748 68.2382L431.533 73.826C431.662 73.4929 431.874 73.2004 432.172 72.9486C432.469 72.6967 432.892 72.5322 433.441 72.455C434.368 72.3247 435.075 72.4967 435.562 72.971C436.064 73.4257 436.399 74.2539 436.568 75.4555L437.491 82.0218C437.65 83.1548 437.499 84.0775 437.039 84.7899C436.579 85.5023 435.783 85.9381 434.65 86.0973C433.517 86.2566 432.632 86.0658 431.996 85.525C431.375 84.9646 430.984 84.1179 430.825 82.9849L428.791 68.5133ZM434.672 76.1683C434.581 75.516 434.402 75.051 434.135 74.7734C433.883 74.4761 433.508 74.3625 433.01 74.4325C432.169 74.5507 431.773 75.0352 431.823 75.8861L432.713 82.2206C432.807 82.8901 432.975 83.4004 433.217 83.7515C433.459 84.1027 433.846 84.2408 434.378 84.1661C434.876 84.0961 435.208 83.9007 435.373 83.5799C435.555 83.2567 435.608 82.829 435.534 82.2969L434.672 76.1683ZM447.855 84.0051L446.476 74.1943L443.747 74.5779L445.125 84.3888L443.168 84.6638L440.19 63.4714L442.147 63.1963L443.475 72.6467L446.205 72.2631L444.876 62.8127L446.833 62.5377L449.812 83.7301L447.855 84.0051ZM449.059 65.6648C448.722 63.2614 449.66 61.9041 451.874 61.5929C454.106 61.2793 455.391 62.3241 455.729 64.7275L457.759 79.1733C458.097 81.5767 457.15 82.9352 454.918 83.2488C452.704 83.56 451.427 82.514 451.09 80.1106L449.059 65.6648ZM453.772 65.0025C453.62 63.921 453.08 63.4454 452.153 63.5757C451.243 63.7035 450.864 64.3082 451.016 65.3897L453.047 79.8356C453.203 80.9514 453.737 81.4454 454.647 81.3175C455.574 81.1873 455.959 80.5642 455.802 79.4484L453.772 65.0025ZM459.502 82.3682C459.558 80.6449 459.614 78.9301 459.672 77.2239C459.73 75.5177 459.786 73.8029 459.842 72.0796C459.271 71.8797 458.822 71.5489 458.494 71.0873C458.184 70.6232 457.972 69.9878 457.859 69.1809L457.265 64.9579C457.07 63.5674 457.233 62.5467 457.754 61.8957C458.29 61.2252 459.176 60.8031 460.412 60.6294L463.631 60.177L466.609 81.3694L464.652 81.6444L463.302 72.0396L462.144 72.2025C461.938 72.2314 461.808 72.2409 461.754 72.231L461.639 82.0678L459.502 82.3682ZM459.809 68.6705C459.901 69.3228 460.082 69.805 460.354 70.117C460.642 70.4265 461.113 70.5355 461.765 70.4438L463.053 70.2628L461.952 62.4348L460.691 62.6121C460.073 62.699 459.654 62.8978 459.435 63.2087C459.216 63.5195 459.154 64.0097 459.248 64.6792L459.809 68.6705ZM471.305 59.0984L471.584 61.0812L467.799 61.6132L468.844 69.055L470.235 68.8596C471.471 68.6858 472.414 68.8596 473.065 69.3808C473.734 69.8996 474.162 70.8285 474.35 72.1675L474.929 76.2876C475.117 77.6266 474.963 78.6461 474.466 79.3461C473.967 80.029 473.099 80.4573 471.863 80.631L468.541 81.0979L465.563 59.9055L471.305 59.0984ZM472.408 72.3617C472.236 71.1429 471.601 70.6107 470.503 70.7651L469.112 70.9605L470.223 78.8658L471.588 78.674C472.704 78.5172 473.175 77.8208 473.001 76.5848L472.408 72.3617ZM479.396 61.8739C479.307 61.2387 479.113 60.7933 478.814 60.5377C478.513 60.2648 478.054 60.1719 477.436 60.2587L476.097 60.4469L477.114 67.6827L478.479 67.4909C479.045 67.4113 479.445 67.2063 479.679 66.8758C479.913 66.5454 479.984 66.054 479.892 65.4017L479.396 61.8739ZM476.84 79.9316L473.861 58.7392L477.157 58.276C478.393 58.1022 479.347 58.2834 480.017 58.8194C480.702 59.3358 481.139 60.2635 481.327 61.6025L481.816 65.0787C482.004 66.4177 481.849 67.4287 481.349 68.1116C480.85 68.7944 479.982 69.2227 478.746 69.3964L477.382 69.5882L478.797 79.6566L476.84 79.9316ZM484.649 78.8341C484.704 77.1107 484.761 75.3959 484.819 73.6898C484.876 71.9836 484.933 70.2688 484.988 68.5454C484.418 68.3455 483.969 68.0148 483.641 67.5531C483.331 67.0891 483.119 66.4536 483.006 65.6468L482.412 61.4238C482.217 60.0332 482.38 59.0125 482.901 58.3616C483.437 57.691 484.323 57.2689 485.559 57.0952L488.778 56.6428L491.756 77.8353L489.799 78.1103L488.449 68.5055L487.29 68.6683C487.084 68.6973 486.954 68.7068 486.9 68.6969L486.786 78.5337L484.649 78.8341ZM484.956 65.1364C485.047 65.7887 485.229 66.2709 485.5 66.5828C485.789 66.8924 486.259 67.0013 486.912 66.9097L488.199 66.7287L487.099 58.9007L485.837 59.078C485.219 59.1648 484.801 59.3637 484.582 59.6746C484.363 59.9854 484.301 60.4756 484.395 61.1451L484.956 65.1364ZM497.537 66.8868C496.937 66.9713 496.436 66.8316 496.034 66.4679C495.648 66.0845 495.412 65.5924 495.328 64.9916C495.243 64.3908 495.337 63.87 495.607 63.4293C495.893 62.9691 496.336 62.6967 496.937 62.6123C497.52 62.5303 498.004 62.6723 498.388 63.0385C498.787 63.3851 499.029 63.8588 499.113 64.4596C499.198 65.0605 499.098 65.5996 498.815 66.077C498.547 66.5348 498.121 66.8048 497.537 66.8868Z" fill="#F0EFEC"/>
<path d="M512.555 74.9122L509.855 55.7026L507.126 56.0862L509.825 75.2958L507.868 75.5709L504.89 54.3785L511.534 53.4448L514.512 74.6372L512.555 74.9122ZM518.975 56.3116C518.885 55.6764 518.691 55.231 518.393 54.9753C518.092 54.7025 517.633 54.6096 517.015 54.6964L515.675 54.8846L516.692 62.1204L518.057 61.9286C518.624 61.849 519.024 61.6439 519.257 61.3135C519.491 60.9831 519.562 60.4917 519.47 59.8393L518.975 56.3116ZM516.418 74.3693L513.44 53.1769L516.736 52.7136C517.972 52.5399 518.925 52.7211 519.596 53.257C520.281 53.7734 520.718 54.7011 520.906 56.0401L521.394 59.5164C521.583 60.8554 521.427 61.8664 520.928 62.5492C520.429 63.2321 519.561 63.6604 518.325 63.8341L516.96 64.0259L518.375 74.0942L516.418 74.3693ZM524.717 73.203L521.738 52.0106L527.352 51.2217L527.63 53.2044L523.974 53.7183L525.02 61.1601L527.595 60.7982L527.87 62.7553L525.295 63.1171L526.402 70.9967L530.187 70.4647L530.459 72.396L524.717 73.203ZM539.89 71.0705L538.989 64.6587C538.769 63.0966 538.555 61.5687 538.345 60.0752C538.152 58.5793 537.954 57.049 537.752 55.4844L537.65 71.3854L535.924 71.6279L531.469 56.3675C531.706 57.9272 531.929 59.4539 532.139 60.9474C532.366 62.4385 532.589 63.9651 532.809 65.5273L533.71 71.9391L531.907 72.1924L528.929 51L531.555 50.6309L536.123 66.8734L536.036 50.0012L538.74 49.6212L541.718 70.8136L539.89 71.0705ZM543.577 70.5524L540.598 49.36L542.375 49.1103L544.445 63.8394L544.95 48.7484L547.242 48.4263L550.22 69.6187L548.418 69.872L546.308 54.8597L545.456 70.2882L543.577 70.5524ZM551.637 69.4196C551.693 67.6962 551.749 65.9814 551.807 64.2752C551.865 62.569 551.921 60.8543 551.977 59.1309C551.406 58.931 550.957 58.6003 550.629 58.1386C550.319 57.6746 550.107 57.0391 549.994 56.2323L549.4 52.0092C549.205 50.6187 549.368 49.598 549.889 48.9471C550.425 48.2765 551.311 47.8544 552.547 47.6807L555.766 47.2283L558.744 68.4207L556.787 68.6958L555.437 59.091L554.279 59.2538C554.073 59.2828 553.943 59.2923 553.889 59.2823L553.775 69.1192L551.637 69.4196ZM551.944 55.7219C552.036 56.3742 552.217 56.8563 552.489 57.1683C552.777 57.4779 553.248 57.5868 553.9 57.4951L555.188 57.3142L554.088 49.4861L552.826 49.6635C552.208 49.7503 551.789 49.9492 551.57 50.26C551.352 50.5709 551.289 51.0611 551.383 51.7306L551.944 55.7219ZM563.914 67.6941L563.368 63.8059C563.281 63.1879 563.222 62.6447 563.191 62.1764C563.16 61.708 563.175 61.2508 563.235 60.8048C563.312 60.3563 563.448 59.8908 563.643 59.4083C563.837 58.9258 564.109 58.3711 564.459 57.7443C564.919 56.9093 565.294 56.209 565.582 55.6433C565.87 55.0777 566.089 54.5829 566.24 54.1591C566.388 53.7182 566.47 53.3041 566.485 52.9167C566.498 52.5122 566.47 52.0611 566.4 51.5633L566.082 49.2972C565.922 48.1642 565.379 47.6629 564.452 47.7931C563.92 47.8679 563.58 48.0645 563.432 48.3829C563.302 48.6989 563.276 49.1401 563.356 49.7066L563.87 53.3631L561.938 53.6345L561.424 49.978C561.241 48.6733 561.366 47.693 561.799 47.0369C562.249 46.3785 563.041 45.9696 564.174 45.8104C565.307 45.6511 566.19 45.8333 566.824 46.357C567.455 46.8634 567.861 47.7604 568.042 49.0479L568.375 51.417C568.457 52.0006 568.482 52.5486 568.449 53.0609C568.413 53.5561 568.325 54.0499 568.184 54.5423C568.06 55.0324 567.885 55.5297 567.659 56.0342C567.429 56.5215 567.161 57.0407 566.853 57.5916C566.415 58.3359 566.076 58.9701 565.834 59.4942C565.59 60.0011 565.419 60.4628 565.32 60.8794C565.221 61.2959 565.174 61.7138 565.181 62.1331C565.202 62.5327 565.25 62.9987 565.325 63.5308L565.6 65.4878L570.261 64.8328L570.532 66.7641L563.914 67.6941ZM569.459 48.7438C569.293 47.5592 569.442 46.628 569.907 45.9499C570.369 45.2547 571.193 44.8239 572.377 44.6574C573.562 44.4909 574.472 44.6781 575.108 45.2189C575.742 45.7425 576.142 46.5966 576.309 47.7811L578.339 62.227C578.506 63.4115 578.358 64.3513 577.895 65.0465C577.43 65.7246 576.605 66.1468 575.421 66.3133C574.236 66.4798 573.327 66.3012 572.694 65.7776C572.057 65.2368 571.656 64.3741 571.49 63.1896L569.459 48.7438ZM574.374 48.0268C574.22 46.9281 573.644 46.4487 572.649 46.5887C571.67 46.7262 571.258 47.3443 571.413 48.443L573.454 62.9661C573.608 64.0647 574.175 64.5453 575.153 64.4078C576.149 64.2679 576.569 63.6486 576.415 62.5499L574.374 48.0268ZM580.31 65.3899L579.763 61.5016C579.677 60.8836 579.618 60.3404 579.587 59.8721C579.556 59.4038 579.571 58.9466 579.63 58.5005C579.707 58.0521 579.843 57.5866 580.038 57.104C580.233 56.6215 580.505 56.0668 580.855 55.44C581.315 54.6051 581.689 53.9047 581.977 53.3391C582.265 52.7734 582.485 52.2787 582.635 51.8549C582.783 51.4139 582.865 50.9998 582.881 50.6125C582.894 50.208 582.866 49.7568 582.796 49.259L582.477 46.993C582.318 45.86 581.775 45.3586 580.848 45.4889C580.316 45.5637 579.976 45.7603 579.828 46.0786C579.697 46.3946 579.672 46.8358 579.751 47.4023L580.265 51.0589L578.334 51.3303L577.82 47.6738C577.637 46.3691 577.761 45.3887 578.194 44.7327C578.645 44.0742 579.436 43.6654 580.569 43.5061C581.702 43.3469 582.586 43.5291 583.219 44.0527C583.851 44.5592 584.257 45.4562 584.438 46.7437L584.771 49.1127C584.853 49.6964 584.877 50.2444 584.844 50.7567C584.809 51.2518 584.721 51.7456 584.58 52.2381C584.456 52.7281 584.281 53.2254 584.054 53.7299C583.825 54.2173 583.557 54.7364 583.249 55.2873C582.811 56.0316 582.471 56.6658 582.23 57.1899C581.986 57.6968 581.814 58.1586 581.715 58.5751C581.616 58.9917 581.57 59.4096 581.577 59.8288C581.598 60.2285 581.646 60.6944 581.72 61.2266L581.995 63.1836L586.656 62.5286L586.928 64.4598L580.31 65.3899ZM591.788 55.4001C591.709 54.8336 591.555 54.4263 591.328 54.1782C591.117 53.9277 590.72 53.8434 590.137 53.9254L589.133 54.0666L588.876 52.2383L589.983 52.0827C590.515 52.0079 590.839 51.8223 590.955 51.5259C591.086 51.21 591.112 50.7773 591.035 50.228L590.42 45.8504C590.338 45.2668 590.184 44.8595 589.959 44.6285C589.732 44.3804 589.352 44.2937 588.82 44.3685C588.305 44.4409 587.972 44.6277 587.822 44.9289C587.669 45.2129 587.634 45.6468 587.716 46.2304L588.241 49.9642L586.31 50.2356L585.785 46.5019C585.604 45.2143 585.731 44.2511 586.167 43.6123C586.617 42.9538 587.408 42.545 588.541 42.3857C589.674 42.2265 590.539 42.4025 591.136 42.9138C591.731 43.4079 592.12 44.3073 592.303 45.612L592.944 50.1698C593.04 50.8565 592.985 51.3981 592.778 51.7948C592.572 52.1915 592.232 52.5193 591.761 52.7781C592.259 52.8307 592.67 53.0179 592.995 53.3398C593.336 53.6422 593.56 54.1796 593.668 54.9521L594.374 59.9734C594.526 61.0549 594.383 61.9678 593.945 62.7121C593.505 63.4392 592.718 63.8824 591.585 64.0416C590.452 64.2009 589.565 63.9929 588.924 63.4178C588.3 62.8402 587.912 62.0107 587.76 60.9292L587.174 56.7577L589.156 56.479L589.743 60.6505C589.815 61.1655 589.975 61.5545 590.222 61.8174C590.469 62.0803 590.833 62.1779 591.313 62.1104C591.811 62.0404 592.143 61.845 592.308 61.5242C592.49 61.201 592.543 60.7733 592.469 60.2412L591.788 55.4001ZM600.335 52.4397C599.734 52.5241 599.233 52.3845 598.832 52.0207C598.445 51.6374 598.21 51.1453 598.125 50.5445C598.041 49.9436 598.134 49.4229 598.405 48.9822C598.69 48.5219 599.133 48.2496 599.734 48.1652C600.318 48.0831 600.801 48.2252 601.186 48.5914C601.584 48.9379 601.826 49.4117 601.91 50.0125C601.995 50.6133 601.896 51.1525 601.613 51.6299C601.344 52.0877 600.918 52.3577 600.335 52.4397ZM608.625 61.4105L608.079 57.5222C607.992 56.9042 607.933 56.361 607.902 55.8927C607.871 55.4243 607.886 54.9672 607.946 54.5211C608.023 54.0726 608.159 53.6071 608.353 53.1246C608.548 52.6421 608.82 52.0874 609.17 51.4606C609.63 50.6256 610.004 49.9253 610.293 49.3596C610.581 48.794 610.8 48.2992 610.95 47.8755C611.099 47.4345 611.18 47.0204 611.196 46.633C611.209 46.2286 611.181 45.7774 611.111 45.2796L610.792 43.0135C610.633 41.8805 610.09 41.3792 609.163 41.5095C608.631 41.5842 608.291 41.7808 608.143 42.0992C608.012 42.4152 607.987 42.8564 608.066 43.4229L608.58 47.0794L606.649 47.3509L606.135 43.6943C605.952 42.3896 606.077 41.4093 606.51 40.7532C606.96 40.0948 607.751 39.6859 608.884 39.5267C610.017 39.3675 610.901 39.5497 611.535 40.0733C612.166 40.5798 612.572 41.4767 612.753 42.7643L613.086 45.1333C613.168 45.7169 613.192 46.2649 613.159 46.7772C613.124 47.2724 613.036 47.7662 612.895 48.2586C612.771 48.7487 612.596 49.246 612.369 49.7505C612.14 50.2378 611.872 50.757 611.564 51.3079C611.126 52.0522 610.786 52.6864 610.545 53.2105C610.301 53.7174 610.13 54.1792 610.031 54.5957C609.932 55.0123 609.885 55.4301 609.892 55.8494C609.913 56.249 609.961 56.715 610.036 57.2471L610.311 59.2042L614.971 58.5491L615.243 60.4804L608.625 61.4105ZM614.17 42.4601C614.011 41.3271 614.153 40.4056 614.596 39.6956C615.056 38.9832 615.852 38.5474 616.985 38.3882C618.118 38.229 618.978 38.4319 619.565 38.9971C620.17 39.5599 620.551 40.4078 620.711 41.5408L621.224 45.1974L619.345 45.4616L618.831 41.805C618.758 41.29 618.591 40.9109 618.33 40.6676C618.083 40.4047 617.727 40.3058 617.264 40.371C616.817 40.4337 616.495 40.6279 616.295 40.9535C616.111 41.2595 616.055 41.67 616.127 42.185L616.912 47.7728C617.041 47.4397 617.253 47.1472 617.551 46.8954C617.848 46.6435 618.271 46.479 618.82 46.4018C619.747 46.2715 620.454 46.4435 620.941 46.9178C621.443 47.3725 621.778 48.2006 621.947 49.4023L622.87 55.9686C623.029 57.1016 622.878 58.0243 622.418 58.7367C621.958 59.4491 621.162 59.8849 620.029 60.0441C618.896 60.2033 618.011 60.0126 617.375 59.4717C616.753 58.9114 616.363 58.0647 616.204 56.9317L614.17 42.4601ZM620.051 50.1151C619.96 49.4628 619.78 48.9978 619.514 48.7201C619.262 48.4229 618.887 48.3093 618.389 48.3793C617.548 48.4975 617.152 48.982 617.202 49.8328L618.092 56.1674C618.186 56.8369 618.354 57.3472 618.596 57.6983C618.838 58.0495 619.225 58.1876 619.757 58.1128C620.255 58.0429 620.587 57.8475 620.752 57.5267C620.934 57.2035 620.987 56.7758 620.913 56.2436L620.051 50.1151ZM633.234 57.9519L631.855 48.1411L629.125 48.5247L630.504 58.3355L628.547 58.6106L625.569 37.4182L627.526 37.1431L628.854 46.5934L631.584 46.2098L630.255 36.7595L632.212 36.4845L635.191 57.6769L633.234 57.9519ZM634.438 39.6116C634.1 37.2082 635.039 35.8509 637.253 35.5397C639.485 35.226 640.77 36.2709 641.108 38.6742L643.138 53.1201C643.476 55.5234 642.529 56.8819 640.297 57.1956C638.082 57.5068 636.806 56.4608 636.468 54.0574L634.438 39.6116ZM639.151 38.9493C638.999 37.8678 638.459 37.3922 637.532 37.5224C636.622 37.6503 636.243 38.255 636.395 39.3365L638.426 53.7824C638.582 54.8982 639.116 55.3922 640.026 55.2643C640.953 55.134 641.338 54.511 641.181 53.3951L639.151 38.9493ZM644.881 56.315C644.936 54.5916 644.993 52.8769 645.051 51.1707C645.109 49.4645 645.165 47.7497 645.221 46.0263C644.65 45.8265 644.201 45.4957 643.873 45.034C643.563 44.57 643.351 43.9345 643.238 43.1277L642.644 38.9047C642.449 37.5142 642.612 36.4934 643.133 35.8425C643.669 35.172 644.555 34.7498 645.791 34.5761L649.01 34.1238L651.988 55.3162L650.031 55.5912L648.681 45.9864L647.522 46.1492C647.316 46.1782 647.187 46.1877 647.133 46.1778L647.018 56.0146L644.881 56.315ZM645.188 42.6173C645.28 43.2696 645.461 43.7518 645.733 44.0638C646.021 44.3733 646.492 44.4822 647.144 44.3906L648.432 44.2096L647.331 36.3816L646.07 36.5589C645.452 36.6457 645.033 36.8446 644.814 37.1555C644.595 37.4663 644.533 37.9565 644.627 38.626L645.188 42.6173ZM656.684 33.0452L656.963 35.028L653.177 35.56L654.223 43.0018L655.614 42.8063C656.85 42.6326 657.793 42.8064 658.444 43.3276C659.112 43.8464 659.541 44.7753 659.729 46.1143L660.308 50.2344C660.496 51.5734 660.342 52.5929 659.845 53.2929C659.346 53.9758 658.478 54.4041 657.242 54.5778L653.92 55.0446L650.942 33.8522L656.684 33.0452ZM657.787 46.3085C657.615 45.0897 656.98 44.5574 655.882 44.7118L654.491 44.9073L655.602 52.8126L656.967 52.6208C658.083 52.464 658.554 51.7675 658.38 50.5315L657.787 46.3085ZM664.775 35.8207C664.686 35.1855 664.492 34.7401 664.193 34.4844C663.892 34.2116 663.433 34.1186 662.815 34.2055L661.476 34.3937L662.493 41.6295L663.858 41.4377C664.424 41.3581 664.824 41.153 665.058 40.8226C665.291 40.4922 665.362 40.0008 665.271 39.3484L664.775 35.8207ZM662.219 53.8784L659.24 32.686L662.536 32.2227C663.772 32.049 664.726 32.2302 665.396 32.7661C666.081 33.2825 666.518 34.2102 666.706 35.5492L667.195 39.0255C667.383 40.3645 667.227 41.3755 666.728 42.0583C666.229 42.7412 665.361 43.1695 664.125 43.3432L662.761 43.535L664.176 53.6033L662.219 53.8784ZM670.028 52.7809C670.083 51.0575 670.14 49.3427 670.198 47.6365C670.255 45.9303 670.312 44.2156 670.367 42.4922C669.797 42.2923 669.347 41.9616 669.02 41.4999C668.71 41.0359 668.498 40.4004 668.384 39.5936L667.791 35.3705C667.596 33.98 667.758 32.9593 668.28 32.3083C668.816 31.6378 669.702 31.2157 670.938 31.042L674.156 30.5896L677.135 51.782L675.178 52.0571L673.828 42.4523L672.669 42.6151C672.463 42.6441 672.333 42.6536 672.279 42.6436L672.165 52.4805L670.028 52.7809ZM670.335 39.0832C670.426 39.7355 670.608 40.2176 670.879 40.5296C671.168 40.8392 671.638 40.9481 672.291 40.8564L673.578 40.6755L672.478 32.8474L671.216 33.0248C670.598 33.1116 670.18 33.3105 669.961 33.6213C669.742 33.9322 669.68 34.4224 669.774 35.0919L670.335 39.0832ZM682.916 40.8336C682.316 40.918 681.814 40.7784 681.413 40.4146C681.027 40.0313 680.791 39.5392 680.707 38.9384C680.622 38.3375 680.716 37.8168 680.986 37.3761C681.272 36.9159 681.715 36.6435 682.316 36.5591C682.899 36.477 683.383 36.6191 683.767 36.9853C684.166 37.3318 684.408 37.8056 684.492 38.4064C684.577 39.0072 684.477 39.5464 684.194 40.0238C683.926 40.4816 683.5 40.7516 682.916 40.8336Z" fill="#F0EFEC"/>
<path d="M697.934 48.8585L695.234 29.6489L692.505 30.0325L695.204 49.2421L693.247 49.5172L690.269 28.3248L696.912 27.3911L699.891 48.5835L697.934 48.8585ZM704.353 30.2579C704.264 29.6227 704.07 29.1773 703.772 28.9216C703.471 28.6488 703.011 28.5558 702.393 28.6427L701.054 28.8309L702.071 36.0667L703.436 35.8749C704.003 35.7953 704.403 35.5902 704.636 35.2598C704.87 34.9294 704.941 34.438 704.849 33.7856L704.353 30.2579ZM701.797 48.3156L698.819 27.1232L702.115 26.6599C703.351 26.4862 704.304 26.6674 704.975 27.2033C705.66 27.7197 706.097 28.6474 706.285 29.9864L706.773 33.4627C706.961 34.8017 706.806 35.8127 706.307 36.4955C705.808 37.1784 704.94 37.6067 703.704 37.7804L702.339 37.9722L703.754 48.0405L701.797 48.3156ZM710.096 47.1493L707.117 25.9569L712.731 25.168L713.009 27.1507L709.353 27.6646L710.399 35.1064L712.974 34.7445L713.249 36.7015L710.674 37.0634L711.781 44.943L715.566 44.411L715.838 46.3423L710.096 47.1493ZM725.269 45.0168L724.368 38.605C724.148 37.0429 723.933 35.515 723.724 34.0215C723.531 32.5256 723.333 30.9953 723.131 29.4307L723.029 45.3317L721.303 45.5742L716.848 30.3138C717.085 31.8735 717.308 33.4002 717.518 34.8937C717.745 36.3848 717.968 37.9114 718.188 39.4736L719.089 45.8854L717.286 46.1387L714.308 24.9463L716.934 24.5772L721.502 40.8197L721.415 23.9475L724.119 23.5675L727.097 44.7599L725.269 45.0168ZM728.956 44.4987L725.977 23.3063L727.754 23.0566L729.824 37.7857L730.329 22.6947L732.621 22.3726L735.599 43.565L733.797 43.8183L731.687 28.806L730.835 44.2345L728.956 44.4987ZM737.016 43.3659C737.072 41.6425 737.128 39.9277 737.186 38.2215C737.244 36.5153 737.3 34.8006 737.356 33.0772C736.785 32.8773 736.336 32.5466 736.008 32.0849C735.698 31.6208 735.486 30.9854 735.373 30.1786L734.779 25.9555C734.584 24.565 734.747 23.5443 735.268 22.8933C735.804 22.2228 736.69 21.8007 737.926 21.627L741.145 21.1746L744.123 42.367L742.166 42.6421L740.816 33.0372L739.658 33.2001C739.452 33.229 739.322 33.2386 739.268 33.2286L739.153 43.0655L737.016 43.3659ZM737.323 29.6681C737.415 30.3205 737.596 30.8026 737.868 31.1146C738.156 31.4242 738.627 31.5331 739.279 31.4414L740.567 31.2605L739.466 23.4324L738.205 23.6098C737.587 23.6966 737.168 23.8955 736.949 24.2063C736.73 24.5172 736.668 25.0074 736.762 25.6769L737.323 29.6681ZM749.293 41.6404L748.747 37.7522C748.66 37.1342 748.601 36.591 748.57 36.1227C748.539 35.6543 748.554 35.1971 748.614 34.7511C748.691 34.3026 748.827 33.8371 749.021 33.3546C749.216 32.8721 749.488 32.3174 749.838 31.6906C750.298 30.8556 750.673 30.1553 750.961 29.5896C751.249 29.024 751.468 28.5292 751.619 28.1054C751.767 27.6645 751.849 27.2503 751.864 26.863C751.877 26.4585 751.849 26.0074 751.779 25.5095L751.46 23.2435C751.301 22.1105 750.758 21.6092 749.831 21.7394C749.299 21.8142 748.959 22.0108 748.811 22.3292C748.68 22.6451 748.655 23.0864 748.735 23.6529L749.248 27.3094L747.317 27.5808L746.803 23.9243C746.62 22.6196 746.745 21.6393 747.178 20.9832C747.628 20.3248 748.419 19.9159 749.552 19.7567C750.685 19.5974 751.569 19.7796 752.203 20.3033C752.834 20.8097 753.24 21.7067 753.421 22.9942L753.754 25.3633C753.836 25.9469 753.861 26.4949 753.828 27.0072C753.792 27.5024 753.704 27.9962 753.563 28.4886C753.439 28.9787 753.264 29.4759 753.038 29.9805C752.808 30.4678 752.54 30.987 752.232 31.5379C751.794 32.2822 751.454 32.9164 751.213 33.4405C750.969 33.9474 750.798 34.4091 750.699 34.8257C750.6 35.2422 750.553 35.6601 750.56 36.0794C750.581 36.479 750.629 36.9449 750.704 37.4771L750.979 39.4341L755.64 38.7791L755.911 40.7104L749.293 41.6404ZM754.838 22.69C754.672 21.5055 754.821 20.5743 755.286 19.8962C755.748 19.201 756.572 18.7702 757.756 18.6037C758.941 18.4372 759.851 18.6244 760.487 19.1652C761.121 19.6888 761.521 20.5429 761.688 21.7274L763.718 36.1733C763.884 37.3578 763.736 38.2976 763.274 38.9928C762.809 39.6709 761.984 40.0931 760.8 40.2596C759.615 40.4261 758.706 40.2475 758.072 39.7239C757.436 39.1831 757.035 38.3204 756.868 37.1359L754.838 22.69ZM759.753 21.9731C759.598 20.8744 759.023 20.395 758.028 20.535C757.049 20.6725 756.637 21.2906 756.792 22.3893L758.833 36.9124C758.987 38.011 759.554 38.4916 760.532 38.3541C761.528 38.2142 761.948 37.5949 761.794 36.4962L759.753 21.9731ZM765.689 39.3362L765.142 35.4479C765.055 34.8299 764.997 34.2867 764.966 33.8184C764.935 33.3501 764.95 32.8929 765.009 32.4468C765.086 31.9983 765.222 31.5329 765.417 31.0503C765.612 30.5678 765.884 30.0131 766.234 29.3863C766.694 28.5513 767.068 27.851 767.356 27.2854C767.644 26.7197 767.864 26.225 768.014 25.8012C768.162 25.3602 768.244 24.9461 768.26 24.5588C768.273 24.1543 768.245 23.7031 768.175 23.2053L767.856 20.9393C767.697 19.8063 767.154 19.3049 766.227 19.4352C765.695 19.51 765.355 19.7066 765.207 20.0249C765.076 20.3409 765.051 20.7821 765.13 21.3486L765.644 25.0052L763.713 25.2766L763.199 21.62C763.016 20.3154 763.14 19.335 763.573 18.679C764.023 18.0205 764.815 17.6116 765.948 17.4524C767.081 17.2932 767.964 17.4754 768.598 17.999C769.23 18.5055 769.636 19.4025 769.817 20.69L770.15 23.059C770.232 23.6427 770.256 24.1907 770.223 24.703C770.188 25.1981 770.1 25.6919 769.959 26.1844C769.835 26.6744 769.66 27.1717 769.433 27.6762C769.204 28.1636 768.936 28.6827 768.628 29.2336C768.19 29.9779 767.85 30.6121 767.609 31.1362C767.365 31.6431 767.193 32.1049 767.094 32.5214C766.995 32.938 766.949 33.3559 766.955 33.7751C766.977 34.1748 767.025 34.6407 767.099 35.1729L767.374 37.1299L772.035 36.4748L772.307 38.4061L765.689 39.3362ZM777.167 29.3464C777.088 28.7799 776.934 28.3726 776.707 28.1245C776.496 27.8739 776.099 27.7897 775.516 27.8717L774.511 28.0129L774.255 26.1846L775.362 26.029C775.894 25.9542 776.218 25.7686 776.334 25.4722C776.465 25.1563 776.491 24.7236 776.414 24.1743L775.799 19.7967C775.717 19.2131 775.563 18.8057 775.338 18.5748C775.111 18.3267 774.731 18.24 774.199 18.3148C773.684 18.3872 773.351 18.5739 773.201 18.8752C773.048 19.1592 773.013 19.5931 773.095 20.1767L773.62 23.9105L771.689 24.1819L771.164 20.4481C770.983 19.1606 771.11 18.1974 771.545 17.5586C771.996 16.9001 772.787 16.4912 773.92 16.332C775.053 16.1728 775.918 16.3488 776.515 16.8601C777.11 17.3542 777.499 18.2536 777.682 19.5583L778.323 24.1161C778.419 24.8028 778.364 25.3444 778.157 25.7411C777.95 26.1378 777.611 26.4656 777.14 26.7244C777.638 26.777 778.049 26.9642 778.374 27.2861C778.714 27.5885 778.939 28.1259 779.047 28.8984L779.753 33.9197C779.905 35.0012 779.762 35.9141 779.324 36.6584C778.883 37.3855 778.097 37.8287 776.964 37.9879C775.831 38.1472 774.944 37.9392 774.303 37.3641C773.679 36.7865 773.291 35.957 773.139 34.8755L772.553 30.704L774.535 30.4253L775.122 34.5968C775.194 35.1118 775.354 35.5008 775.601 35.7637C775.848 36.0265 776.212 36.1242 776.692 36.0567C777.19 35.9867 777.522 35.7913 777.687 35.4705C777.869 35.1473 777.922 34.7196 777.848 34.1875L777.167 29.3464ZM785.714 26.386C785.113 26.4704 784.612 26.3308 784.21 25.967C783.824 25.5837 783.589 25.0916 783.504 24.4908C783.42 23.8899 783.513 23.3692 783.783 22.9285C784.069 22.4682 784.512 22.1959 785.113 22.1114C785.697 22.0294 786.18 22.1715 786.564 22.5376C786.963 22.8842 787.205 23.3579 787.289 23.9588C787.374 24.5596 787.275 25.0987 786.992 25.5762C786.723 26.034 786.297 26.3039 785.714 26.386ZM794.004 35.3567L793.457 31.4685C793.371 30.8505 793.312 30.3073 793.281 29.839C793.25 29.3706 793.265 28.9134 793.325 28.4674C793.402 28.0189 793.537 27.5534 793.732 27.0709C793.927 26.5884 794.199 26.0337 794.549 25.4069C795.009 24.5719 795.383 23.8716 795.671 23.3059C795.96 22.7403 796.179 22.2455 796.329 21.8217C796.477 21.3808 796.559 20.9667 796.575 20.5793C796.588 20.1748 796.56 19.7237 796.49 19.2259L796.171 16.9598C796.012 15.8268 795.469 15.3255 794.542 15.4557C794.01 15.5305 793.67 15.7271 793.522 16.0455C793.391 16.3615 793.366 16.8027 793.445 17.3692L793.959 21.0257L792.028 21.2971L791.514 17.6406C791.331 16.3359 791.456 15.3556 791.889 14.6995C792.339 14.0411 793.13 13.6322 794.263 13.473C795.396 13.3137 796.28 13.4959 796.913 14.0196C797.545 14.526 797.951 15.423 798.132 16.7105L798.465 19.0796C798.547 19.6632 798.571 20.2112 798.538 20.7235C798.503 21.2187 798.415 21.7125 798.274 22.2049C798.15 22.695 797.975 23.1923 797.748 23.6968C797.519 24.1841 797.251 24.7033 796.943 25.2542C796.505 25.9985 796.165 26.6327 795.924 27.1568C795.68 27.6637 795.508 28.1254 795.409 28.542C795.31 28.9585 795.264 29.3764 795.271 29.7957C795.292 30.1953 795.34 30.6613 795.414 31.1934L795.69 33.1504L800.35 32.4954L800.622 34.4267L794.004 35.3567ZM799.549 16.4064C799.39 15.2733 799.532 14.3519 799.974 13.6419C800.435 12.9295 801.231 12.4937 802.364 12.3345C803.497 12.1752 804.357 12.3782 804.944 12.9434C805.549 13.5062 805.93 14.3541 806.09 15.4871L806.603 19.1437L804.724 19.4078L804.21 15.7513C804.137 15.2363 803.97 14.8572 803.709 14.6139C803.462 14.351 803.106 14.2521 802.643 14.3172C802.196 14.38 801.874 14.5741 801.674 14.8998C801.49 15.2058 801.434 15.6163 801.506 16.1313L802.291 21.7191C802.42 21.386 802.632 21.0935 802.929 20.8416C803.227 20.5898 803.65 20.4253 804.199 20.3481C805.126 20.2178 805.833 20.3898 806.32 20.8641C806.822 21.3187 807.157 22.1469 807.326 23.3486L808.248 29.9149C808.408 31.0479 808.257 31.9706 807.797 32.683C807.337 33.3953 806.541 33.8312 805.408 33.9904C804.275 34.1496 803.39 33.9588 802.754 33.418C802.132 32.8577 801.742 32.011 801.583 30.878L799.549 16.4064ZM805.43 24.0614C805.338 23.4091 805.159 22.9441 804.893 22.6664C804.641 22.3692 804.266 22.2556 803.768 22.3256C802.927 22.4438 802.531 22.9283 802.581 23.7791L803.471 30.1137C803.565 30.7832 803.733 31.2935 803.975 31.6446C804.217 31.9957 804.604 32.1339 805.136 32.0591C805.634 31.9892 805.965 31.7938 806.13 31.473C806.313 31.1498 806.366 30.7221 806.291 30.1899L805.43 24.0614ZM818.613 31.8982L817.234 22.0874L814.504 22.471L815.883 32.2818L813.926 32.5569L810.948 11.3645L812.905 11.0894L814.233 20.5397L816.962 20.1561L815.634 10.7058L817.591 10.4308L820.57 31.6232L818.613 31.8982ZM819.817 13.5578C819.479 11.1545 820.418 9.7972 822.632 9.48597C824.864 9.17233 826.149 10.2172 826.486 12.6205L828.517 27.0664C828.854 29.4697 827.908 30.8282 825.676 31.1419C823.461 31.4531 822.185 30.407 821.847 28.0037L819.817 13.5578ZM824.529 12.8956C824.377 11.8141 823.838 11.3384 822.911 11.4687C822.001 11.5966 821.622 12.2013 821.774 13.2828L823.804 27.7287C823.961 28.8445 824.495 29.3385 825.404 29.2106C826.331 29.0803 826.717 28.4573 826.56 27.3414L824.529 12.8956ZM830.26 30.2613C830.315 28.5379 830.372 26.8231 830.43 25.117C830.488 23.4108 830.544 21.696 830.6 19.9726C830.029 19.7727 829.58 19.442 829.252 18.9803C828.942 18.5163 828.73 17.8808 828.617 17.074L828.023 12.851C827.828 11.4604 827.991 10.4397 828.512 9.78877C829.048 9.11825 829.934 8.69613 831.17 8.52242L834.389 8.07005L837.367 29.2625L835.41 29.5375L834.06 19.9327L832.901 20.0955C832.695 20.1245 832.565 20.134 832.512 20.1241L832.397 29.9609L830.26 30.2613ZM830.567 16.5636C830.659 17.2159 830.84 17.6981 831.112 18.01C831.4 18.3196 831.871 18.4285 832.523 18.3369L833.81 18.1559L832.71 10.3279L831.449 10.5052C830.831 10.592 830.412 10.7909 830.193 11.1018C829.974 11.4126 829.912 11.9028 830.006 12.5723L830.567 16.5636ZM842.063 6.99149L842.342 8.97425L838.556 9.50624L839.602 16.948L840.993 16.7526C842.229 16.5789 843.172 16.7527 843.823 17.2739C844.491 17.7927 844.919 18.7216 845.108 20.0606L845.687 24.1806C845.875 25.5197 845.721 26.5392 845.224 27.2392C844.725 27.9221 843.857 28.3504 842.621 28.5241L839.299 28.9909L836.321 7.79852L842.063 6.99149ZM843.166 20.2548C842.994 19.0359 842.359 18.5037 841.261 18.6581L839.87 18.8536L840.981 26.7589L842.346 26.5671C843.462 26.4102 843.933 25.7138 843.759 24.4778L843.166 20.2548ZM850.154 9.76695C850.065 9.13178 849.871 8.68637 849.572 8.43073C849.271 8.15791 848.812 8.06493 848.194 8.15179L846.855 8.33998L847.872 15.5758L849.236 15.384C849.803 15.3044 850.203 15.0993 850.437 14.7689C850.67 14.4385 850.741 13.9471 850.65 13.2947L850.154 9.76695ZM847.598 27.8247L844.619 6.63225L847.915 6.16903C849.151 5.99532 850.104 6.17645 850.775 6.71242C851.46 7.22882 851.897 8.15652 852.085 9.49553L852.574 12.9718C852.762 14.3108 852.606 15.3218 852.107 16.0046C851.608 16.6875 850.74 17.1158 849.504 17.2895L848.14 17.4813L849.555 27.5496L847.598 27.8247ZM855.407 26.7272C855.462 25.0038 855.519 23.289 855.576 21.5828C855.634 19.8766 855.691 18.1618 855.746 16.4385C855.176 16.2386 854.726 15.9079 854.399 15.4462C854.089 14.9821 853.877 14.3467 853.763 13.5399L853.17 9.31682C852.974 7.92631 853.137 6.90558 853.659 6.25464C854.195 5.58411 855.081 5.162 856.317 4.98829L859.535 4.53592L862.514 25.7283L860.557 26.0034L859.207 16.3985L858.048 16.5614C857.842 16.5903 857.712 16.5999 857.658 16.5899L857.544 26.4268L855.407 26.7272ZM855.714 13.0294C855.805 13.6818 855.987 14.1639 856.258 14.4759C856.547 14.7855 857.017 14.8944 857.67 14.8027L858.957 14.6218L857.857 6.79372L856.595 6.97105C855.977 7.0579 855.559 7.25676 855.34 7.56762C855.121 7.87848 855.059 8.36866 855.153 9.03816L855.714 13.0294ZM868.295 14.7799C867.694 14.8643 867.193 14.7247 866.792 14.3609C866.406 13.9776 866.17 13.4855 866.086 12.8847C866.001 12.2838 866.094 11.7631 866.365 11.3224C866.651 10.8621 867.094 10.5898 867.695 10.5053C868.278 10.4233 868.762 10.5654 869.146 10.9316C869.545 11.2781 869.787 11.7518 869.871 12.3527C869.955 12.9535 869.856 13.4926 869.573 13.9701C869.305 14.4279 868.879 14.6979 868.295 14.7799Z" fill="#F0EFEC"/>
</g>
<defs>
<clipPath id="clip0_21_1788">
<rect width="822.211" height="41.4013" fill="white" transform="translate(0.000976562 114.43) rotate(-8)"/>
</clipPath>
</defs>
</svg>
