<svg width="64" height="66" viewBox="0 0 64 66" fill="none" xmlns="http://www.w3.org/2000/svg">
<rect x="-0.75" y="-0.75" width="63.4302" height="62.5" rx="31.25" transform="matrix(4.37114e-08 -1 -1 -4.37114e-08 62.5 64.0969)" stroke="#F4444A" stroke-width="1.5"/>
<path d="M34.4327 47.3258C34.3 47.4643 34.1416 47.5744 33.9669 47.6496C33.7922 47.7249 33.6047 47.7638 33.4151 47.7642C33.2256 47.7645 33.0378 47.7262 32.8629 47.6516C32.6879 47.5769 32.5293 47.4674 32.3961 47.3294C32.2629 47.1914 32.1579 47.0276 32.0872 46.8477C32.0165 46.6677 31.9815 46.4752 31.9842 46.2812C31.987 46.0873 32.0274 45.8959 32.1032 45.7181C32.1789 45.5403 32.2885 45.3797 32.4255 45.2457L42.9627 34.5907L17.7127 34.5907C17.3338 34.5907 16.9704 34.4367 16.7025 34.1625C16.4346 33.8884 16.2841 33.5166 16.2841 33.1289C16.2841 32.7412 16.4346 32.3694 16.7025 32.0952C16.9704 31.8211 17.3338 31.6671 17.7127 31.6671L42.9598 31.6671L32.4255 21.0165C32.163 20.7426 32.0163 20.3741 32.017 19.9905C32.0176 19.6069 32.1656 19.2389 32.429 18.966C32.6924 18.693 33.05 18.5369 33.4249 18.5314C33.7997 18.5258 34.1617 18.6713 34.4327 18.9363L47.1884 31.8308C47.3564 32.0007 47.4898 32.2031 47.5808 32.4262C47.6719 32.6493 47.7188 32.8886 47.7188 33.1303C47.7188 33.3721 47.6719 33.6114 47.5808 33.8345C47.4898 34.0576 47.3564 34.2599 47.1884 34.4299L34.4327 47.3258Z" fill="#F4444A"/>
</svg>
