<svg width="1263" height="240" viewBox="0 0 1263 240" fill="none" xmlns="http://www.w3.org/2000/svg">
<g clip-path="url(#clip0_0_50)">
<rect width="1264.78" height="64" transform="translate(0.701172 176.323) rotate(-8)" fill="#020204"/>
<path d="M-63.335 235.814L-66.3454 236.237L-70.4983 206.688L-74.697 207.278L-70.5441 236.827L-73.5545 237.25L-78.1361 204.651L-67.9165 203.214L-63.335 235.814ZM-55.7075 213.051L-56.4702 207.624C-56.7429 205.683 -57.584 204.873 -59.4853 205.14L-61.545 205.429L-59.9807 216.56L-57.8814 216.265C-56.1385 216.02 -55.4236 215.071 -55.7075 213.051ZM-57.3921 234.979L-60.4025 235.402L-64.9841 202.802L-59.9139 202.09C-56.1113 201.555 -54.0783 203.087 -53.4994 207.207L-52.7478 212.554C-52.1689 216.674 -53.6668 218.662 -57.4694 219.196L-59.5688 219.491L-57.3921 234.979ZM-38.8042 232.366L-47.6374 233.608L-52.2189 201.008L-43.5838 199.795L-43.1551 202.845L-48.7799 203.635L-47.171 215.083L-43.21 214.526L-42.7869 217.536L-46.7479 218.093L-45.0445 230.214L-39.2217 229.396L-38.8042 232.366ZM-21.4844 229.932L-24.2967 230.328L-25.6829 220.465C-26.3565 215.672 -26.9515 211.15 -27.5855 206.352L-27.7429 230.812L-30.3968 231.185L-37.2505 207.71C-36.5373 212.498 -35.8631 217.008 -35.1895 221.801L-33.8033 231.664L-36.5761 232.053L-41.1576 199.454L-37.1174 198.886L-30.0917 223.871L-30.2251 197.917L-26.066 197.333L-21.4844 229.932ZM-15.734 229.124L-18.6256 229.531L-23.2072 196.931L-20.474 196.547L-17.2898 219.204L-16.513 195.99L-12.9876 195.495L-8.40603 228.094L-11.1788 228.484L-14.4243 205.391L-15.734 229.124ZM-2.93852 227.326L-6.22621 227.788C-6.07847 222.516 -5.85151 217.233 -5.70378 211.961C-7.44472 211.358 -8.40887 209.958 -8.75402 207.502L-9.66699 201.006C-10.2682 196.728 -8.6292 194.882 -4.82657 194.348L0.124774 193.652L4.70635 226.251L1.69594 226.675L-0.380525 211.9L-2.16301 212.15C-2.44028 212.189 -2.63834 212.217 -2.76274 212.194L-2.93852 227.326ZM-6.61697 200.578L-5.7541 206.717C-5.47575 208.698 -4.72571 209.723 -2.74518 209.445L-0.764643 209.167L-2.45699 197.125L-4.39791 197.398C-6.29923 197.665 -6.90645 198.518 -6.61697 200.578ZM22.8391 223.703L12.6591 225.134L11.8185 219.153C11.2841 215.35 11.3387 213.727 13.4972 209.828C16.3656 204.659 16.9172 203.41 16.483 200.32L15.9931 196.834C15.7481 195.092 14.9127 194.32 13.4867 194.521C11.8626 194.749 11.5549 195.721 11.7999 197.464L12.5904 203.089L9.61959 203.506L8.82909 197.882C8.26683 193.881 9.57227 191.961 13.058 191.471C16.5438 190.981 18.4524 192.49 19.009 196.451L19.5212 200.095C20.0222 203.66 19.0887 206.215 17.1803 209.593C14.4716 214.175 14.3669 215.442 14.8289 218.729L15.252 221.74L22.4216 220.732L22.8391 223.703ZM24.3119 218.205L21.1889 195.983C20.6767 192.339 22.0336 190.209 25.6777 189.697C29.3219 189.185 31.2132 190.858 31.7253 194.502L34.8484 216.724C35.3605 220.368 34.0037 222.498 30.3595 223.01C26.7153 223.522 24.8241 221.849 24.3119 218.205ZM31.8887 217.221L28.749 194.88C28.5096 193.177 27.6401 192.451 26.0953 192.668C24.5901 192.879 23.9544 193.817 24.1937 195.52L27.3335 217.861C27.5729 219.564 28.4424 220.29 29.9476 220.078C31.4924 219.861 32.1281 218.924 31.8887 217.221ZM48.06 220.159L37.88 221.589L37.0394 215.608C36.505 211.805 36.5596 210.182 38.7181 206.284C41.5865 201.114 42.1381 199.865 41.7038 196.776L41.214 193.29C40.969 191.547 40.1335 190.776 38.7076 190.976C37.0835 191.204 36.7758 192.177 37.0208 193.92L37.8113 199.544L34.8405 199.962L34.05 194.337C33.4877 190.336 34.7932 188.416 38.2789 187.926C41.7646 187.436 43.6732 188.945 44.2299 192.906L44.7421 196.551C45.2431 200.115 44.3096 202.67 42.4012 206.049C39.6925 210.63 39.5878 211.897 40.0498 215.185L40.4729 218.195L47.6425 217.188L48.06 220.159ZM56.5835 213.669L55.5369 206.222C55.292 204.479 54.779 203.703 52.9965 203.954L51.4517 204.171L51.0564 201.359L52.7597 201.119C54.3837 200.891 54.6178 199.969 54.3784 198.266L53.432 191.532C53.1815 189.75 52.5948 189.024 50.9708 189.253C49.3864 189.475 49.0224 190.334 49.2729 192.117L50.0801 197.86L47.1093 198.278L46.3021 192.534C45.7454 188.573 47.0564 186.692 50.5421 186.203C54.0279 185.713 55.7669 187.165 56.3292 191.166L57.3145 198.177C57.6095 200.276 56.9565 201.378 55.4952 202.189C57.0109 202.339 58.0952 203.156 58.4292 205.533L59.5147 213.257C59.9823 216.584 58.7097 219.025 55.2239 219.515C51.7382 220.005 49.808 218.055 49.3403 214.727L48.4385 208.311L51.4885 207.882L52.3904 214.299C52.613 215.883 53.3408 216.75 54.8064 216.544C56.3512 216.327 56.8118 215.293 56.5835 213.669ZM68.6836 201.668C66.8219 201.93 65.5464 200.615 65.2848 198.753C65.0231 196.891 65.8978 195.355 67.7595 195.093C69.542 194.842 70.8459 196.073 71.1076 197.935C71.3692 199.796 70.4661 201.418 68.6836 201.668ZM91.6163 214.037L81.4363 215.468L80.5957 209.487C80.0613 205.684 80.1159 204.061 82.2744 200.162C85.1428 194.993 85.6944 193.744 85.2602 190.654L84.7703 187.168C84.5253 185.426 83.6899 184.654 82.2639 184.855C80.6398 185.083 80.3322 186.055 80.5771 187.798L81.3676 193.423L78.3968 193.84L77.6063 188.216C77.044 184.215 78.3495 182.295 81.8352 181.805C85.321 181.315 87.2296 182.824 87.7863 186.785L88.2984 190.429C88.7994 193.994 87.8659 196.549 85.9575 199.927C83.2488 204.509 83.1441 205.776 83.6062 209.063L84.0292 212.074L91.1988 211.066L91.6163 214.037ZM93.0947 208.578L89.9661 186.317C89.4762 182.831 90.8108 180.543 94.2965 180.053C97.7823 179.563 99.5373 181.417 100.027 184.903L100.818 190.528L97.9261 190.934L97.1356 185.309C96.913 183.725 96.1512 182.903 94.7252 183.103C93.3388 183.298 92.7538 184.309 92.9765 185.894L94.1845 194.489C94.5659 193.466 95.4163 192.62 97.1196 192.38C99.9716 191.98 101.411 193.312 101.929 196.996L103.348 207.097C103.838 210.582 102.464 212.876 98.9783 213.366C95.4926 213.856 93.5846 212.064 93.0947 208.578ZM100.338 207.52L99.013 198.092C98.7291 196.072 98.0013 195.205 96.4565 195.422C95.1493 195.606 94.565 196.334 94.6299 197.658L95.9994 207.403C96.2888 209.462 96.9367 210.623 98.5608 210.395C100.106 210.178 100.566 209.144 100.338 207.52ZM122.302 209.725L119.291 210.148L117.17 195.056L112.971 195.646L115.092 210.738L112.082 211.161L107.5 178.561L110.511 178.138L112.554 192.675L116.753 192.085L114.71 177.548L117.72 177.125L122.302 209.725ZM124.267 204.157L121.144 181.935C120.626 178.251 122.068 176.15 125.474 175.672C128.921 175.187 130.886 176.81 131.403 180.493L134.526 202.715C135.044 206.399 133.602 208.5 130.156 208.984C126.75 209.463 124.785 207.841 124.267 204.157ZM131.516 203.138L128.393 180.916C128.159 179.253 127.329 178.521 125.903 178.722C124.517 178.916 123.921 179.848 124.154 181.512L127.278 203.734C127.517 205.437 128.352 206.208 129.739 206.013C131.165 205.813 131.755 204.841 131.516 203.138ZM140.496 207.168L137.208 207.63C137.356 202.358 137.583 197.075 137.73 191.803C135.989 191.199 135.025 189.8 134.68 187.344L133.767 180.848C133.166 176.57 134.805 174.724 138.608 174.189L143.559 173.493L148.14 206.093L145.13 206.516L143.054 191.741L141.271 191.992C140.994 192.031 140.796 192.059 140.671 192.036L140.496 207.168ZM136.817 180.419L137.68 186.559C137.958 188.539 138.708 189.565 140.689 189.287L142.669 189.008L140.977 176.967L139.036 177.239C137.135 177.507 136.528 178.359 136.817 180.419ZM146.531 173.076L155.364 171.834L155.793 174.884L149.97 175.703L151.579 187.15L153.718 186.85C157.52 186.315 159.469 187.819 160.048 191.938L160.938 198.276C161.517 202.395 160.025 204.423 156.222 204.957L151.113 205.675L146.531 173.076ZM157.973 198.733L157.06 192.237C156.793 190.336 155.833 189.541 154.13 189.781L151.991 190.081L153.7 202.242L155.799 201.947C157.542 201.702 158.246 200.674 157.973 198.733ZM168.573 181.53L167.81 176.104C167.537 174.163 166.696 173.352 164.795 173.619L162.735 173.909L164.3 185.039L166.399 184.744C168.142 184.499 168.857 183.551 168.573 181.53ZM166.888 203.458L163.878 203.881L159.296 171.282L164.366 170.569C168.169 170.035 170.202 171.567 170.781 175.686L171.532 181.034C172.111 185.153 170.613 187.141 166.811 187.675L164.711 187.971L166.888 203.458ZM179.178 201.731L175.89 202.193C176.038 196.921 176.265 191.638 176.413 186.366C174.672 185.763 173.708 184.363 173.362 181.908L172.449 175.411C171.848 171.133 173.487 169.287 177.29 168.753L182.241 168.057L186.823 200.657L183.812 201.08L181.736 186.305L179.953 186.555C179.676 186.594 179.478 186.622 179.354 186.599L179.178 201.731ZM175.5 174.983L176.362 181.122C176.641 183.103 177.391 184.129 179.371 183.85L181.352 183.572L179.659 171.53L177.719 171.803C175.817 172.07 175.21 172.923 175.5 174.983ZM195.716 183.815C193.855 184.077 192.579 182.761 192.318 180.9C192.056 179.038 192.931 177.501 194.792 177.24C196.575 176.989 197.879 178.22 198.14 180.081C198.402 181.943 197.499 183.565 195.716 183.815Z" fill="#F0EFEC"/>
<path d="M221.862 195.733L218.852 196.156L214.699 166.606L210.5 167.196L214.653 196.746L211.643 197.169L207.061 164.569L217.281 163.133L221.862 195.733ZM229.49 172.969L228.727 167.543C228.454 165.602 227.613 164.791 225.712 165.058L223.652 165.348L225.217 176.478L227.316 176.183C229.059 175.938 229.774 174.99 229.49 172.969ZM227.805 194.897L224.795 195.32L220.213 162.721L225.283 162.008C229.086 161.474 231.119 163.006 231.698 167.125L232.449 172.473C233.028 176.592 231.53 178.58 227.728 179.114L225.628 179.41L227.805 194.897ZM246.393 192.285L237.56 193.526L232.978 160.927L241.613 159.713L242.042 162.763L236.417 163.554L238.026 175.001L241.987 174.444L242.41 177.455L238.449 178.012L240.153 190.132L245.976 189.314L246.393 192.285ZM263.713 189.851L260.901 190.246L259.514 180.383C258.841 175.59 258.246 171.069 257.612 166.27L257.454 190.73L254.8 191.103L247.947 167.629C248.66 172.416 249.334 176.926 250.008 181.719L251.394 191.582L248.621 191.972L244.04 159.372L248.08 158.804L255.106 183.79L254.972 157.836L259.131 157.251L263.713 189.851ZM269.463 189.043L266.572 189.449L261.99 156.849L264.723 156.465L267.908 179.123L268.684 155.909L272.21 155.413L276.791 188.013L274.018 188.402L270.773 165.309L269.463 189.043ZM282.259 187.244L278.971 187.706C279.119 182.435 279.346 177.152 279.493 171.88C277.753 171.276 276.788 169.877 276.443 167.421L275.53 160.925C274.929 156.647 276.568 154.801 280.371 154.266L285.322 153.57L289.904 186.17L286.893 186.593L284.817 171.818L283.034 172.069C282.757 172.108 282.559 172.136 282.435 172.113L282.259 187.244ZM278.58 160.496L279.443 166.636C279.722 168.616 280.472 169.642 282.452 169.363L284.433 169.085L282.74 157.043L280.799 157.316C278.898 157.583 278.291 158.436 278.58 160.496ZM308.036 183.622L297.856 185.052L297.016 179.071C296.481 175.268 296.536 173.645 298.694 169.747C301.563 164.577 302.114 163.328 301.68 160.239L301.19 156.753C300.945 155.01 300.11 154.239 298.684 154.439C297.06 154.667 296.752 155.64 296.997 157.383L297.788 163.007L294.817 163.425L294.026 157.8C293.464 153.799 294.77 151.879 298.255 151.389C301.741 150.899 303.65 152.408 304.206 156.369L304.718 160.014C305.219 163.579 304.286 166.133 302.378 169.512C299.669 174.093 299.564 175.36 300.026 178.648L300.449 181.658L307.619 180.651L308.036 183.622ZM309.509 178.123L306.386 155.901C305.874 152.257 307.231 150.128 310.875 149.616C314.519 149.103 316.41 150.776 316.923 154.421L320.046 176.642C320.558 180.286 319.201 182.416 315.557 182.928C311.913 183.44 310.021 181.767 309.509 178.123ZM317.086 177.139L313.946 154.799C313.707 153.095 312.837 152.369 311.293 152.586C309.787 152.798 309.152 153.735 309.391 155.439L312.531 177.779C312.77 179.482 313.64 180.208 315.145 179.997C316.69 179.78 317.325 178.842 317.086 177.139ZM333.257 180.077L323.077 181.508L322.237 175.526C321.702 171.724 321.757 170.1 323.915 166.202C326.784 161.033 327.335 159.784 326.901 156.694L326.411 153.208C326.166 151.465 325.331 150.694 323.905 150.895C322.281 151.123 321.973 152.095 322.218 153.838L323.009 159.463L320.038 159.88L319.247 154.255C318.685 150.255 319.99 148.334 323.476 147.845C326.962 147.355 328.871 148.864 329.427 152.825L329.939 156.469C330.44 160.034 329.507 162.589 327.598 165.967C324.89 170.549 324.785 171.816 325.247 175.103L325.67 178.114L332.84 177.106L333.257 180.077ZM341.781 173.588L340.734 166.141C340.489 164.398 339.976 163.622 338.194 163.872L336.649 164.089L336.254 161.277L337.957 161.038C339.581 160.809 339.815 159.888 339.576 158.185L338.629 151.451C338.379 149.668 337.792 148.943 336.168 149.171C334.584 149.394 334.22 150.253 334.47 152.035L335.277 157.779L332.307 158.196L331.499 152.453C330.943 148.492 332.254 146.611 335.739 146.121C339.225 145.631 340.964 147.083 341.526 151.084L342.512 158.095C342.807 160.194 342.154 161.296 340.692 162.107C342.208 162.258 343.292 163.075 343.626 165.452L344.712 173.176C345.18 176.503 343.907 178.944 340.421 179.434C336.935 179.924 335.005 177.973 334.538 174.646L333.636 168.229L336.686 167.8L337.588 174.217C337.81 175.802 338.538 176.669 340.004 176.463C341.548 176.246 342.009 175.212 341.781 173.588ZM353.881 161.587C352.019 161.848 350.744 160.533 350.482 158.671C350.22 156.81 351.095 155.273 352.957 155.011C354.739 154.761 356.043 155.991 356.305 157.853C356.566 159.715 355.663 161.336 353.881 161.587ZM376.814 173.956L366.634 175.386L365.793 169.405C365.259 165.602 365.313 163.979 367.472 160.081C370.34 154.911 370.892 153.662 370.457 150.573L369.968 147.087C369.723 145.344 368.887 144.573 367.461 144.773C365.837 145.001 365.529 145.974 365.774 147.717L366.565 153.341L363.594 153.759L362.804 148.134C362.241 144.133 363.547 142.213 367.032 141.723C370.518 141.233 372.427 142.742 372.984 146.703L373.496 150.348C373.997 153.913 373.063 156.467 371.155 159.846C368.446 164.427 368.341 165.694 368.803 168.982L369.227 171.992L376.396 170.985L376.814 173.956ZM378.292 168.497L375.163 146.235C374.673 142.75 376.008 140.462 379.494 139.972C382.98 139.482 384.735 141.336 385.224 144.821L386.015 150.446L383.123 150.853L382.333 145.228C382.11 143.643 381.348 142.821 379.922 143.022C378.536 143.217 377.951 144.228 378.174 145.812L379.382 154.408C379.763 153.385 380.614 152.538 382.317 152.299C385.169 151.898 386.608 153.231 387.126 156.914L388.546 167.015C389.035 170.501 387.661 172.795 384.176 173.284C380.69 173.774 378.782 171.982 378.292 168.497ZM385.535 167.438L384.21 158.011C383.926 155.991 383.199 155.124 381.654 155.341C380.347 155.524 379.762 156.253 379.827 157.577L381.197 167.321C381.486 169.381 382.134 170.542 383.758 170.314C385.303 170.096 385.763 169.062 385.535 167.438ZM407.499 169.643L404.488 170.066L402.367 154.974L398.169 155.564L400.29 170.656L397.279 171.079L392.698 138.48L395.708 138.057L397.751 152.594L401.95 152.004L399.907 137.466L402.917 137.043L407.499 169.643ZM409.464 164.075L406.341 141.854C405.824 138.17 407.265 136.069 410.672 135.59C414.118 135.106 416.083 136.728 416.601 140.412L419.724 162.633C420.241 166.317 418.8 168.418 415.354 168.903C411.947 169.381 409.982 167.759 409.464 164.075ZM416.713 163.057L413.59 140.835C413.356 139.171 412.526 138.44 411.1 138.64C409.714 138.835 409.118 139.767 409.352 141.431L412.475 163.652C412.714 165.355 413.55 166.127 414.936 165.932C416.362 165.731 416.953 164.76 416.713 163.057ZM425.693 167.086L422.405 167.548C422.553 162.276 422.78 156.993 422.928 151.721C421.187 151.118 420.223 149.718 419.877 147.262L418.964 140.766C418.363 136.488 420.002 134.642 423.805 134.108L428.756 133.412L433.338 166.012L430.327 166.435L428.251 151.66L426.468 151.91C426.191 151.949 425.993 151.977 425.869 151.954L425.693 167.086ZM422.014 140.338L422.877 146.477C423.156 148.458 423.906 149.483 425.886 149.205L427.867 148.927L426.174 136.885L424.233 137.158C422.332 137.425 421.725 138.278 422.014 140.338ZM431.728 132.994L440.561 131.753L440.99 134.803L435.167 135.621L436.776 147.069L438.915 146.768C442.718 146.234 444.666 147.737 445.245 151.857L446.136 158.194C446.715 162.314 445.222 164.341 441.42 164.876L436.31 165.594L431.728 132.994ZM443.17 158.652L442.257 152.155C441.99 150.254 441.03 149.46 439.327 149.699L437.188 150L438.897 162.16L440.996 161.865C442.739 161.62 443.443 160.592 443.17 158.652ZM453.77 141.449L453.007 136.022C452.735 134.081 451.894 133.27 449.992 133.538L447.932 133.827L449.497 144.958L451.596 144.663C453.339 144.418 454.054 143.469 453.77 141.449ZM452.085 163.377L449.075 163.8L444.493 131.2L449.564 130.488C453.366 129.953 455.399 131.485 455.978 135.605L456.73 140.952C457.309 145.072 455.811 147.06 452.008 147.594L449.909 147.889L452.085 163.377ZM464.375 161.65L461.088 162.112C461.235 156.84 461.462 151.557 461.61 146.285C459.869 145.681 458.905 144.282 458.56 141.826L457.647 135.33C457.046 131.052 458.685 129.206 462.487 128.671L467.439 127.976L472.02 160.575L469.01 160.998L466.933 146.223L465.151 146.474C464.873 146.513 464.675 146.541 464.551 146.518L464.375 161.65ZM460.697 134.901L461.56 141.041C461.838 143.021 462.588 144.047 464.569 143.769L466.549 143.49L464.857 131.449L462.916 131.721C461.015 131.989 460.407 132.841 460.697 134.901ZM480.914 143.733C479.052 143.995 477.777 142.68 477.515 140.818C477.253 138.956 478.128 137.42 479.99 137.158C481.772 136.908 483.076 138.138 483.338 140C483.599 141.861 482.696 143.483 480.914 143.733Z" fill="#F0EFEC"/>
<path d="M507.06 155.65L504.049 156.074L499.896 126.524L495.697 127.114L499.85 156.664L496.84 157.087L492.258 124.487L502.478 123.051L507.06 155.65ZM514.687 132.887L513.924 127.461C513.652 125.52 512.811 124.709 510.909 124.976L508.849 125.266L510.414 136.396L512.513 136.101C514.256 135.856 514.971 134.908 514.687 132.887ZM513.002 154.815L509.992 155.238L505.41 122.639L510.481 121.926C514.283 121.392 516.316 122.924 516.895 127.043L517.647 132.391C518.226 136.51 516.728 138.498 512.925 139.032L510.826 139.327L513.002 154.815ZM531.59 152.203L522.757 153.444L518.176 120.845L526.811 119.631L527.239 122.681L521.615 123.472L523.224 134.919L527.185 134.362L527.608 137.373L523.647 137.93L525.35 150.05L531.173 149.232L531.59 152.203ZM548.91 149.769L546.098 150.164L544.712 140.301C544.038 135.508 543.443 130.987 542.809 126.188L542.652 150.648L539.998 151.021L533.144 127.547C533.857 132.334 534.531 136.844 535.205 141.637L536.591 151.5L533.818 151.89L529.237 119.29L533.277 118.722L540.303 143.708L540.169 117.754L544.329 117.169L548.91 149.769ZM554.661 148.961L551.769 149.367L547.187 116.767L549.92 116.383L553.105 139.041L553.882 115.827L557.407 115.331L561.988 147.931L559.216 148.32L555.97 125.227L554.661 148.961ZM567.456 147.162L564.168 147.624C564.316 142.353 564.543 137.07 564.691 131.798C562.95 131.194 561.986 129.795 561.641 127.339L560.728 120.843C560.126 116.565 561.765 114.719 565.568 114.184L570.519 113.488L575.101 146.088L572.09 146.511L570.014 131.736L568.232 131.987C567.954 132.026 567.756 132.053 567.632 132.031L567.456 147.162ZM563.778 120.414L564.64 126.554C564.919 128.534 565.669 129.56 567.649 129.281L569.63 129.003L567.938 116.961L565.997 117.234C564.095 117.501 563.488 118.354 563.778 120.414ZM593.234 143.54L583.054 144.97L582.213 138.989C581.679 135.186 581.733 133.563 583.892 129.665C586.76 124.495 587.312 123.246 586.877 120.157L586.388 116.671C586.143 114.928 585.307 114.157 583.881 114.357C582.257 114.585 581.949 115.558 582.194 117.301L582.985 122.925L580.014 123.343L579.224 117.718C578.661 113.717 579.967 111.797 583.453 111.307C586.938 110.817 588.847 112.326 589.404 116.287L589.916 119.932C590.417 123.496 589.483 126.051 587.575 129.43C584.866 134.011 584.761 135.278 585.223 138.566L585.647 141.576L592.816 140.569L593.234 143.54ZM594.706 138.041L591.583 115.819C591.071 112.175 592.428 110.046 596.072 109.533C599.716 109.021 601.608 110.694 602.12 114.339L605.243 136.56C605.755 140.204 604.398 142.334 600.754 142.846C597.11 143.358 595.219 141.685 594.706 138.041ZM602.283 137.057L599.143 114.717C598.904 113.013 598.035 112.287 596.49 112.504C594.985 112.716 594.349 113.653 594.588 115.357L597.728 137.697C597.967 139.4 598.837 140.126 600.342 139.915C601.887 139.698 602.523 138.76 602.283 137.057ZM618.455 139.995L608.275 141.426L607.434 135.444C606.9 131.642 606.954 130.018 609.113 126.12C611.981 120.951 612.533 119.702 612.098 116.612L611.608 113.126C611.364 111.383 610.528 110.612 609.102 110.813C607.478 111.041 607.17 112.013 607.415 113.756L608.206 119.381L605.235 119.798L604.445 114.173C603.882 110.173 605.188 108.252 608.673 107.763C612.159 107.273 614.068 108.782 614.624 112.743L615.137 116.387C615.638 119.952 614.704 122.507 612.796 125.885C610.087 130.467 609.982 131.734 610.444 135.021L610.867 138.032L618.037 137.024L618.455 139.995ZM626.978 133.506L625.931 126.059C625.687 124.316 625.174 123.54 623.391 123.79L621.846 124.007L621.451 121.195L623.154 120.956C624.778 120.727 625.012 119.806 624.773 118.103L623.827 111.369C623.576 109.586 622.989 108.861 621.365 109.089C619.781 109.312 619.417 110.171 619.667 111.953L620.475 117.697L617.504 118.114L616.697 112.371C616.14 108.41 617.451 106.529 620.937 106.039C624.422 105.549 626.161 107.001 626.724 111.002L627.709 118.013C628.004 120.112 627.351 121.214 625.89 122.025C627.405 122.176 628.49 122.993 628.824 125.369L629.909 133.094C630.377 136.421 629.104 138.862 625.618 139.352C622.133 139.842 620.202 137.891 619.735 134.564L618.833 128.147L621.883 127.718L622.785 134.135C623.008 135.72 623.735 136.587 625.201 136.381C626.746 136.164 627.206 135.13 626.978 133.506ZM639.078 121.505C637.216 121.766 635.941 120.451 635.679 118.589C635.418 116.728 636.292 115.191 638.154 114.929C639.937 114.679 641.24 115.909 641.502 117.771C641.764 119.633 640.861 121.254 639.078 121.505ZM662.011 133.874L651.831 135.304L650.99 129.323C650.456 125.52 650.51 123.897 652.669 119.999C655.537 114.829 656.089 113.58 655.655 110.491L655.165 107.005C654.92 105.262 654.084 104.491 652.658 104.691C651.034 104.919 650.727 105.892 650.972 107.635L651.762 113.259L648.791 113.677L648.001 108.052C647.439 104.051 648.744 102.131 652.23 101.641C655.716 101.151 657.624 102.66 658.181 106.621L658.693 110.266C659.194 113.83 658.26 116.385 656.352 119.764C653.643 124.345 653.539 125.612 654.001 128.9L654.424 131.91L661.593 130.903L662.011 133.874ZM663.489 128.415L660.361 106.153C659.871 102.668 661.205 100.38 664.691 99.8898C668.177 99.3999 669.932 101.254 670.422 104.739L671.212 110.364L668.321 110.771L667.53 105.146C667.307 103.561 666.546 102.739 665.12 102.94C663.733 103.135 663.148 104.146 663.371 105.73L664.579 114.326C664.96 113.303 665.811 112.456 667.514 112.217C670.366 111.816 671.806 113.149 672.323 116.832L673.743 126.933C674.233 130.419 672.859 132.712 669.373 133.202C665.887 133.692 663.979 131.9 663.489 128.415ZM670.732 127.356L669.408 117.929C669.124 115.909 668.396 115.042 666.851 115.259C665.544 115.442 664.96 116.171 665.024 117.495L666.394 127.239C666.683 129.299 667.331 130.46 668.955 130.232C670.5 130.014 670.961 128.98 670.732 127.356ZM692.696 129.561L689.686 129.984L687.565 114.892L683.366 115.482L685.487 130.574L682.477 130.997L677.895 98.3976L680.905 97.9745L682.948 112.512L687.147 111.922L685.104 97.3844L688.115 96.9613L692.696 129.561ZM694.662 123.993L691.539 101.772C691.021 98.0878 692.462 95.9867 695.869 95.508C699.315 95.0237 701.28 96.646 701.798 100.33L704.921 122.551C705.439 126.235 703.997 128.336 700.551 128.821C697.144 129.299 695.179 127.677 694.662 123.993ZM701.91 122.974L698.787 100.753C698.554 99.0892 697.724 98.3576 696.298 98.558C694.911 98.7528 694.315 99.6849 694.549 101.349L697.672 123.57C697.911 125.273 698.747 126.045 700.133 125.85C701.559 125.649 702.15 124.678 701.91 122.974ZM710.89 127.004L707.602 127.466C707.75 122.194 707.977 116.911 708.125 111.639C706.384 111.036 705.42 109.636 705.075 107.18L704.162 100.684C703.56 96.4063 705.199 94.5602 709.002 94.0258L713.953 93.3299L718.535 125.93L715.525 126.353L713.448 111.578L711.666 111.828C711.388 111.867 711.19 111.895 711.066 111.872L710.89 127.004ZM707.212 100.256L708.075 106.395C708.353 108.376 709.103 109.401 711.083 109.123L713.064 108.845L711.372 96.803L709.431 97.0758C707.529 97.343 706.922 98.1958 707.212 100.256ZM716.925 92.9122L725.759 91.6708L726.187 94.7208L720.365 95.5392L721.973 106.987L724.112 106.686C727.915 106.152 729.863 107.655 730.442 111.775L731.333 118.112C731.912 122.232 730.419 124.259 726.617 124.794L721.507 125.512L716.925 92.9122ZM728.368 118.569L727.455 112.073C727.187 110.172 726.228 109.378 724.524 109.617L722.385 109.918L724.094 122.078L726.194 121.783C727.937 121.538 728.64 120.51 728.368 118.569ZM738.967 101.367L738.205 95.9402C737.932 93.9993 737.091 93.1884 735.189 93.4557L733.13 93.7451L734.694 104.876L736.793 104.581C738.536 104.336 739.251 103.387 738.967 101.367ZM737.283 123.295L734.272 123.718L729.691 91.1182L734.761 90.4056C738.563 89.8712 740.596 91.4032 741.175 95.5227L741.927 100.87C742.506 104.99 741.008 106.977 737.205 107.512L735.106 107.807L737.283 123.295ZM749.572 121.568L746.285 122.03C746.433 116.758 746.66 111.475 746.807 106.203C745.066 105.599 744.102 104.2 743.757 101.744L742.844 95.2478C742.243 90.9698 743.882 89.1238 747.684 88.5893L752.636 87.8935L757.217 120.493L754.207 120.916L752.13 106.141L750.348 106.392C750.071 106.431 749.873 106.459 749.748 106.436L749.572 121.568ZM745.894 94.8191L746.757 100.959C747.035 102.939 747.785 103.965 749.766 103.687L751.746 103.408L750.054 91.3666L748.113 91.6394C746.212 91.9066 745.605 92.7594 745.894 94.8191ZM766.111 103.651C764.249 103.913 762.974 102.598 762.712 100.736C762.45 98.8744 763.325 97.3377 765.187 97.0761C766.969 96.8256 768.273 98.0561 768.535 99.9178C768.797 101.779 767.893 103.401 766.111 103.651Z" fill="#F0EFEC"/>
<path d="M792.257 115.569L789.246 115.992L785.093 86.4424L780.895 87.0325L785.048 116.582L782.037 117.005L777.456 84.4056L787.675 82.9693L792.257 115.569ZM799.884 92.8059L799.122 87.3792C798.849 85.4383 798.008 84.6274 796.107 84.8946L794.047 85.1841L795.611 96.3147L797.71 96.0197C799.453 95.7747 800.168 94.826 799.884 92.8059ZM798.2 114.734L795.189 115.157L790.608 82.5572L795.678 81.8446C799.48 81.3102 801.513 82.8422 802.092 86.9617L802.844 92.3091C803.423 96.4286 801.925 98.4165 798.122 98.9509L796.023 99.2459L798.2 114.734ZM816.788 112.121L807.954 113.363L803.373 80.7632L812.008 79.5496L812.437 82.5996L806.812 83.3901L808.421 94.8376L812.382 94.2809L812.805 97.2913L808.844 97.848L810.547 109.969L816.37 109.151L816.788 112.121ZM834.107 109.687L831.295 110.082L829.909 100.219C829.235 95.4265 828.64 90.9053 828.006 86.1069L827.849 110.567L825.195 110.94L818.341 87.4652C819.054 92.2525 819.729 96.7626 820.402 101.555L821.788 111.419L819.016 111.808L814.434 79.2086L818.474 78.6408L825.5 103.626L825.367 77.6721L829.526 77.0876L834.107 109.687ZM839.858 108.879L836.966 109.285L832.385 76.6858L835.118 76.3017L838.302 98.959L839.079 75.745L842.604 75.2496L847.186 107.849L844.413 108.239L841.167 85.1458L839.858 108.879ZM852.653 107.081L849.366 107.543C849.513 102.271 849.74 96.988 849.888 91.7161C848.147 91.1125 847.183 89.7131 846.838 87.2572L845.925 80.7611C845.324 76.4831 846.963 74.637 850.765 74.1026L855.717 73.4067L860.298 106.006L857.288 106.429L855.211 91.6546L853.429 91.9052C853.152 91.9441 852.953 91.972 852.829 91.949L852.653 107.081ZM848.975 80.3324L849.838 86.4721C850.116 88.4526 850.866 89.4782 852.847 89.1998L854.827 88.9215L853.135 76.8798L851.194 77.1526C849.293 77.4198 848.685 78.2726 848.975 80.3324ZM878.431 103.458L868.251 104.889L867.41 98.9074C866.876 95.1048 866.93 93.4814 869.089 89.5831C871.957 84.4136 872.509 83.1646 872.075 80.075L871.585 76.5893C871.34 74.8464 870.504 74.0752 869.078 74.2756C867.454 74.5038 867.147 75.4761 867.392 77.219L868.182 82.8437L865.211 83.2612L864.421 77.6365C863.859 73.6358 865.164 71.7154 868.65 71.2255C872.136 70.7357 874.044 72.2447 874.601 76.2058L875.113 79.85C875.614 83.4149 874.68 85.9697 872.772 89.3482C870.063 93.9298 869.959 95.1967 870.421 98.4844L870.844 101.495L878.013 100.487L878.431 103.458ZM879.904 97.9595L876.781 75.7379C876.269 72.0937 877.625 69.9641 881.27 69.452C884.914 68.9398 886.805 70.6129 887.317 74.2571L890.44 96.4787C890.952 100.123 889.596 102.252 885.951 102.765C882.307 103.277 880.416 101.604 879.904 97.9595ZM887.481 96.9754L884.341 74.635C884.101 72.9317 883.232 72.2056 881.687 72.4228C880.182 72.6343 879.546 73.5719 879.786 75.2752L882.925 97.6156C883.165 99.3189 884.034 100.045 885.539 99.8334C887.084 99.6163 887.72 98.6787 887.481 96.9754ZM903.652 99.9134L893.472 101.344L892.631 95.3629C892.097 91.5603 892.151 89.9369 894.31 86.0385C897.178 80.869 897.73 79.6201 897.296 76.5304L896.806 73.0447C896.561 71.3018 895.725 70.5306 894.299 70.731C892.675 70.9592 892.368 71.9315 892.613 73.6744L893.403 79.2991L890.432 79.7166L889.642 74.0919C889.08 70.0912 890.385 68.1709 893.871 67.681C897.356 67.1911 899.265 68.7001 899.822 72.6612L900.334 76.3054C900.835 79.8704 899.901 82.4252 897.993 85.8036C895.284 90.3852 895.18 91.6521 895.642 94.9398L896.065 97.9502L903.234 96.9426L903.652 99.9134ZM912.175 93.424L911.129 85.9772C910.884 84.2343 910.371 83.4582 908.588 83.7087L907.043 83.9258L906.648 81.1134L908.351 80.874C909.976 80.6458 910.21 79.7243 909.97 78.021L909.024 71.2872C908.773 69.5047 908.187 68.7793 906.563 69.0075C904.978 69.2302 904.614 70.0892 904.865 71.8717L905.672 77.6153L902.701 78.0328L901.894 72.2892C901.337 68.3281 902.648 66.4474 906.134 65.9575C909.62 65.4676 911.359 66.9197 911.921 70.9204L912.906 77.9315C913.201 80.0309 912.548 81.1325 911.087 81.9437C912.603 82.0943 913.687 82.9113 914.021 85.288L915.107 93.012C915.574 96.3393 914.301 98.7802 910.816 99.2701C907.33 99.76 905.4 97.8097 904.932 94.4824L904.03 88.0654L907.08 87.6368L907.982 94.0537C908.205 95.6381 908.933 96.5053 910.398 96.2993C911.943 96.0822 912.404 95.048 912.175 93.424ZM924.275 81.4232C922.414 81.6848 921.138 80.3696 920.877 78.5079C920.615 76.6461 921.49 75.1095 923.351 74.8478C925.134 74.5973 926.438 75.8278 926.699 77.6895C926.961 79.5512 926.058 81.1727 924.275 81.4232ZM947.208 93.792L937.028 95.2227L936.188 89.2414C935.653 85.4388 935.708 83.8154 937.866 79.9171C940.735 74.7476 941.286 73.4986 940.852 70.409L940.362 66.9233C940.117 65.1804 939.282 64.4092 937.856 64.6096C936.232 64.8378 935.924 65.8101 936.169 67.553L936.959 73.1777L933.989 73.5952L933.198 67.9705C932.636 63.9698 933.941 62.0494 937.427 61.5595C940.913 61.0696 942.821 62.5787 943.378 66.5398L943.89 70.184C944.391 73.7489 943.458 76.3037 941.549 79.6822C938.841 84.2638 938.736 85.5307 939.198 88.8184L939.621 91.8288L946.791 90.8212L947.208 93.792ZM948.687 88.3331L945.558 66.0719C945.068 62.5861 946.403 60.2981 949.888 59.8082C953.374 59.3183 955.129 61.1721 955.619 64.6579L956.41 70.2826L953.518 70.689L952.727 65.0642C952.505 63.4798 951.743 62.6578 950.317 62.8582C948.931 63.0531 948.346 64.0643 948.568 65.6488L949.776 74.2443C950.158 73.2213 951.008 72.3747 952.711 72.1353C955.563 71.7345 957.003 73.0671 957.521 76.7509L958.94 86.8516C959.43 90.3374 958.056 92.6309 954.57 93.1208C951.084 93.6107 949.176 91.8188 948.687 88.3331ZM955.93 87.2747L954.605 77.8474C954.321 75.8272 953.593 74.9601 952.048 75.1772C950.741 75.3609 950.157 76.0893 950.222 77.4131L951.591 87.1574C951.881 89.2171 952.529 90.3783 954.153 90.15C955.697 89.9329 956.158 88.8988 955.93 87.2747ZM977.893 89.4794L974.883 89.9025L972.762 74.8108L968.563 75.4009L970.684 90.4926L967.674 90.9157L963.092 58.3161L966.103 57.893L968.146 72.4301L972.344 71.84L970.301 57.3029L973.312 56.8798L977.893 89.4794ZM979.859 83.9117L976.736 61.6901C976.218 58.0063 977.66 55.9052 981.066 55.4264C984.512 54.9421 986.477 56.5644 986.995 60.2482L990.118 82.4699C990.636 86.1537 989.194 88.2547 985.748 88.7391C982.342 89.2178 980.377 87.5955 979.859 83.9117ZM987.108 82.8929L983.985 60.6713C983.751 59.0077 982.921 58.2761 981.495 58.4765C980.109 58.6713 979.512 59.6033 979.746 61.267L982.869 83.4886C983.109 85.1919 983.944 85.9631 985.331 85.7683C986.757 85.5678 987.347 84.5962 987.108 82.8929ZM996.087 86.9224L992.8 87.3845C992.947 82.1126 993.174 76.8296 993.322 71.5577C991.581 70.9542 990.617 69.5547 990.272 67.0989L989.359 60.6027C988.758 56.3247 990.397 54.4787 994.199 53.9442L999.151 53.2484L1003.73 85.848L1000.72 86.2711L998.645 71.4963L996.863 71.7468C996.586 71.7858 996.388 71.8136 996.263 71.7907L996.087 86.9224ZM992.409 60.174L993.272 66.3137C993.55 68.2942 994.3 69.3198 996.281 69.0415L998.261 68.7631L996.569 56.7215L994.628 56.9943C992.727 57.2615 992.119 58.1143 992.409 60.174ZM1002.12 52.8307L1010.96 51.5893L1011.38 54.6393L1005.56 55.4576L1007.17 66.9051L1009.31 66.6045C1013.11 66.0701 1015.06 67.5736 1015.64 71.6931L1016.53 78.0308C1017.11 82.1503 1015.62 84.1778 1011.81 84.7122L1006.7 85.4303L1002.12 52.8307ZM1013.56 78.4879L1012.65 71.9918C1012.38 70.0905 1011.42 69.2963 1009.72 69.5357L1007.58 69.8363L1009.29 81.9968L1011.39 81.7018C1013.13 81.4568 1013.84 80.4289 1013.56 78.4879ZM1024.16 61.2853L1023.4 55.8587C1023.13 53.9177 1022.29 53.1069 1020.39 53.3741L1018.33 53.6636L1019.89 64.7942L1021.99 64.4992C1023.73 64.2542 1024.45 63.3055 1024.16 61.2853ZM1022.48 83.2132L1019.47 83.6363L1014.89 51.0367L1019.96 50.3241C1023.76 49.7897 1025.79 51.3216 1026.37 55.4411L1027.12 60.7886C1027.7 64.9081 1026.21 66.8959 1022.4 67.4304L1020.3 67.7254L1022.48 83.2132ZM1034.77 81.486L1031.48 81.948C1031.63 76.6762 1031.86 71.3932 1032 66.1213C1030.26 65.5177 1029.3 64.1183 1028.95 61.6624L1028.04 55.1663C1027.44 50.8883 1029.08 49.0422 1032.88 48.5078L1037.83 47.8119L1042.41 80.4116L1039.4 80.8346L1037.33 66.0598L1035.55 66.3103C1035.27 66.3493 1035.07 66.3772 1034.95 66.3542L1034.77 81.486ZM1031.09 54.7376L1031.95 60.8773C1032.23 62.8578 1032.98 63.8834 1034.96 63.605L1036.94 63.3267L1035.25 51.285L1033.31 51.5578C1031.41 51.825 1030.8 52.6778 1031.09 54.7376ZM1051.31 63.5699C1049.45 63.8315 1048.17 62.5163 1047.91 60.6546C1047.65 58.7929 1048.52 57.2562 1050.38 56.9945C1052.17 56.744 1053.47 57.9745 1053.73 59.8362C1053.99 61.6979 1053.09 63.3194 1051.31 63.5699Z" fill="#F0EFEC"/>
<path d="M1077.45 75.4869L1074.44 75.91L1070.29 46.3604L1066.09 46.9505L1070.24 76.5001L1067.23 76.9232L1062.65 44.3235L1072.87 42.8873L1077.45 75.4869ZM1085.08 52.7238L1084.32 47.2972C1084.05 45.3562 1083.21 44.5454 1081.3 44.8126L1079.24 45.1021L1080.81 56.2327L1082.91 55.9377C1084.65 55.6927 1085.37 54.744 1085.08 52.7238ZM1083.4 74.6517L1080.39 75.0748L1075.8 42.4752L1080.88 41.7626C1084.68 41.2282 1086.71 42.7601 1087.29 46.8796L1088.04 52.2271C1088.62 56.3466 1087.12 58.3344 1083.32 58.8689L1081.22 59.1639L1083.4 74.6517ZM1101.98 72.0393L1093.15 73.2808L1088.57 40.6811L1097.21 39.4675L1097.63 42.5176L1092.01 43.3081L1093.62 54.7556L1097.58 54.1989L1098 57.2093L1094.04 57.766L1095.74 69.8869L1101.57 69.0685L1101.98 72.0393ZM1119.3 69.6052L1116.49 70.0004L1115.11 60.1374C1114.43 55.3445 1113.84 50.8233 1113.2 46.0248L1113.05 70.4848L1110.39 70.8577L1103.54 47.3831C1104.25 52.1705 1104.93 56.6805 1105.6 61.4734L1106.99 71.3365L1104.21 71.7262L1099.63 39.1266L1103.67 38.5587L1110.7 63.5441L1110.56 37.5901L1114.72 37.0056L1119.3 69.6052ZM1125.06 68.797L1122.16 69.2034L1117.58 36.6038L1120.32 36.2197L1123.5 58.877L1124.28 35.663L1127.8 35.1675L1132.38 67.7671L1129.61 68.1568L1126.36 45.0638L1125.06 68.797ZM1137.85 66.9987L1134.56 67.4608C1134.71 62.1889 1134.94 56.9059 1135.09 51.6341C1133.34 51.0305 1132.38 49.631 1132.04 47.1752L1131.12 40.679C1130.52 36.4011 1132.16 34.555 1135.96 34.0206L1140.91 33.3247L1145.5 65.9243L1142.49 66.3474L1140.41 51.5726L1138.63 51.8231C1138.35 51.8621 1138.15 51.8899 1138.03 51.867L1137.85 66.9987ZM1134.17 40.2504L1135.03 46.39C1135.31 48.3706 1136.06 49.3962 1138.04 49.1178L1140.02 48.8395L1138.33 36.7978L1136.39 37.0706C1134.49 37.3378 1133.88 38.1906 1134.17 40.2504ZM1163.63 63.3759L1153.45 64.8066L1152.61 58.8254C1152.07 55.0228 1152.13 53.3994 1154.29 49.501C1157.15 44.3315 1157.71 43.0826 1157.27 39.993L1156.78 36.5072C1156.54 34.7644 1155.7 33.9931 1154.28 34.1935C1152.65 34.4218 1152.34 35.3941 1152.59 37.1369L1153.38 42.7617L1150.41 43.1792L1149.62 37.5545C1149.06 33.5538 1150.36 31.6334 1153.85 31.1435C1157.33 30.6536 1159.24 32.1627 1159.8 36.1238L1160.31 39.7679C1160.81 43.3329 1159.88 45.8877 1157.97 49.2662C1155.26 53.8477 1155.16 55.1146 1155.62 58.4023L1156.04 61.4127L1163.21 60.4051L1163.63 63.3759ZM1165.1 57.8774L1161.98 35.6558C1161.47 32.0116 1162.82 29.8821 1166.47 29.3699C1170.11 28.8578 1172 30.5308 1172.51 34.175L1175.64 56.3966C1176.15 60.0408 1174.79 62.1704 1171.15 62.6825C1167.5 63.1947 1165.61 61.5216 1165.1 57.8774ZM1172.68 56.8934L1169.54 34.5529C1169.3 32.8497 1168.43 32.1236 1166.88 32.3407C1165.38 32.5523 1164.74 33.4899 1164.98 35.1931L1168.12 57.5336C1168.36 59.2368 1169.23 59.9629 1170.74 59.7513C1172.28 59.5342 1172.92 58.5966 1172.68 56.8934ZM1188.85 59.8314L1178.67 61.2621L1177.83 55.2808C1177.29 51.4782 1177.35 49.8548 1179.51 45.9565C1182.38 40.787 1182.93 39.538 1182.49 36.4484L1182 32.9627C1181.76 31.2198 1180.92 30.4486 1179.5 30.649C1177.87 30.8772 1177.56 31.8495 1177.81 33.5924L1178.6 39.2171L1175.63 39.6346L1174.84 34.0099C1174.28 30.0092 1175.58 28.0888 1179.07 27.5989C1182.55 27.1091 1184.46 28.6181 1185.02 32.5792L1185.53 36.2234C1186.03 39.7883 1185.1 42.3431 1183.19 45.7216C1180.48 50.3032 1180.38 51.5701 1180.84 54.8578L1181.26 57.8682L1188.43 56.8606L1188.85 59.8314ZM1197.37 53.342L1196.33 45.8951C1196.08 44.1523 1195.57 43.3761 1193.79 43.6266L1192.24 43.8437L1191.85 41.0314L1193.55 40.792C1195.17 40.5638 1195.41 39.6422 1195.17 37.939L1194.22 31.2051C1193.97 29.4227 1193.38 28.6972 1191.76 28.9255C1190.18 29.1482 1189.81 30.0072 1190.06 31.7897L1190.87 37.5332L1187.9 37.9507L1187.09 32.2072C1186.53 28.2461 1187.85 26.3654 1191.33 25.8755C1194.82 25.3856 1196.56 26.8377 1197.12 30.8384L1198.1 37.8495C1198.4 39.9488 1197.75 41.0504 1196.28 41.8617C1197.8 42.0122 1198.88 42.8293 1199.22 45.2059L1200.3 52.93C1200.77 56.2573 1199.5 58.6982 1196.01 59.1881C1192.53 59.678 1190.6 57.7276 1190.13 54.4003L1189.23 47.9834L1192.28 47.5547L1193.18 53.9717C1193.4 55.5561 1194.13 56.4233 1195.6 56.2173C1197.14 56.0002 1197.6 54.966 1197.37 53.342ZM1209.47 41.3412C1207.61 41.6028 1206.34 40.2875 1206.07 38.4258C1205.81 36.5641 1206.69 35.0274 1208.55 34.7658C1210.33 34.5153 1211.63 35.7458 1211.9 37.6075C1212.16 39.4692 1211.26 41.0907 1209.47 41.3412ZM1232.41 53.7099L1222.23 55.1406L1221.38 49.1594C1220.85 45.3568 1220.9 43.7334 1223.06 39.835C1225.93 34.6655 1226.48 33.4166 1226.05 30.327L1225.56 26.8412C1225.31 25.0984 1224.48 24.3271 1223.05 24.5275C1221.43 24.7558 1221.12 25.7281 1221.37 27.4709L1222.16 33.0957L1219.19 33.5132L1218.4 27.8884C1217.83 23.8878 1219.14 21.9674 1222.62 21.4775C1226.11 20.9876 1228.02 22.4967 1228.58 26.4577L1229.09 30.1019C1229.59 33.6669 1228.65 36.2217 1226.75 39.6002C1224.04 44.1817 1223.93 45.4486 1224.4 48.7363L1224.82 51.7467L1231.99 50.7391L1232.41 53.7099ZM1233.88 48.251L1230.76 25.9898C1230.27 22.5041 1231.6 20.2161 1235.09 19.7262C1238.57 19.2363 1240.33 21.0901 1240.82 24.5758L1241.61 30.2005L1238.72 30.6069L1237.92 24.9822C1237.7 23.3978 1236.94 22.5758 1235.51 22.7762C1234.13 22.9711 1233.54 23.9823 1233.77 25.5667L1234.97 34.1623C1235.35 33.1392 1236.21 32.2926 1237.91 32.0533C1240.76 31.6524 1242.2 32.9851 1242.72 36.6689L1244.14 46.7696C1244.63 50.2553 1243.25 52.5489 1239.77 53.0388C1236.28 53.5287 1234.37 51.7368 1233.88 48.251ZM1241.13 47.1927L1239.8 37.7653C1239.52 35.7452 1238.79 34.878 1237.25 35.0951C1235.94 35.2789 1235.35 36.0073 1235.42 37.3311L1236.79 47.0754C1237.08 49.1351 1237.73 50.2962 1239.35 50.068C1240.89 49.8509 1241.36 48.8167 1241.13 47.1927ZM1263.09 49.3974L1260.08 49.8205L1257.96 34.7288L1253.76 35.3189L1255.88 50.4106L1252.87 50.8337L1248.29 18.234L1251.3 17.8109L1253.34 32.3481L1257.54 31.758L1255.5 17.2208L1258.51 16.7978L1263.09 49.3974ZM1265.06 43.8297L1261.93 21.608C1261.42 17.9242 1262.86 15.8232 1266.26 15.3444C1269.71 14.8601 1271.67 16.4824 1272.19 20.1662L1275.32 42.3878C1275.83 46.0716 1274.39 48.1727 1270.95 48.657C1267.54 49.1358 1265.57 47.5135 1265.06 43.8297ZM1272.3 42.8109L1269.18 20.5893C1268.95 18.9256 1268.12 18.194 1266.69 18.3944C1265.31 18.5893 1264.71 19.5213 1264.94 21.185L1268.07 43.4066C1268.31 45.1098 1269.14 45.8811 1270.53 45.6862C1271.95 45.4858 1272.54 44.5142 1272.3 42.8109ZM1281.28 46.8404L1278 47.3024C1278.14 42.0306 1278.37 36.7476 1278.52 31.4757C1276.78 30.8721 1275.81 29.4727 1275.47 27.0168L1274.56 20.5207C1273.95 16.2427 1275.59 14.3966 1279.4 13.8622L1284.35 13.1663L1288.93 45.766L1285.92 46.1891L1283.84 31.4143L1282.06 31.6648C1281.78 31.7037 1281.58 31.7316 1281.46 31.7087L1281.28 46.8404ZM1277.61 20.092L1278.47 26.2317C1278.75 28.2122 1279.5 29.2378 1281.48 28.9595L1283.46 28.6811L1281.77 16.6395L1279.83 16.9122C1277.92 17.1794 1277.32 18.0323 1277.61 20.092ZM1287.32 12.7487L1296.15 11.5072L1296.58 14.5573L1290.76 15.3756L1292.37 26.8231L1294.51 26.5225C1298.31 25.9881 1300.26 27.4915 1300.84 31.6111L1301.73 37.9488C1302.31 42.0683 1300.81 44.0957 1297.01 44.6301L1291.9 45.3483L1287.32 12.7487ZM1298.76 38.4059L1297.85 31.9097C1297.58 30.0084 1296.62 29.2143 1294.92 29.4537L1292.78 29.7543L1294.49 41.9148L1296.59 41.6197C1298.33 41.3748 1299.03 40.3468 1298.76 38.4059ZM1309.36 21.2033L1308.6 15.7766C1308.33 13.8357 1307.49 13.0249 1305.58 13.2921L1303.52 13.5816L1305.09 24.7122L1307.19 24.4171C1308.93 24.1722 1309.65 23.2235 1309.36 21.2033ZM1307.68 43.1312L1304.67 43.5542L1300.09 10.9546L1305.16 10.2421C1308.96 9.70763 1310.99 11.2396 1311.57 15.3591L1312.32 20.7066C1312.9 24.8261 1311.4 26.8139 1307.6 27.3483L1305.5 27.6434L1307.68 43.1312ZM1319.97 41.4039L1316.68 41.866C1316.83 36.5941 1317.05 31.3111 1317.2 26.0393C1315.46 25.4357 1314.5 24.0362 1314.15 21.5804L1313.24 15.0842C1312.64 10.8063 1314.28 8.96019 1318.08 8.42576L1323.03 7.7299L1327.61 40.3295L1324.6 40.7526L1322.53 25.9778L1320.74 26.2283C1320.47 26.2673 1320.27 26.2951 1320.14 26.2722L1319.97 41.4039ZM1316.29 14.6556L1317.15 20.7952C1317.43 22.7758 1318.18 23.8014 1320.16 23.523L1322.14 23.2447L1320.45 11.203L1318.51 11.4758C1316.61 11.743 1316 12.5958 1316.29 14.6556ZM1336.51 23.4879C1334.64 23.7495 1333.37 22.4342 1333.11 20.5725C1332.85 18.7108 1333.72 17.1741 1335.58 16.9125C1337.36 16.662 1338.67 17.8925 1338.93 19.7542C1339.19 21.6159 1338.29 23.2374 1336.51 23.4879Z" fill="#F0EFEC"/>
</g>
<defs>
<clipPath id="clip0_0_50">
<rect width="1264.78" height="64" fill="white" transform="translate(0.701172 176.323) rotate(-8)"/>
</clipPath>
</defs>
</svg>
