<svg width="820" height="156" viewBox="0 0 820 156" fill="none" xmlns="http://www.w3.org/2000/svg">
<g clip-path="url(#clip0_21_1781)">
<rect width="822.211" height="41.4013" transform="translate(5.76172 0.000488281) rotate(8)" fill="#CA252A"/>
<path d="M-14.0486 23.4575C-14.1331 24.0583 -14.0597 24.5325 -13.8284 24.8801C-13.5948 25.2106 -13.1995 25.4499 -12.6427 25.5982L-10.8622 12.9291C-11.9925 12.8753 -12.6409 13.4406 -12.8073 14.6251L-14.0486 23.4575ZM-10.8144 25.8551C-10.2554 25.8637 -9.8181 25.7413 -9.50242 25.4881C-9.18432 25.2177 -8.98305 24.7821 -8.89861 24.1812L-7.65731 15.3489C-7.49084 14.1644 -7.9497 13.4435 -9.0339 13.1861L-10.8144 25.8551ZM-14.525 14.515C-14.4381 13.897 -14.3106 13.3635 -14.1425 12.9145C-13.9719 12.4483 -13.7435 12.069 -13.4574 11.7766C-13.154 11.4866 -12.7757 11.286 -12.3224 11.1746C-11.8667 11.0461 -11.3091 11.0019 -10.6495 11.0421L-10.3129 8.64734L-8.38165 8.91876L-8.71821 11.3135C-8.07311 11.4567 -7.54925 11.6529 -7.14662 11.902C-6.74157 12.134 -6.4418 12.43 -6.24731 12.7899C-6.03565 13.1523 -5.91209 13.581 -5.87665 14.0762C-5.83879 14.5542 -5.86328 15.1021 -5.95014 15.7202L-7.15525 24.295C-7.24211 24.913 -7.3696 25.4465 -7.53775 25.8955C-7.70589 26.3445 -7.94163 26.714 -8.24497 27.004C-8.53115 27.2964 -8.90209 27.5069 -9.3578 27.6354C-9.81109 27.7467 -10.3675 27.7823 -11.0271 27.7422L-11.36 30.1112L-13.2913 29.8397L-12.9584 27.4707C-13.6035 27.3275 -14.1285 27.14 -14.5336 26.908C-14.9362 26.6588 -15.2434 26.3531 -15.455 25.9907C-15.6495 25.6308 -15.7657 25.2118 -15.8036 24.7338C-15.8414 24.2559 -15.8169 23.7079 -15.7301 23.0899L-14.525 14.515ZM-3.97346 12.9782C-3.63569 10.5748 -2.35955 9.52879 -0.145031 9.84002C2.08665 10.1537 3.03361 11.5122 2.69584 13.9155L0.665608 28.3614C0.327839 30.7647 -0.956887 31.8096 -3.18857 31.4959C-5.40309 31.1847 -6.34146 29.8274 -6.00369 27.4241L-3.97346 12.9782ZM0.738826 13.6405C0.890822 12.559 0.503317 11.9531 -0.42369 11.8228C-1.33353 11.6949 -1.86445 12.1717 -2.01644 13.2532L-4.04668 27.6991C-4.2035 28.8149 -3.82699 29.4368 -2.91715 29.5647C-1.99014 29.6949 -1.44823 29.2022 -1.29141 28.0863L0.738826 13.6405ZM9.38469 15.3282C9.47396 14.693 9.41035 14.2115 9.19386 13.8834C8.97979 13.5382 8.56375 13.3222 7.94574 13.2354L6.60673 13.0472L5.58981 20.283L6.95457 20.4748C7.52107 20.5544 7.96217 20.4676 8.27785 20.2144C8.59353 19.9611 8.79721 19.5083 8.88889 18.856L9.38469 15.3282ZM1.94998 31.9818L4.92838 10.7894L8.2244 11.2526C9.46041 11.4263 10.3268 11.8632 10.8236 12.5632C11.34 13.2485 11.5041 14.2606 11.316 15.5996L10.8274 19.0759C10.6392 20.4149 10.2111 21.3438 9.54295 21.8626C8.87484 22.3815 7.92277 22.554 6.68677 22.3803L5.32201 22.1885L3.907 32.2568L1.94998 31.9818ZM14.41 30.4768C14.181 31.1099 13.9431 31.6191 13.6964 32.0046C13.4668 32.3924 13.1806 32.6848 12.8378 32.8817C12.4951 33.0787 12.0687 33.185 11.5588 33.2009C11.0661 33.2192 10.4506 33.1765 9.71246 33.0727L9.4292 33.0329L9.70424 31.0759L9.9875 31.1157C10.3308 31.164 10.6422 31.1902 10.9217 31.1945C11.2012 31.1988 11.4524 31.1553 11.6753 31.0641C11.8982 30.9728 12.0854 30.8241 12.2369 30.6178C12.4056 30.414 12.5582 30.1378 12.6947 29.7894L13.6851 27.0401L12.3046 11.826L14.3646 12.1155L15.0004 23.2861L18.6391 12.7163L20.5704 12.9877L14.41 30.4768ZM26.7293 35.4643L27.6304 29.0525C27.85 27.4903 28.0647 25.9625 28.2746 24.4689C28.5017 22.9778 28.7336 21.4524 28.9703 19.8927L24.489 35.1494L22.7638 34.907L22.6872 19.0096C22.4848 20.5742 22.2787 22.1033 22.0688 23.5968C21.8761 25.0927 21.6699 26.6218 21.4504 28.1839L20.5493 34.5957L18.7467 34.3424L21.7251 13.15L24.3517 13.5191L24.2649 30.3914L28.8322 14.1488L31.536 14.5288L28.5576 35.7212L26.7293 35.4643ZM37.0593 26.7802C36.4585 26.6957 36.0153 26.4234 35.7299 25.9631C35.4641 25.4881 35.3734 24.9502 35.4578 24.3494C35.5422 23.7485 35.7753 23.2736 36.157 22.9246C36.5582 22.5609 37.0592 22.4212 37.6601 22.5056C38.2437 22.5877 38.6697 22.8576 38.938 23.3154C39.2258 23.7585 39.3275 24.2805 39.2431 24.8813C39.1586 25.4822 38.9146 25.9731 38.5109 26.354C38.1269 26.7201 37.643 26.8622 37.0593 26.7802ZM42.5558 37.6885L43.1023 33.8003C43.1891 33.1823 43.2823 32.6439 43.3818 32.1852C43.4812 31.7266 43.6212 31.2911 43.8017 30.8788C43.9994 30.4689 44.2583 30.0589 44.5785 29.6488C44.8988 29.2386 45.3133 28.7805 45.8221 28.2743C46.4947 27.5986 47.0475 27.0285 47.4804 26.5642C47.9132 26.0999 48.2604 25.6847 48.5219 25.3189C48.7858 24.9358 48.9787 24.5603 49.1004 24.1922C49.2246 23.8071 49.3216 23.3656 49.3916 22.8677L49.7101 20.6017C49.8693 19.4687 49.4854 18.837 48.5584 18.7068C48.0262 18.632 47.6452 18.7272 47.4154 18.9925C47.2027 19.2602 47.0565 19.6773 46.9769 20.2438L46.463 23.9004L44.5318 23.6289L45.0457 19.9724C45.229 18.6677 45.6192 17.7598 46.2162 17.2485C46.8304 16.7396 47.704 16.5648 48.8371 16.724C49.9701 16.8832 50.769 17.3019 51.2339 17.9799C51.7012 18.6408 51.8444 19.615 51.6635 20.9025L51.3305 23.2715C51.2485 23.8552 51.121 24.3887 50.948 24.8721C50.7775 25.3383 50.5566 25.7886 50.2855 26.2232C50.0315 26.6601 49.726 27.0899 49.369 27.5124C49.0145 27.9177 48.6134 28.3427 48.1657 28.7875C47.5395 29.3822 47.0381 29.8982 46.6615 30.3354C46.2874 30.7555 45.9953 31.1521 45.7853 31.5252C45.5753 31.8983 45.4156 32.2873 45.3062 32.692C45.2164 33.082 45.1341 33.5431 45.0593 34.0753L44.7842 36.0323L49.445 36.6874L49.1736 38.6186L42.5558 37.6885ZM51.5837 38.9573C51.9962 36.0218 52.4845 33.4821 53.0484 31.3381C53.6319 29.1793 54.2124 27.3528 54.7901 25.8584C55.3873 24.3493 55.9423 23.1406 56.455 22.2324C56.985 21.3265 57.4027 20.6587 57.7082 20.229L52.8671 19.5486L53.1458 17.5659L59.8409 18.5068L59.5839 20.3351C58.8389 21.5258 58.1553 22.7777 57.5331 24.0907C56.9281 25.4061 56.3772 26.8342 55.8806 28.375C55.4036 29.901 54.9685 31.5642 54.5754 33.3645C54.1848 35.1477 53.8398 37.1037 53.5407 39.2324L51.5837 38.9573ZM66.3598 41.034L67.7387 31.2232L65.0092 30.8396L63.6303 40.6504L61.6733 40.3753L64.6517 19.1829L66.6087 19.458L65.2806 28.9083L68.0101 29.2919L69.3382 19.8416L71.2953 20.1166L68.3169 41.309L66.3598 41.034ZM72.573 23.7361C72.9108 21.3327 74.1869 20.2867 76.4014 20.5979C78.6331 20.9116 79.5801 22.2701 79.2423 24.6734L77.2121 39.1193C76.8743 41.5226 75.5896 42.5675 73.3579 42.2538C71.1434 41.9426 70.205 40.5853 70.5428 38.182L72.573 23.7361ZM77.2853 24.3984C77.4373 23.3169 77.0498 22.711 76.1228 22.5807C75.2129 22.4528 74.682 22.9296 74.53 24.0111L72.4998 38.457C72.343 39.5728 72.7195 40.1947 73.6293 40.3226C74.5563 40.4528 75.0982 39.9601 75.255 38.8442L77.2853 24.3984ZM78.0072 42.6709C78.5355 41.0296 79.0625 39.3968 79.5884 37.7727C80.1142 36.1485 80.6413 34.5158 81.1696 32.8744C80.676 32.525 80.3355 32.0832 80.1479 31.5492C79.9776 31.0176 79.9491 30.3484 80.0625 29.5415L80.656 25.3185C80.8514 23.928 81.2893 22.9917 81.9698 22.5096C82.6698 22.0128 83.6378 21.8513 84.8739 22.025L88.0926 22.4773L85.1142 43.6697L83.1572 43.3947L84.5071 33.7899L83.3483 33.627C83.1423 33.5981 83.0148 33.5714 82.9657 33.547L80.1444 42.9713L78.0072 42.6709ZM82.0778 29.5884C81.9861 30.2408 82.0277 30.7543 82.2027 31.129C82.3947 31.5061 82.8169 31.7405 83.4693 31.8322L84.7568 32.0131L85.857 24.1851L84.5952 24.0077C83.9772 23.9209 83.5201 23.9967 83.224 24.2352C82.9279 24.4737 82.7328 24.9276 82.6387 25.5971L82.0778 29.5884ZM95.767 23.5559L95.4883 25.5387L91.7031 25.0067L90.6572 32.4485L92.0477 32.6439C93.2837 32.8176 94.1427 33.2447 94.6248 33.9252C95.124 34.608 95.2795 35.619 95.0914 36.958L94.5123 41.078C94.3241 42.417 93.8948 43.3545 93.2243 43.8905C92.5561 44.4093 91.6041 44.5818 90.3681 44.4081L87.0463 43.9413L90.0247 22.7489L95.767 23.5559ZM93.171 36.6093C93.3422 35.3905 92.8786 34.7038 91.7799 34.5494L90.3894 34.354L89.2784 42.2593L90.6431 42.4511C91.759 42.6079 92.4037 42.0683 92.5774 40.8323L93.171 36.6093ZM102.779 28.454C102.869 27.8188 102.805 27.3372 102.589 27.0092C102.375 26.664 101.958 26.448 101.34 26.3611L100.001 26.1729L98.9845 33.4087L100.349 33.6005C100.916 33.6802 101.357 33.5934 101.673 33.3401C101.988 33.0869 102.192 32.6341 102.284 31.9818L102.779 28.454ZM95.3447 45.1075L98.3231 23.9151L101.619 24.3784C102.855 24.5521 103.722 24.9889 104.218 25.689C104.735 26.3743 104.899 27.3864 104.711 28.7254L104.222 32.2017C104.034 33.5407 103.606 34.4696 102.938 34.9884C102.27 35.5072 101.317 35.6798 100.081 35.5061L98.7167 35.3143L97.3017 45.3826L95.3447 45.1075ZM103.154 46.205C103.682 44.5637 104.209 42.931 104.735 41.3068C105.261 39.6826 105.788 38.0499 106.316 36.4086C105.823 36.0591 105.482 35.6174 105.295 35.0833C105.124 34.5517 105.096 33.8825 105.209 33.0757L105.803 28.8526C105.998 27.4621 106.436 26.5258 107.116 26.0438C107.816 25.5469 108.785 25.3854 110.021 25.5591L113.239 26.0115L110.261 47.2039L108.304 46.9288L109.654 37.324L108.495 37.1612C108.289 37.1322 108.161 37.1055 108.112 37.0811L105.291 46.5054L103.154 46.205ZM107.224 33.1226C107.133 33.7749 107.174 34.2884 107.349 34.6631C107.541 35.0402 107.964 35.2746 108.616 35.3663L109.903 35.5473L111.004 27.7192L109.742 27.5419C109.124 27.455 108.667 27.5308 108.371 27.7693C108.075 28.0078 107.879 28.4618 107.785 29.1313L107.224 33.1226ZM118.836 38.2732C118.235 38.1887 117.792 37.9164 117.507 37.4561C117.241 36.9811 117.15 36.4432 117.235 35.8424C117.319 35.2415 117.552 34.7666 117.934 34.4176C118.335 34.0539 118.836 33.9142 119.437 33.9986C120.021 34.0807 120.447 34.3506 120.715 34.8085C121.003 35.2515 121.104 35.7735 121.02 36.3743C120.936 36.9752 120.692 37.4661 120.288 37.847C119.904 38.2131 119.42 38.3552 118.836 38.2732Z" fill="#F0EFEC"/>
<path d="M128.749 43.5263C128.665 44.1271 128.738 44.6014 128.969 44.949C129.203 45.2794 129.598 45.5188 130.155 45.6671L131.936 32.998C130.805 32.9441 130.157 33.5095 129.991 34.694L128.749 43.5263ZM131.983 45.924C132.542 45.9325 132.98 45.8102 133.295 45.557C133.614 45.2866 133.815 44.8509 133.899 44.2501L135.141 35.4178C135.307 34.2333 134.848 33.5123 133.764 33.2549L131.983 45.924ZM128.273 34.5839C128.36 33.9659 128.487 33.4324 128.655 32.9833C128.826 32.5171 129.054 32.1379 129.34 31.8455C129.644 31.5555 130.022 31.3548 130.475 31.2435C130.931 31.1149 131.489 31.0708 132.148 31.111L132.485 28.7162L134.416 28.9876L134.08 31.3824C134.725 31.5256 135.249 31.7217 135.651 31.9709C136.056 32.2029 136.356 32.4988 136.551 32.8588C136.762 33.2211 136.886 33.6499 136.921 34.145C136.959 34.623 136.935 35.171 136.848 35.789L135.643 44.3638C135.556 44.9818 135.428 45.5153 135.26 45.9644C135.092 46.4134 134.856 46.7829 134.553 47.0729C134.267 47.3653 133.896 47.5757 133.44 47.7042C132.987 47.8156 132.43 47.8512 131.771 47.811L131.438 50.18L129.507 49.9086L129.839 47.5396C129.194 47.3964 128.669 47.2088 128.264 46.9768C127.862 46.7277 127.554 46.4219 127.343 46.0596C127.148 45.6996 127.032 45.2807 126.994 44.8027C126.956 44.3247 126.981 43.7767 127.068 43.1587L128.273 34.5839ZM138.824 33.047C139.162 30.6437 140.438 29.5976 142.653 29.9089C144.885 30.2225 145.831 31.581 145.494 33.9844L143.463 48.4302C143.126 50.8336 141.841 51.8784 139.609 51.5648C137.395 51.2535 136.456 49.8963 136.794 47.4929L138.824 33.047ZM143.537 33.7093C143.689 32.6278 143.301 32.0219 142.374 31.8916C141.464 31.7638 140.933 32.2406 140.781 33.3221L138.751 47.7679C138.594 48.8838 138.971 49.5056 139.881 49.6335C140.808 49.7638 141.35 49.271 141.506 48.1552L143.537 33.7093ZM152.183 35.3971C152.272 34.7619 152.208 34.2803 151.992 33.9523C151.778 33.6071 151.362 33.3911 150.744 33.3042L149.405 33.116L148.388 40.3518L149.752 40.5436C150.319 40.6232 150.76 40.5364 151.076 40.2832C151.391 40.03 151.595 39.5772 151.687 38.9248L152.183 35.3971ZM144.748 52.0506L147.726 30.8582L151.022 31.3214C152.258 31.4952 153.125 31.932 153.621 32.6321C154.138 33.3173 154.302 34.3295 154.114 35.6685L153.625 39.1448C153.437 40.4838 153.009 41.4127 152.341 41.9315C151.673 42.4503 150.721 42.6228 149.485 42.4491L148.12 42.2573L146.705 52.3257L144.748 52.0506ZM157.208 50.5457C156.979 51.1787 156.741 51.688 156.494 52.0734C156.265 52.4613 155.978 52.7537 155.636 52.9506C155.293 53.1475 154.867 53.2539 154.357 53.2698C153.864 53.288 153.248 53.2453 152.51 53.1416L152.227 53.1018L152.502 51.1447L152.785 51.1845C153.129 51.2328 153.44 51.2591 153.72 51.2633C153.999 51.2676 154.25 51.2241 154.473 51.1329C154.696 51.0417 154.883 50.8929 155.035 50.6867C155.203 50.4828 155.356 50.2066 155.493 49.8582L156.483 47.1089L155.102 31.8949L157.162 32.1844L157.798 43.355L161.437 32.7851L163.368 33.0566L157.208 50.5457ZM169.527 55.5331L170.428 49.1213C170.648 47.5592 170.863 46.0313 171.072 44.5378C171.3 43.0467 171.531 41.5213 171.768 39.9615L167.287 55.2183L165.562 54.9758L165.485 39.0785C165.283 40.6431 165.077 42.1721 164.867 43.6656C164.674 45.1616 164.468 46.6906 164.248 48.2528L163.347 54.6646L161.545 54.4112L164.523 33.2188L167.15 33.588L167.063 50.4602L171.63 34.2177L174.334 34.5977L171.355 55.7901L169.527 55.5331ZM179.857 46.849C179.256 46.7646 178.813 46.4922 178.528 46.032C178.262 45.557 178.171 45.019 178.256 44.4182C178.34 43.8174 178.573 43.3424 178.955 42.9934C179.356 42.6297 179.857 42.49 180.458 42.5745C181.042 42.6565 181.468 42.9265 181.736 43.3843C182.024 43.8274 182.125 44.3493 182.041 44.9502C181.956 45.551 181.712 46.0419 181.309 46.4228C180.925 46.789 180.441 46.931 179.857 46.849ZM185.354 57.7574L185.9 53.8691C185.987 53.2511 186.08 52.7128 186.18 52.2541C186.279 51.7954 186.419 51.3599 186.6 50.9477C186.797 50.5378 187.056 50.1278 187.376 49.7176C187.697 49.3075 188.111 48.8493 188.62 48.3431C189.293 47.6674 189.845 47.0974 190.278 46.633C190.711 46.1687 191.058 45.7536 191.32 45.3877C191.584 45.0047 191.777 44.6291 191.898 44.2611C192.022 43.8759 192.119 43.4344 192.189 42.9366L192.508 40.6705C192.667 39.5375 192.283 38.9059 191.356 38.7756C190.824 38.7008 190.443 38.7961 190.213 39.0614C190.001 39.3291 189.854 39.7462 189.775 40.3127L189.261 43.9692L187.33 43.6978L187.844 40.0413C188.027 38.7366 188.417 37.8286 189.014 37.3173C189.628 36.8084 190.502 36.6336 191.635 36.7928C192.768 36.9521 193.567 37.3707 194.032 38.0488C194.499 38.7096 194.642 39.6838 194.461 40.9713L194.128 43.3404C194.046 43.924 193.919 44.4575 193.746 44.9409C193.575 45.4071 193.354 45.8575 193.083 46.292C192.829 46.729 192.524 47.1587 192.167 47.5812C191.812 47.9865 191.411 48.4116 190.964 48.8563C190.337 49.451 189.836 49.967 189.459 50.4043C189.085 50.8243 188.793 51.2209 188.583 51.5941C188.373 51.9672 188.213 52.3561 188.104 52.7609C188.014 53.1509 187.932 53.612 187.857 54.1442L187.582 56.1012L192.243 56.7562L191.971 58.6875L185.354 57.7574ZM194.382 59.0262C194.794 56.0907 195.282 53.5509 195.846 51.4069C196.43 49.2482 197.01 47.4216 197.588 45.9273C198.185 44.4182 198.74 43.2095 199.253 42.3012C199.783 41.3954 200.201 40.7276 200.506 40.2979L195.665 39.6175L195.944 37.6347L202.639 38.5757L202.382 40.4039C201.637 41.5946 200.953 42.8465 200.331 44.1596C199.726 45.475 199.175 46.9031 198.678 48.4438C198.201 49.9698 197.766 51.633 197.373 53.4334C196.983 55.2166 196.638 57.1725 196.339 59.3012L194.382 59.0262ZM209.158 61.1028L210.537 51.292L207.807 50.9084L206.428 60.7192L204.471 60.4442L207.45 39.2518L209.407 39.5268L208.078 48.9771L210.808 49.3607L212.136 39.9104L214.093 40.1855L211.115 61.3779L209.158 61.1028ZM215.371 43.8049C215.709 41.4016 216.985 40.3555 219.199 40.6668C221.431 40.9804 222.378 42.3389 222.04 44.7423L220.01 59.1881C219.672 61.5915 218.387 62.6363 216.156 62.3227C213.941 62.0114 213.003 60.6542 213.341 58.2508L215.371 43.8049ZM220.083 44.4672C220.235 43.3857 219.848 42.7798 218.921 42.6495C218.011 42.5217 217.48 42.9985 217.328 44.08L215.298 58.5258C215.141 59.6417 215.517 60.2635 216.427 60.3914C217.354 60.5217 217.896 60.0289 218.053 58.9131L220.083 44.4672ZM220.805 62.7398C221.333 61.0984 221.86 59.4657 222.386 57.8415C222.912 56.2174 223.439 54.5846 223.967 52.9433C223.474 52.5938 223.133 52.1521 222.946 51.618C222.775 51.0864 222.747 50.4172 222.86 49.6104L223.454 45.3873C223.649 43.9968 224.087 43.0605 224.768 42.5785C225.468 42.0817 226.436 41.9201 227.672 42.0938L230.89 42.5462L227.912 63.7386L225.955 63.4636L227.305 53.8587L226.146 53.6959C225.94 53.6669 225.813 53.6402 225.764 53.6158L222.942 63.0401L220.805 62.7398ZM224.876 49.6573C224.784 50.3096 224.826 50.8231 225.001 51.1978C225.193 51.5749 225.615 51.8093 226.267 51.901L227.555 52.082L228.655 44.2539L227.393 44.0766C226.775 43.9897 226.318 44.0655 226.022 44.304C225.726 44.5425 225.531 44.9965 225.437 45.666L224.876 49.6573ZM238.565 43.6247L238.286 45.6075L234.501 45.0755L233.455 52.5173L234.846 52.7128C236.082 52.8865 236.941 53.3135 237.423 53.994C237.922 54.6769 238.077 55.6878 237.889 57.0268L237.31 61.1468C237.122 62.4859 236.693 63.4233 236.022 63.9593C235.354 64.4781 234.402 64.6507 233.166 64.477L229.844 64.0101L232.823 42.8177L238.565 43.6247ZM235.969 56.6781C236.14 55.4593 235.676 54.7727 234.578 54.6183L233.187 54.4228L232.076 62.3282L233.441 62.52C234.557 62.6768 235.202 62.1372 235.375 60.9012L235.969 56.6781ZM245.577 48.5228C245.667 47.8877 245.603 47.4061 245.386 47.078C245.172 46.7329 244.756 46.5168 244.138 46.43L242.799 46.2418L241.782 53.4776L243.147 53.6694C243.714 53.749 244.155 53.6622 244.47 53.409C244.786 53.1557 244.99 52.703 245.081 52.0506L245.577 48.5228ZM238.143 65.1764L241.121 43.984L244.417 44.4472C245.653 44.6209 246.519 45.0578 247.016 45.7578C247.533 46.4431 247.697 47.4553 247.509 48.7943L247.02 52.2705C246.832 53.6095 246.404 54.5385 245.736 55.0573C245.067 55.5761 244.115 55.7486 242.879 55.5749L241.515 55.3831L240.1 65.4514L238.143 65.1764ZM245.952 66.2739C246.48 64.6326 247.007 62.9998 247.533 61.3757C248.059 59.7515 248.586 58.1187 249.114 56.4774C248.621 56.1279 248.28 55.6862 248.092 55.1522C247.922 54.6206 247.894 53.9513 248.007 53.1445L248.6 48.9215C248.796 47.531 249.234 46.5947 249.914 46.1126C250.614 45.6158 251.582 45.4542 252.818 45.628L256.037 46.0803L253.059 67.2727L251.102 66.9977L252.452 57.3929L251.293 57.23C251.087 57.2011 250.959 57.1744 250.91 57.15L248.089 66.5743L245.952 66.2739ZM250.022 53.1914C249.931 53.8437 249.972 54.3573 250.147 54.732C250.339 55.1091 250.761 55.3435 251.414 55.4352L252.701 55.6161L253.801 47.788L252.54 47.6107C251.922 47.5239 251.465 47.5997 251.169 47.8382C250.872 48.0766 250.677 48.5306 250.583 49.2001L250.022 53.1914ZM261.634 58.342C261.033 58.2576 260.59 57.9852 260.305 57.525C260.039 57.05 259.948 56.512 260.033 55.9112C260.117 55.3104 260.35 54.8354 260.732 54.4865C261.133 54.1227 261.634 53.983 262.235 54.0675C262.819 54.1495 263.245 54.4195 263.513 54.8773C263.801 55.3204 263.902 55.8424 263.818 56.4432C263.733 57.044 263.489 57.5349 263.086 57.9158C262.702 58.282 262.218 58.4241 261.634 58.342Z" fill="#F0EFEC"/>
<path d="M271.546 63.5952C271.462 64.196 271.535 64.6702 271.766 65.0178C272 65.3483 272.395 65.5876 272.952 65.7359L274.733 53.0668C273.602 53.013 272.954 53.5783 272.787 54.7628L271.546 63.5952ZM274.78 65.9928C275.339 66.0014 275.777 65.879 276.092 65.6258C276.41 65.3554 276.612 64.9198 276.696 64.3189L277.937 55.4866C278.104 54.3021 277.645 53.5812 276.561 53.3238L274.78 65.9928ZM271.07 54.6527C271.157 54.0347 271.284 53.5012 271.452 53.0522C271.623 52.586 271.851 52.2067 272.137 51.9143C272.441 51.6243 272.819 51.4237 273.272 51.3123C273.728 51.1838 274.286 51.1396 274.945 51.1798L275.282 48.785L277.213 49.0565L276.877 51.4512C277.522 51.5944 278.045 51.7906 278.448 52.0397C278.853 52.2717 279.153 52.5677 279.347 52.9276C279.559 53.29 279.683 53.7187 279.718 54.2139C279.756 54.6919 279.731 55.2398 279.645 55.8579L278.439 64.4327C278.353 65.0507 278.225 65.5842 278.057 66.0332C277.889 66.4822 277.653 66.8517 277.35 67.1417C277.064 67.4341 276.693 67.6446 276.237 67.7731C275.784 67.8844 275.227 67.92 274.568 67.8798L274.235 70.2489L272.303 69.9774L272.636 67.6084C271.991 67.4652 271.466 67.2777 271.061 67.0457C270.659 66.7965 270.351 66.4908 270.14 66.1284C269.945 65.7685 269.829 65.3495 269.791 64.8715C269.753 64.3935 269.778 63.8456 269.865 63.2276L271.07 54.6527ZM281.621 53.1159C281.959 50.7125 283.235 49.6665 285.45 49.9777C287.681 50.2914 288.628 51.6499 288.291 54.0532L286.26 68.4991C285.923 70.9024 284.638 71.9473 282.406 71.6336C280.192 71.3224 279.253 69.9651 279.591 67.5617L281.621 53.1159ZM286.334 53.7782C286.486 52.6967 286.098 52.0908 285.171 51.9605C284.261 51.8326 283.73 52.3094 283.578 53.3909L281.548 67.8368C281.391 68.9526 281.768 69.5745 282.678 69.7024C283.605 69.8326 284.146 69.3399 284.303 68.224L286.334 53.7782ZM294.979 55.4659C295.069 54.8307 295.005 54.3491 294.789 54.0211C294.575 53.6759 294.158 53.4599 293.54 53.3731L292.201 53.1849L291.185 60.4207L292.549 60.6125C293.116 60.6921 293.557 60.6053 293.873 60.352C294.188 60.0988 294.392 59.646 294.484 58.9937L294.979 55.4659ZM287.545 72.1195L290.523 50.9271L293.819 51.3903C295.055 51.564 295.922 52.0009 296.418 52.7009C296.935 53.3862 297.099 54.3983 296.911 55.7373L296.422 59.2136C296.234 60.5526 295.806 61.4815 295.138 62.0003C294.47 62.5191 293.518 62.6917 292.281 62.518L290.917 62.3262L289.502 72.3945L287.545 72.1195ZM300.005 70.6145C299.776 71.2476 299.538 71.7568 299.291 72.1423C299.062 72.5301 298.775 72.8225 298.433 73.0194C298.09 73.2164 297.663 73.3227 297.154 73.3386C296.661 73.3569 296.045 73.3142 295.307 73.2104L295.024 73.1706L295.299 71.2136L295.582 71.2534C295.926 71.3016 296.237 71.3279 296.516 71.3322C296.796 71.3364 297.047 71.293 297.27 71.2018C297.493 71.1105 297.68 70.9618 297.832 70.7555C298 70.5516 298.153 70.2755 298.289 69.9271L299.28 67.1778L297.899 51.9637L299.959 52.2532L300.595 63.4238L304.234 52.854L306.165 53.1254L300.005 70.6145ZM312.324 75.602L313.225 69.1902C313.445 67.628 313.659 66.1002 313.869 64.6066C314.096 63.1155 314.328 61.5901 314.565 60.0303L310.084 75.2871L308.359 75.0447L308.282 59.1473C308.08 60.7119 307.873 62.241 307.664 63.7345C307.471 65.2304 307.265 66.7594 307.045 68.3216L306.144 74.7334L304.341 74.4801L307.32 53.2877L309.946 53.6568L309.86 70.529L314.427 54.2865L317.131 54.6665L314.152 75.8589L312.324 75.602ZM322.654 66.9179C322.053 66.8334 321.61 66.5611 321.325 66.1008C321.059 65.6258 320.968 65.0879 321.053 64.487C321.137 63.8862 321.37 63.4113 321.752 63.0623C322.153 62.6985 322.654 62.5589 323.255 62.6433C323.838 62.7254 324.264 62.9953 324.533 63.4531C324.821 63.8962 324.922 64.4182 324.838 65.019C324.753 65.6199 324.509 66.1107 324.106 66.4917C323.722 66.8578 323.238 66.9999 322.654 66.9179ZM328.151 77.8262L328.697 73.938C328.784 73.32 328.877 72.7816 328.976 72.3229C329.076 71.8643 329.216 71.4288 329.396 71.0165C329.594 70.6066 329.853 70.1966 330.173 69.7865C330.493 69.3763 330.908 68.9182 331.417 68.412C332.089 67.7363 332.642 67.1662 333.075 66.7019C333.508 66.2375 333.855 65.8224 334.117 65.4566C334.381 65.0735 334.573 64.698 334.695 64.3299C334.819 63.9448 334.916 63.5032 334.986 63.0054L335.305 60.7394C335.464 59.6064 335.08 58.9747 334.153 58.8445C333.621 58.7697 333.24 58.8649 333.01 59.1302C332.797 59.3979 332.651 59.815 332.572 60.3815L332.058 64.0381L330.126 63.7666L330.64 60.1101C330.824 58.8054 331.214 57.8975 331.811 57.3862C332.425 56.8773 333.299 56.7025 334.432 56.8617C335.565 57.0209 336.364 57.4396 336.829 58.1176C337.296 58.7785 337.439 59.7527 337.258 61.0402L336.925 63.4092C336.843 63.9929 336.716 64.5264 336.543 65.0098C336.372 65.4759 336.151 65.9263 335.88 66.3609C335.626 66.7978 335.321 67.2276 334.964 67.65C334.609 68.0554 334.208 68.4804 333.76 68.9252C333.134 69.5199 332.633 70.0359 332.256 70.4731C331.882 70.8932 331.59 71.2898 331.38 71.6629C331.17 72.036 331.01 72.425 330.901 72.8297C330.811 73.2197 330.729 73.6808 330.654 74.213L330.379 76.17L335.04 76.8251L334.768 78.7563L328.151 77.8262ZM337.178 79.095C337.591 76.1595 338.079 73.6197 338.643 71.4758C339.227 69.317 339.807 67.4905 340.385 65.9961C340.982 64.487 341.537 63.2783 342.05 62.3701C342.58 61.4642 342.997 60.7964 343.303 60.3667L338.462 59.6863L338.741 57.7036L345.436 58.6445L345.179 60.4728C344.434 61.6635 343.75 62.9154 343.128 64.2284C342.523 65.5438 341.972 66.9719 341.475 68.5127C340.998 70.0387 340.563 71.7018 340.17 73.5022C339.779 75.2854 339.435 77.2414 339.135 79.3701L337.178 79.095ZM351.955 81.1717L353.333 71.3609L350.604 70.9773L349.225 80.7881L347.268 80.513L350.246 59.3206L352.203 59.5957L350.875 69.046L353.605 69.4296L354.933 59.9793L356.89 60.2543L353.912 81.4467L351.955 81.1717ZM358.168 63.8738C358.505 61.4704 359.782 60.4244 361.996 60.7356C364.228 61.0493 365.175 62.4078 364.837 64.8111L362.807 79.257C362.469 81.6603 361.184 82.7052 358.953 82.3915C356.738 82.0803 355.8 80.723 356.137 78.3196L358.168 63.8738ZM362.88 64.5361C363.032 63.4546 362.644 62.8487 361.717 62.7184C360.808 62.5905 360.277 63.0673 360.125 64.1488L358.095 78.5947C357.938 79.7105 358.314 80.3324 359.224 80.4603C360.151 80.5905 360.693 80.0978 360.85 78.9819L362.88 64.5361ZM363.602 82.8086C364.13 81.1673 364.657 79.5345 365.183 77.9104C365.709 76.2862 366.236 74.6535 366.764 73.0121C366.271 72.6627 365.93 72.2209 365.743 71.6869C365.572 71.1553 365.544 70.4861 365.657 69.6792L366.251 65.4562C366.446 64.0657 366.884 63.1294 367.565 62.6473C368.265 62.1505 369.233 61.989 370.469 62.1627L373.687 62.615L370.709 83.8074L368.752 83.5324L370.102 73.9276L368.943 73.7647C368.737 73.7358 368.61 73.7091 368.56 73.6847L365.739 83.109L363.602 82.8086ZM367.673 69.7261C367.581 70.3785 367.622 70.892 367.797 71.2667C367.989 71.6438 368.412 71.8782 369.064 71.9699L370.352 72.1508L371.452 64.3228L370.19 64.1454C369.572 64.0586 369.115 64.1344 368.819 64.3729C368.523 64.6113 368.328 65.0653 368.233 65.7348L367.673 69.7261ZM381.362 63.6936L381.083 65.6764L377.298 65.1444L376.252 72.5862L377.642 72.7816C378.878 72.9553 379.737 73.3824 380.22 74.0628C380.719 74.7457 380.874 75.7567 380.686 77.0957L380.107 81.2157C379.919 82.5547 379.49 83.4922 378.819 84.0282C378.151 84.547 377.199 84.7195 375.963 84.5458L372.641 84.079L375.619 62.8866L381.362 63.6936ZM378.766 76.747C378.937 75.5282 378.473 74.8415 377.375 74.6871L375.984 74.4917L374.873 82.397L376.238 82.5888C377.354 82.7456 377.998 82.206 378.172 80.97L378.766 76.747ZM388.374 68.5917C388.463 67.9565 388.4 67.4749 388.183 67.1469C387.969 66.8017 387.553 66.5857 386.935 66.4988L385.596 66.3106L384.579 73.5464L385.944 73.7382C386.511 73.8179 386.952 73.7311 387.267 73.4778C387.583 73.2246 387.787 72.7718 387.878 72.1195L388.374 68.5917ZM380.939 85.2452L383.918 64.0528L387.214 64.5161C388.45 64.6898 389.316 65.1266 389.813 65.8267C390.329 66.512 390.494 67.5241 390.305 68.8631L389.817 72.3394C389.629 73.6784 389.201 74.6073 388.532 75.1261C387.864 75.6449 386.912 75.8175 385.676 75.6438L384.311 75.452L382.896 85.5203L380.939 85.2452ZM388.749 86.3427C389.277 84.7014 389.804 83.0687 390.33 81.4445C390.856 79.8203 391.383 78.1876 391.911 76.5463C391.417 76.1968 391.077 75.7551 390.889 75.221C390.719 74.6894 390.69 74.0202 390.804 73.2133L391.397 68.9903C391.593 67.5998 392.031 66.6635 392.711 66.1815C393.411 65.6846 394.379 65.5231 395.615 65.6968L398.834 66.1492L395.856 87.3416L393.899 87.0665L395.248 77.4617L394.09 77.2989C393.884 77.2699 393.756 77.2432 393.707 77.2188L390.886 86.6431L388.749 86.3427ZM392.819 73.2603C392.728 73.9126 392.769 74.4261 392.944 74.8008C393.136 75.1779 393.558 75.4123 394.211 75.504L395.498 75.6849L396.598 67.8569L395.337 67.6796C394.719 67.5927 394.262 67.6685 393.965 67.907C393.669 68.1455 393.474 68.5995 393.38 69.269L392.819 73.2603ZM404.431 78.4109C403.83 78.3264 403.387 78.0541 403.102 77.5938C402.836 77.1188 402.745 76.5809 402.829 75.9801C402.914 75.3792 403.147 74.9043 403.529 74.5553C403.93 74.1915 404.431 74.0519 405.032 74.1363C405.615 74.2184 406.041 74.4883 406.31 74.9461C406.598 75.3892 406.699 75.9112 406.615 76.512C406.53 77.1129 406.286 77.6038 405.883 77.9847C405.499 78.3508 405.015 78.4929 404.431 78.4109Z" fill="#F0EFEC"/>
<path d="M414.344 83.664C414.259 84.2648 414.333 84.7391 414.564 85.0867C414.798 85.4171 415.193 85.6565 415.75 85.8047L417.53 73.1357C416.4 73.0818 415.752 73.6472 415.585 74.8317L414.344 83.664ZM417.578 86.0617C418.137 86.0702 418.574 85.9479 418.89 85.6946C419.208 85.4242 419.41 84.9886 419.494 84.3878L420.735 75.5555C420.902 74.371 420.443 73.65 419.359 73.3926L417.578 86.0617ZM413.868 74.7216C413.954 74.1036 414.082 73.5701 414.25 73.121C414.421 72.6548 414.649 72.2756 414.935 71.9832C415.239 71.6932 415.617 71.4925 416.07 71.3812C416.526 71.2526 417.084 71.2085 417.743 71.2487L418.08 68.8539L420.011 69.1253L419.674 71.5201C420.319 71.6633 420.843 71.8594 421.246 72.1086C421.651 72.3406 421.951 72.6365 422.145 72.9965C422.357 73.3588 422.48 73.7876 422.516 74.2827C422.554 74.7607 422.529 75.3087 422.442 75.9267L421.237 84.5015C421.15 85.1195 421.023 85.653 420.855 86.1021C420.687 86.5511 420.451 86.9206 420.148 87.2106C419.861 87.503 419.49 87.7134 419.035 87.8419C418.581 87.9533 418.025 87.9889 417.365 87.9487L417.033 90.3177L415.101 90.0463L415.434 87.6773C414.789 87.5341 414.264 87.3465 413.859 87.1145C413.456 86.8654 413.149 86.5596 412.938 86.1973C412.743 85.8373 412.627 85.4184 412.589 84.9404C412.551 84.4624 412.576 83.9144 412.663 83.2964L413.868 74.7216ZM424.419 73.1847C424.757 70.7814 426.033 69.7353 428.248 70.0466C430.479 70.3602 431.426 71.7187 431.088 74.122L429.058 88.5679C428.72 90.9713 427.436 92.0161 425.204 91.7025C422.989 91.3912 422.051 90.0339 422.389 87.6306L424.419 73.1847ZM429.131 73.847C429.283 72.7655 428.896 72.1596 427.969 72.0293C427.059 71.9015 426.528 72.3783 426.376 73.4598L424.346 87.9056C424.189 89.0215 424.566 89.6433 425.475 89.7712C426.402 89.9015 426.944 89.4087 427.101 88.2929L429.131 73.847ZM437.777 75.5348C437.867 74.8996 437.803 74.418 437.586 74.09C437.372 73.7448 436.956 73.5288 436.338 73.4419L434.999 73.2537L433.982 80.4895L435.347 80.6813C435.914 80.7609 436.355 80.6741 436.67 80.4209C436.986 80.1677 437.19 79.7149 437.281 79.0625L437.777 75.5348ZM430.343 92.1883L433.321 70.9959L436.617 71.4591C437.853 71.6328 438.719 72.0697 439.216 72.7698C439.733 73.455 439.897 74.4672 439.709 75.8062L439.22 79.2825C439.032 80.6215 438.604 81.5504 437.936 82.0692C437.267 82.588 436.315 82.7605 435.079 82.5868L433.715 82.395L432.3 92.4634L430.343 92.1883ZM442.803 90.6834C442.574 91.3164 442.336 91.8256 442.089 92.2111C441.859 92.599 441.573 92.8914 441.23 93.0883C440.888 93.2852 440.461 93.3916 439.951 93.4075C439.459 93.4257 438.843 93.383 438.105 93.2793L437.822 93.2394L438.097 91.2824L438.38 91.3222C438.723 91.3705 439.035 91.3968 439.314 91.401C439.594 91.4053 439.845 91.3618 440.068 91.2706C440.291 91.1794 440.478 91.0306 440.63 90.8244C440.798 90.6205 440.951 90.3443 441.087 89.9959L442.078 87.2466L440.697 72.0326L442.757 72.3221L443.393 83.4927L447.032 72.9228L448.963 73.1943L442.803 90.6834ZM455.122 95.6708L456.023 89.259C456.243 87.6968 456.457 86.169 456.667 84.6755C456.894 83.1844 457.126 81.659 457.363 80.0992L452.882 95.356L451.156 95.1135L451.08 79.2162C450.877 80.7808 450.671 82.3098 450.461 83.8033C450.269 85.2992 450.063 86.8283 449.843 88.3905L448.942 94.8023L447.139 94.5489L450.118 73.3565L452.744 73.7257L452.658 90.5979L457.225 74.3554L459.929 74.7354L456.95 95.9278L455.122 95.6708ZM465.452 86.9867C464.851 86.9023 464.408 86.6299 464.122 86.1697C463.857 85.6947 463.766 85.1567 463.85 84.5559C463.935 83.9551 464.168 83.4801 464.55 83.1311C464.951 82.7674 465.452 82.6277 466.053 82.7122C466.636 82.7942 467.062 83.0641 467.331 83.522C467.618 83.9651 467.72 84.487 467.636 85.0879C467.551 85.6887 467.307 86.1796 466.904 86.5605C466.519 86.9267 466.036 87.0687 465.452 86.9867ZM470.948 97.8951L471.495 94.0068C471.582 93.3888 471.675 92.8505 471.774 92.3918C471.874 91.9331 472.014 91.4976 472.194 91.0854C472.392 90.6755 472.651 90.2655 472.971 89.8553C473.291 89.4452 473.706 88.987 474.215 88.4808C474.887 87.8051 475.44 87.2351 475.873 86.7707C476.306 86.3064 476.653 85.8913 476.915 85.5254C477.178 85.1423 477.371 84.7668 477.493 84.3988C477.617 84.0136 477.714 83.5721 477.784 83.0743L478.103 80.8082C478.262 79.6752 477.878 79.0436 476.951 78.9133C476.419 78.8385 476.038 78.9338 475.808 79.1991C475.595 79.4668 475.449 79.8839 475.369 80.4504L474.856 84.1069L472.924 83.8355L473.438 80.179C473.622 78.8743 474.012 77.9663 474.609 77.455C475.223 76.9461 476.097 76.7713 477.23 76.9305C478.363 77.0898 479.162 77.5084 479.626 78.1865C480.094 78.8473 480.237 79.8215 480.056 81.109L479.723 83.4781C479.641 84.0617 479.514 84.5952 479.341 85.0786C479.17 85.5448 478.949 85.9952 478.678 86.4297C478.424 86.8667 478.119 87.2964 477.762 87.7189C477.407 88.1242 477.006 88.5493 476.558 88.994C475.932 89.5887 475.431 90.1047 475.054 90.542C474.68 90.962 474.388 91.3586 474.178 91.7317C473.968 92.1049 473.808 92.4938 473.699 92.8986C473.609 93.2886 473.527 93.7497 473.452 94.2819L473.177 96.2389L477.838 96.8939L477.566 98.8252L470.948 97.8951ZM479.976 99.1639C480.389 96.2284 480.877 93.6886 481.441 91.5446C482.024 89.3859 482.605 87.5593 483.183 86.065C483.78 84.5559 484.335 83.3472 484.848 82.4389C485.378 81.5331 485.795 80.8653 486.101 80.4356L481.26 79.7552L481.538 77.7724L488.233 78.7134L487.976 80.5416C487.231 81.7323 486.548 82.9842 485.926 84.2972C485.321 85.6127 484.77 87.0408 484.273 88.5815C483.796 90.1075 483.361 91.7707 482.968 93.5711C482.577 95.3543 482.232 97.3102 481.933 99.4389L479.976 99.1639ZM494.752 101.241L496.131 91.4297L493.402 91.0461L492.023 100.857L490.066 100.582L493.044 79.3895L495.001 79.6645L493.673 89.1148L496.403 89.4984L497.731 80.0481L499.688 80.3232L496.709 101.516L494.752 101.241ZM500.966 83.9426C501.303 81.5393 502.579 80.4932 504.794 80.8045C507.026 81.1181 507.973 82.4766 507.635 84.88L505.605 99.3258C505.267 101.729 503.982 102.774 501.75 102.46C499.536 102.149 498.598 100.792 498.935 98.3885L500.966 83.9426ZM505.678 84.6049C505.83 83.5234 505.442 82.9175 504.515 82.7872C503.605 82.6594 503.075 83.1362 502.923 84.2177L500.892 98.6635C500.736 99.7794 501.112 100.401 502.022 100.529C502.949 100.659 503.491 100.167 503.648 99.0508L505.678 84.6049ZM506.4 102.877C506.928 101.236 507.455 99.6034 507.981 97.9792C508.507 96.355 509.034 94.7223 509.562 93.081C509.069 92.7315 508.728 92.2898 508.541 91.7557C508.37 91.2241 508.342 90.5549 508.455 89.7481L509.049 85.525C509.244 84.1345 509.682 83.1982 510.362 82.7162C511.062 82.2194 512.03 82.0578 513.266 82.2315L516.485 82.6839L513.507 103.876L511.55 103.601L512.9 93.9964L511.741 93.8336C511.535 93.8046 511.407 93.7779 511.358 93.7535L508.537 103.178L506.4 102.877ZM510.47 89.795C510.379 90.4473 510.42 90.9608 510.595 91.3355C510.787 91.7126 511.21 91.947 511.862 92.0387L513.149 92.2197L514.25 84.3916L512.988 84.2143C512.37 84.1274 511.913 84.2032 511.617 84.4417C511.321 84.6802 511.125 85.1342 511.031 85.8037L510.47 89.795ZM524.16 83.7624L523.881 85.7452L520.096 85.2132L519.05 92.655L520.44 92.8505C521.676 93.0242 522.535 93.4512 523.017 94.1317C523.517 94.8146 523.672 95.8255 523.484 97.1645L522.905 101.285C522.717 102.624 522.287 103.561 521.617 104.097C520.949 104.616 519.997 104.788 518.761 104.615L515.439 104.148L518.417 82.9554L524.16 83.7624ZM521.564 96.8158C521.735 95.597 521.271 94.9104 520.172 94.756L518.782 94.5605L517.671 102.466L519.036 102.658C520.152 102.814 520.796 102.275 520.97 101.039L521.564 96.8158ZM531.172 88.6605C531.261 88.0254 531.198 87.5438 530.981 87.2157C530.767 86.8705 530.351 86.6545 529.733 86.5677L528.394 86.3795L527.377 93.6153L528.742 93.8071C529.308 93.8867 529.749 93.7999 530.065 93.5467C530.381 93.2934 530.585 92.8407 530.676 92.1883L531.172 88.6605ZM523.737 105.314L526.716 84.1217L530.012 84.5849C531.248 84.7586 532.114 85.1955 532.611 85.8955C533.127 86.5808 533.291 87.5929 533.103 88.932L532.615 92.4082C532.427 93.7472 531.998 94.6762 531.33 95.195C530.662 95.7138 529.71 95.8863 528.474 95.7126L527.109 95.5208L525.694 105.589L523.737 105.314ZM531.546 106.412C532.075 104.77 532.602 103.138 533.128 101.513C533.653 99.8892 534.181 98.2564 534.709 96.6151C534.215 96.2656 533.875 95.8239 533.687 95.2899C533.517 94.7583 533.488 94.089 533.602 93.2822L534.195 89.0592C534.391 87.6687 534.829 86.7324 535.509 86.2503C536.209 85.7535 537.177 85.5919 538.413 85.7656L541.632 86.218L538.653 107.41L536.696 107.135L538.046 97.5306L536.888 97.3677C536.682 97.3388 536.554 97.3121 536.505 97.2877L533.684 106.712L531.546 106.412ZM535.617 93.3291C535.525 93.9814 535.567 94.495 535.742 94.8697C535.934 95.2468 536.356 95.4812 537.009 95.5728L538.296 95.7538L539.396 87.9257L538.134 87.7484C537.516 87.6616 537.059 87.7374 536.763 87.9758C536.467 88.2143 536.272 88.6683 536.178 89.3378L535.617 93.3291ZM547.229 98.4797C546.628 98.3953 546.185 98.1229 545.899 97.6627C545.634 97.1877 545.543 96.6497 545.627 96.0489C545.712 95.4481 545.945 94.9731 546.326 94.6241C546.728 94.2604 547.229 94.1207 547.83 94.2052C548.413 94.2872 548.839 94.5572 549.108 95.015C549.395 95.4581 549.497 95.98 549.413 96.5809C549.328 97.1817 549.084 97.6726 548.68 98.0535C548.296 98.4197 547.813 98.5617 547.229 98.4797Z" fill="#F0EFEC"/>
<path d="M557.141 103.733C557.056 104.334 557.13 104.808 557.361 105.156C557.595 105.486 557.99 105.725 558.547 105.874L560.327 93.2045C559.197 93.1507 558.549 93.716 558.382 94.9005L557.141 103.733ZM560.375 106.131C560.934 106.139 561.371 106.017 561.687 105.763C562.005 105.493 562.206 105.057 562.291 104.457L563.532 95.6243C563.699 94.4398 563.24 93.7189 562.156 93.4614L560.375 106.131ZM556.665 94.7904C556.751 94.1724 556.879 93.6389 557.047 93.1899C557.218 92.7237 557.446 92.3444 557.732 92.052C558.035 91.762 558.414 91.5614 558.867 91.45C559.323 91.3215 559.88 91.2773 560.54 91.3175L560.877 88.9227L562.808 89.1942L562.471 91.5889C563.116 91.7321 563.64 91.9283 564.043 92.1774C564.448 92.4094 564.748 92.7054 564.942 93.0653C565.154 93.4277 565.277 93.8564 565.313 94.3516C565.351 94.8295 565.326 95.3775 565.239 95.9955L564.034 104.57C563.947 105.188 563.82 105.722 563.652 106.171C563.484 106.62 563.248 106.989 562.944 107.279C562.658 107.572 562.287 107.782 561.832 107.911C561.378 108.022 560.822 108.058 560.162 108.018L559.829 110.387L557.898 110.115L558.231 107.746C557.586 107.603 557.061 107.415 556.656 107.183C556.253 106.934 555.946 106.628 555.734 106.266C555.54 105.906 555.424 105.487 555.386 105.009C555.348 104.531 555.373 103.983 555.459 103.365L556.665 94.7904ZM567.216 93.2536C567.554 90.8502 568.83 89.8042 571.044 90.1154C573.276 90.429 574.223 91.7875 573.885 94.1909L571.855 108.637C571.517 111.04 570.233 112.085 568.001 111.771C565.786 111.46 564.848 110.103 565.186 107.699L567.216 93.2536ZM571.928 93.9159C572.08 92.8343 571.693 92.2285 570.766 92.0982C569.856 91.9703 569.325 92.4471 569.173 93.5286L567.143 107.974C566.986 109.09 567.362 109.712 568.272 109.84C569.199 109.97 569.741 109.478 569.898 108.362L571.928 93.9159ZM580.574 95.6036C580.663 94.9684 580.6 94.4868 580.383 94.1588C580.169 93.8136 579.753 93.5976 579.135 93.5107L577.796 93.3226L576.779 100.558L578.144 100.75C578.711 100.83 579.152 100.743 579.467 100.49C579.783 100.237 579.987 99.7837 580.078 99.1314L580.574 95.6036ZM573.139 112.257L576.118 91.0648L579.414 91.528C580.65 91.7017 581.516 92.1386 582.013 92.8386C582.529 93.5239 582.694 94.536 582.505 95.875L582.017 99.3513C581.829 100.69 581.401 101.619 580.732 102.138C580.064 102.657 579.112 102.829 577.876 102.656L576.511 102.464L575.096 112.532L573.139 112.257ZM585.599 110.752C585.37 111.385 585.133 111.894 584.886 112.28C584.656 112.668 584.37 112.96 584.027 113.157C583.685 113.354 583.258 113.46 582.748 113.476C582.256 113.495 581.64 113.452 580.902 113.348L580.619 113.308L580.894 111.351L581.177 111.391C581.52 111.439 581.832 111.466 582.111 111.47C582.391 111.474 582.642 111.431 582.865 111.339C583.088 111.248 583.275 111.099 583.426 110.893C583.595 110.689 583.748 110.413 583.884 110.065L584.875 107.315L583.494 92.1014L585.554 92.3909L586.19 103.562L589.829 92.9917L591.76 93.2631L585.599 110.752ZM597.919 115.74L598.82 109.328C599.039 107.766 599.254 106.238 599.464 104.744C599.691 103.253 599.923 101.728 600.16 100.168L595.678 115.425L593.953 115.182L593.877 99.285C593.674 100.85 593.468 102.379 593.258 103.872C593.066 105.368 592.859 106.897 592.64 108.459L591.739 114.871L589.936 114.618L592.915 93.4254L595.541 93.7945L595.454 110.667L600.022 94.4242L602.725 94.8042L599.747 115.997L597.919 115.74ZM608.249 107.056C607.648 106.971 607.205 106.699 606.919 106.239C606.654 105.764 606.563 105.226 606.647 104.625C606.732 104.024 606.965 103.549 607.346 103.2C607.748 102.836 608.249 102.697 608.85 102.781C609.433 102.863 609.859 103.133 610.127 103.591C610.415 104.034 610.517 104.556 610.433 105.157C610.348 105.758 610.104 106.248 609.7 106.629C609.316 106.996 608.832 107.138 608.249 107.056ZM613.745 117.964L614.292 114.076C614.379 113.458 614.472 112.919 614.571 112.461C614.671 112.002 614.811 111.566 614.991 111.154C615.189 110.744 615.448 110.334 615.768 109.924C616.088 109.514 616.503 109.056 617.012 108.55C617.684 107.874 618.237 107.304 618.67 106.84C619.103 106.375 619.45 105.96 619.711 105.594C619.975 105.211 620.168 104.836 620.29 104.468C620.414 104.082 620.511 103.641 620.581 103.143L620.9 100.877C621.059 99.7441 620.675 99.1124 619.748 98.9822C619.216 98.9074 618.835 99.0026 618.605 99.2679C618.392 99.5356 618.246 99.9527 618.166 100.519L617.652 104.176L615.721 103.904L616.235 100.248C616.418 98.9431 616.809 98.0351 617.406 97.5239C618.02 97.015 618.894 96.8402 620.027 96.9994C621.16 97.1586 621.958 97.5773 622.423 98.2553C622.891 98.9162 623.034 99.8904 622.853 101.178L622.52 103.547C622.438 104.131 622.31 104.664 622.137 105.147C621.967 105.614 621.746 106.064 621.475 106.499C621.221 106.936 620.915 107.365 620.558 107.788C620.204 108.193 619.803 108.618 619.355 109.063C618.729 109.658 618.228 110.174 617.851 110.611C617.477 111.031 617.185 111.427 616.975 111.801C616.765 112.174 616.605 112.563 616.496 112.967C616.406 113.357 616.324 113.819 616.249 114.351L615.974 116.308L620.634 116.963L620.363 118.894L613.745 117.964ZM622.773 119.233C623.186 116.297 623.674 113.757 624.238 111.613C624.821 109.455 625.402 107.628 625.98 106.134C626.577 104.625 627.132 103.416 627.645 102.508C628.174 101.602 628.592 100.934 628.898 100.504L624.057 99.824L624.335 97.8413L631.03 98.7822L630.773 100.61C630.028 101.801 629.345 103.053 628.723 104.366C628.118 105.682 627.567 107.11 627.07 108.65C626.593 110.176 626.158 111.84 625.765 113.64C625.374 115.423 625.029 117.379 624.73 119.508L622.773 119.233ZM637.549 121.309L638.928 111.499L636.199 111.115L634.82 120.926L632.863 120.651L635.841 99.4583L637.798 99.7334L636.47 109.184L639.2 109.567L640.528 100.117L642.485 100.392L639.506 121.584L637.549 121.309ZM643.762 104.011C644.1 101.608 645.376 100.562 647.591 100.873C649.823 101.187 650.77 102.545 650.432 104.949L648.402 119.395C648.064 121.798 646.779 122.843 644.547 122.529C642.333 122.218 641.394 120.861 641.732 118.457L643.762 104.011ZM648.475 104.674C648.627 103.592 648.239 102.986 647.312 102.856C646.402 102.728 645.871 103.205 645.719 104.287L643.689 118.732C643.532 119.848 643.909 120.47 644.819 120.598C645.746 120.728 646.288 120.235 646.444 119.12L648.475 104.674ZM649.197 122.946C649.725 121.305 650.252 119.672 650.778 118.048C651.304 116.424 651.831 114.791 652.359 113.15C651.865 112.8 651.525 112.359 651.337 111.825C651.167 111.293 651.139 110.624 651.252 109.817L651.845 105.594C652.041 104.203 652.479 103.267 653.159 102.785C653.859 102.288 654.827 102.127 656.063 102.3L659.282 102.753L656.304 123.945L654.347 123.67L655.697 114.065L654.538 113.902C654.332 113.873 654.204 113.847 654.155 113.822L651.334 123.247L649.197 122.946ZM653.267 109.864C653.176 110.516 653.217 111.03 653.392 111.404C653.584 111.781 654.006 112.016 654.659 112.108L655.946 112.289L657.046 104.46L655.785 104.283C655.167 104.196 654.71 104.272 654.413 104.511C654.117 104.749 653.922 105.203 653.828 105.873L653.267 109.864ZM666.956 103.831L666.678 105.814L662.893 105.282L661.847 112.724L663.237 112.919C664.473 113.093 665.332 113.52 665.814 114.201C666.313 114.883 666.469 115.894 666.281 117.233L665.702 121.353C665.514 122.692 665.084 123.63 664.414 124.166C663.746 124.685 662.794 124.857 661.558 124.684L658.236 124.217L661.214 103.024L666.956 103.831ZM664.36 116.885C664.532 115.666 664.068 114.979 662.969 114.825L661.579 114.629L660.468 122.535L661.833 122.726C662.948 122.883 663.593 122.344 663.767 121.108L664.36 116.885ZM673.969 108.729C674.058 108.094 673.995 107.613 673.778 107.285C673.564 106.939 673.148 106.723 672.53 106.637L671.191 106.448L670.174 113.684L671.539 113.876C672.105 113.956 672.546 113.869 672.862 113.616C673.178 113.362 673.381 112.909 673.473 112.257L673.969 108.729ZM666.534 125.383L669.513 104.191L672.809 104.654C674.045 104.827 674.911 105.264 675.408 105.964C675.924 106.65 676.088 107.662 675.9 109.001L675.412 112.477C675.223 113.816 674.795 114.745 674.127 115.264C673.459 115.783 672.507 115.955 671.271 115.781L669.906 115.59L668.491 125.658L666.534 125.383ZM674.343 126.48C674.872 124.839 675.399 123.206 675.925 121.582C676.45 119.958 676.977 118.325 677.506 116.684C677.012 116.334 676.672 115.893 676.484 115.359C676.314 114.827 676.285 114.158 676.399 113.351L676.992 109.128C677.188 107.738 677.625 106.801 678.306 106.319C679.006 105.822 679.974 105.661 681.21 105.834L684.429 106.287L681.45 127.479L679.493 127.204L680.843 117.599L679.684 117.437C679.478 117.408 679.351 117.381 679.302 117.357L676.481 126.781L674.343 126.48ZM678.414 113.398C678.322 114.05 678.364 114.564 678.539 114.939C678.731 115.316 679.153 115.55 679.805 115.642L681.093 115.823L682.193 107.995L680.931 107.817C680.313 107.73 679.856 107.806 679.56 108.045C679.264 108.283 679.069 108.737 678.975 109.407L678.414 113.398ZM690.026 118.549C689.425 118.464 688.982 118.192 688.696 117.732C688.43 117.257 688.34 116.719 688.424 116.118C688.509 115.517 688.742 115.042 689.123 114.693C689.525 114.329 690.026 114.19 690.626 114.274C691.21 114.356 691.636 114.626 691.904 115.084C692.192 115.527 692.294 116.049 692.209 116.65C692.125 117.251 691.881 117.741 691.477 118.122C691.093 118.489 690.609 118.631 690.026 118.549Z" fill="#F0EFEC"/>
<path d="M699.939 123.802C699.854 124.403 699.928 124.877 700.159 125.224C700.393 125.555 700.788 125.794 701.345 125.942L703.125 113.273C701.995 113.22 701.346 113.785 701.18 114.969L699.939 123.802ZM703.173 126.199C703.732 126.208 704.169 126.086 704.485 125.832C704.803 125.562 705.004 125.126 705.089 124.525L706.33 115.693C706.496 114.509 706.038 113.788 704.953 113.53L703.173 126.199ZM699.462 114.859C699.549 114.241 699.677 113.708 699.845 113.259C700.015 112.793 700.244 112.413 700.53 112.121C700.833 111.831 701.212 111.63 701.665 111.519C702.121 111.39 702.678 111.346 703.338 111.386L703.674 108.992L705.606 109.263L705.269 111.658C705.914 111.801 706.438 111.997 706.841 112.246C707.246 112.478 707.545 112.774 707.74 113.134C707.952 113.497 708.075 113.925 708.111 114.42C708.149 114.898 708.124 115.446 708.037 116.064L706.832 124.639C706.745 125.257 706.618 125.791 706.45 126.24C706.281 126.689 706.046 127.058 705.742 127.348C705.456 127.641 705.085 127.851 704.63 127.98C704.176 128.091 703.62 128.127 702.96 128.086L702.627 130.455L700.696 130.184L701.029 127.815C700.384 127.672 699.859 127.484 699.454 127.252C699.051 127.003 698.744 126.697 698.532 126.335C698.338 125.975 698.222 125.556 698.184 125.078C698.146 124.6 698.17 124.052 698.257 123.434L699.462 114.859ZM710.014 113.322C710.352 110.919 711.628 109.873 713.842 110.184C716.074 110.498 717.021 111.856 716.683 114.26L714.653 128.706C714.315 131.109 713.03 132.154 710.799 131.84C708.584 131.529 707.646 130.172 707.984 127.768L710.014 113.322ZM714.726 113.985C714.878 112.903 714.491 112.297 713.564 112.167C712.654 112.039 712.123 112.516 711.971 113.597L709.941 128.043C709.784 129.159 710.16 129.781 711.07 129.909C711.997 130.039 712.539 129.546 712.696 128.431L714.726 113.985ZM723.372 115.672C723.461 115.037 723.398 114.556 723.181 114.228C722.967 113.882 722.551 113.666 721.933 113.58L720.594 113.391L719.577 120.627L720.942 120.819C721.508 120.899 721.949 120.812 722.265 120.559C722.581 120.305 722.785 119.853 722.876 119.2L723.372 115.672ZM715.937 132.326L718.916 111.134L722.212 111.597C723.448 111.771 724.314 112.207 724.811 112.907C725.327 113.593 725.491 114.605 725.303 115.944L724.815 119.42C724.627 120.759 724.198 121.688 723.53 122.207C722.862 122.726 721.91 122.898 720.674 122.725L719.309 122.533L717.894 132.601L715.937 132.326ZM728.397 130.821C728.168 131.454 727.93 131.963 727.684 132.349C727.454 132.737 727.168 133.029 726.825 133.226C726.482 133.423 726.056 133.529 725.546 133.545C725.053 133.563 724.438 133.521 723.7 133.417L723.417 133.377L723.692 131.42L723.975 131.46C724.318 131.508 724.63 131.534 724.909 131.539C725.189 131.543 725.44 131.5 725.663 131.408C725.886 131.317 726.073 131.168 726.224 130.962C726.393 130.758 726.546 130.482 726.682 130.134L727.672 127.384L726.292 112.17L728.352 112.46L728.988 123.63L732.626 113.061L734.558 113.332L728.397 130.821ZM740.717 135.809L741.618 129.397C741.837 127.835 742.052 126.307 742.262 124.813C742.489 123.322 742.721 121.797 742.958 120.237L738.476 135.494L736.751 135.251L736.675 119.354C736.472 120.918 736.266 122.448 736.056 123.941C735.863 125.437 735.657 126.966 735.438 128.528L734.537 134.94L732.734 134.687L735.712 113.494L738.339 113.863L738.252 130.736L742.82 114.493L745.523 114.873L742.545 136.065L740.717 135.809ZM751.047 127.124C750.446 127.04 750.003 126.768 749.717 126.307C749.451 125.832 749.361 125.294 749.445 124.694C749.53 124.093 749.763 123.618 750.144 123.269C750.545 122.905 751.047 122.765 751.647 122.85C752.231 122.932 752.657 123.202 752.925 123.66C753.213 124.103 753.315 124.625 753.23 125.226C753.146 125.826 752.902 126.317 752.498 126.698C752.114 127.064 751.63 127.206 751.047 127.124ZM756.543 138.033L757.09 134.145C757.176 133.527 757.27 132.988 757.369 132.529C757.469 132.071 757.609 131.635 757.789 131.223C757.987 130.813 758.246 130.403 758.566 129.993C758.886 129.583 759.301 129.125 759.809 128.619C760.482 127.943 761.035 127.373 761.468 126.908C761.901 126.444 762.248 126.029 762.509 125.663C762.773 125.28 762.966 124.905 763.088 124.536C763.212 124.151 763.309 123.71 763.379 123.212L763.697 120.946C763.857 119.813 763.473 119.181 762.546 119.051C762.014 118.976 761.633 119.071 761.403 119.337C761.19 119.604 761.044 120.022 760.964 120.588L760.45 124.245L758.519 123.973L759.033 120.317C759.216 119.012 759.607 118.104 760.204 117.593C760.818 117.084 761.691 116.909 762.824 117.068C763.957 117.227 764.756 117.646 765.221 118.324C765.689 118.985 765.832 119.959 765.651 121.247L765.318 123.616C765.236 124.199 765.108 124.733 764.935 125.216C764.765 125.682 764.544 126.133 764.273 126.567C764.019 127.004 763.713 127.434 763.356 127.857C763.002 128.262 762.601 128.687 762.153 129.132C761.527 129.726 761.025 130.242 760.649 130.68C760.275 131.1 759.983 131.496 759.773 131.869C759.563 132.243 759.403 132.632 759.294 133.036C759.204 133.426 759.121 133.887 759.047 134.42L758.772 136.377L763.432 137.032L763.161 138.963L756.543 138.033ZM765.571 139.302C765.984 136.366 766.472 133.826 767.036 131.682C767.619 129.524 768.2 127.697 768.777 126.203C769.375 124.694 769.93 123.485 770.442 122.577C770.972 121.671 771.39 121.003 771.695 120.573L766.854 119.893L767.133 117.91L773.828 118.851L773.571 120.679C772.826 121.87 772.143 123.122 771.52 124.435C770.915 125.75 770.365 127.178 769.868 128.719C769.391 130.245 768.956 131.908 768.563 133.709C768.172 135.492 767.827 137.448 767.528 139.577L765.571 139.302ZM780.347 141.378L781.726 131.567L778.996 131.184L777.618 140.995L775.661 140.72L778.639 119.527L780.596 119.802L779.268 129.253L781.997 129.636L783.326 120.186L785.283 120.461L782.304 141.653L780.347 141.378ZM786.56 124.08C786.898 121.677 788.174 120.631 790.389 120.942C792.62 121.256 793.567 122.614 793.23 125.018L791.199 139.464C790.862 141.867 789.577 142.912 787.345 142.598C785.131 142.287 784.192 140.93 784.53 138.526L786.56 124.08ZM791.273 124.743C791.425 123.661 791.037 123.055 790.11 122.925C789.2 122.797 788.669 123.274 788.517 124.355L786.487 138.801C786.33 139.917 786.707 140.539 787.617 140.667C788.544 140.797 789.086 140.304 789.242 139.188L791.273 124.743ZM791.994 143.015C792.523 141.374 793.05 139.741 793.576 138.117C794.102 136.493 794.629 134.86 795.157 133.219C794.663 132.869 794.323 132.427 794.135 131.893C793.965 131.362 793.936 130.693 794.05 129.886L794.643 125.663C794.839 124.272 795.277 123.336 795.957 122.854C796.657 122.357 797.625 122.195 798.861 122.369L802.08 122.822L799.102 144.014L797.145 143.739L798.494 134.134L797.336 133.971C797.13 133.942 797.002 133.916 796.953 133.891L794.132 143.316L791.994 143.015ZM796.065 129.933C795.973 130.585 796.015 131.099 796.19 131.473C796.382 131.85 796.804 132.085 797.457 132.176L798.744 132.357L799.844 124.529L798.583 124.352C797.964 124.265 797.507 124.341 797.211 124.579C796.915 124.818 796.72 125.272 796.626 125.941L796.065 129.933ZM809.754 123.9L809.476 125.883L805.69 125.351L804.644 132.793L806.035 132.988C807.271 133.162 808.13 133.589 808.612 134.269C809.111 134.952 809.267 135.963 809.079 137.302L808.5 141.422C808.311 142.761 807.882 143.699 807.212 144.235C806.543 144.754 805.591 144.926 804.355 144.752L801.034 144.286L804.012 123.093L809.754 123.9ZM807.158 136.954C807.33 135.735 806.866 135.048 805.767 134.894L804.377 134.698L803.266 142.604L804.63 142.795C805.746 142.952 806.391 142.413 806.565 141.177L807.158 136.954ZM816.767 128.798C816.856 128.163 816.792 127.681 816.576 127.353C816.362 127.008 815.946 126.792 815.328 126.705L813.989 126.517L812.972 133.753L814.337 133.945C814.903 134.024 815.344 133.938 815.66 133.684C815.976 133.431 816.179 132.978 816.271 132.326L816.767 128.798ZM809.332 145.452L812.31 124.259L815.606 124.723C816.842 124.896 817.709 125.333 818.206 126.033C818.722 126.718 818.886 127.731 818.698 129.07L818.209 132.546C818.021 133.885 817.593 134.814 816.925 135.333C816.257 135.851 815.305 136.024 814.069 135.85L812.704 135.658L811.289 145.727L809.332 145.452ZM817.141 146.549C817.669 144.908 818.196 143.275 818.722 141.651C819.248 140.027 819.775 138.394 820.304 136.753C819.81 136.403 819.469 135.962 819.282 135.428C819.112 134.896 819.083 134.227 819.196 133.42L819.79 129.197C819.985 127.806 820.423 126.87 821.104 126.388C821.804 125.891 822.772 125.73 824.008 125.903L827.227 126.356L824.248 147.548L822.291 147.273L823.641 137.668L822.482 137.505C822.276 137.476 822.149 137.45 822.1 137.425L819.278 146.85L817.141 146.549ZM821.212 133.467C821.12 134.119 821.162 134.633 821.337 135.007C821.529 135.384 821.951 135.619 822.603 135.711L823.891 135.891L824.991 128.063L823.729 127.886C823.111 127.799 822.654 127.875 822.358 128.114C822.062 128.352 821.867 128.806 821.773 129.476L821.212 133.467ZM832.824 138.617C832.223 138.533 831.78 138.261 831.494 137.8C831.228 137.325 831.138 136.787 831.222 136.187C831.307 135.586 831.54 135.111 831.921 134.762C832.322 134.398 832.823 134.258 833.424 134.343C834.008 134.425 834.434 134.695 834.702 135.153C834.99 135.596 835.092 136.118 835.007 136.719C834.923 137.319 834.679 137.81 834.275 138.191C833.891 138.557 833.407 138.699 832.824 138.617Z" fill="#F0EFEC"/>
</g>
<defs>
<clipPath id="clip0_21_1781">
<rect width="822.211" height="41.4013" fill="white" transform="translate(5.76172 0.000488281) rotate(8)"/>
</clipPath>
</defs>
</svg>
