<svg width="70" height="70" viewBox="0 0 70 70" fill="none" xmlns="http://www.w3.org/2000/svg">
<rect x="0.75" y="0.75" width="68.5" height="68.5" rx="34.25" stroke="#020204" stroke-width="1.5"/>
<g clip-path="url(#clip0_550_41)">
<path d="M45.1571 45.1569C44.9813 45.3327 44.7428 45.4315 44.4942 45.4315C44.2456 45.4315 44.0071 45.3327 43.8313 45.1569L34.7715 36.0971L25.7117 45.1569C25.5359 45.3327 25.2974 45.4315 25.0488 45.4315C24.8001 45.4315 24.5617 45.3327 24.3859 45.1569C24.21 44.9811 24.1113 44.7426 24.1113 44.494C24.1113 44.2453 24.21 44.0069 24.3859 43.8311L33.4457 34.7713L24.3859 25.7115C24.21 25.5356 24.1113 25.2972 24.1113 25.0485C24.1113 24.7999 24.21 24.5614 24.3859 24.3856C24.5617 24.2098 24.8001 24.111 25.0488 24.111C25.2974 24.111 25.5359 24.2098 25.7117 24.3856L34.7715 33.4454L43.8313 24.3856C44.0071 24.2098 44.2456 24.111 44.4942 24.111C44.7428 24.111 44.9813 24.2098 45.1571 24.3856C45.3329 24.5614 45.4317 24.7999 45.4317 25.0485C45.4317 25.2972 45.3329 25.5356 45.1571 25.7115L36.0973 34.7713L45.1571 43.8311C45.3329 44.0069 45.4317 44.2453 45.4317 44.494C45.4317 44.7426 45.3329 44.9811 45.1571 45.1569Z" fill="#020204"/>
</g>
<defs>
<clipPath id="clip0_550_41">
<rect width="40" height="40" fill="white" transform="translate(15 15)"/>
</clipPath>
</defs>
</svg>
