<svg width="1263" height="240" viewBox="0 0 1263 240" fill="none" xmlns="http://www.w3.org/2000/svg">
<g clip-path="url(#clip0_0_43)">
<rect width="1264.78" height="64" transform="translate(9.60742 0.299805) rotate(8)" fill="#CA252A"/>
<path d="M-19.4683 23.196L-21.3778 36.7825C-21.6394 38.6442 -20.93 39.6325 -19.215 40.0755L-16.4761 20.5871C-18.2412 20.5006 -19.2122 21.3739 -19.4683 23.196ZM-13.6637 20.9823L-16.4027 40.4708C-14.6716 40.5121 -13.7173 39.7576 -13.4556 37.8959L-11.5462 24.3094C-11.2901 22.4873 -11.9431 21.3857 -13.6637 20.9823ZM-23.9642 36.217L-22.1104 23.0267C-21.5705 19.1844 -20.2338 17.4334 -16.1489 17.6843L-15.6312 14.0006L-12.6604 14.4181L-13.1781 18.1019C-9.18236 18.9866 -8.38008 21.0382 -8.92007 24.8804L-10.7739 38.0708C-11.3083 41.8734 -12.645 43.6244 -16.7298 43.3735L-17.242 47.0177L-20.2128 46.6002L-19.7006 42.956C-23.6964 42.0713 -24.4987 40.0197 -23.9642 36.217ZM-9.00245 42.8842L-5.87941 20.6626C-5.36168 16.9788 -3.39678 15.3564 0.00974581 15.8352C3.45588 16.3195 4.89749 18.4206 4.37977 22.1044L1.25673 44.326C0.739002 48.0098 -1.2259 49.6321 -4.67204 49.1478C-8.07856 48.6691 -9.52017 46.568 -9.00245 42.8842ZM-1.75369 43.9029L1.36936 21.6813C1.60317 20.0177 1.00708 19.0856 -0.418907 18.8852C-1.80528 18.6904 -2.63518 19.422 -2.86899 21.0857L-5.99204 43.3073C-6.23141 45.0105 -5.64089 45.9822 -4.25452 46.177C-2.82853 46.3774 -1.99307 45.6062 -1.75369 43.9029ZM13.9064 29.7042L14.669 24.2775C14.9418 22.3366 14.3568 21.3254 12.4555 21.0582L10.3958 20.7687L8.83147 31.8993L10.9308 32.1943C12.6737 32.4393 13.6224 31.7244 13.9064 29.7042ZM6.24285 50.3183L3.23244 49.8952L7.81402 17.2956L12.8842 18.0081C16.6868 18.5426 18.2188 20.5755 17.6398 24.6951L16.8883 30.0425C16.3093 34.162 14.3215 35.6599 10.5189 35.1255L8.41952 34.8305L6.24285 50.3183ZM31.8757 20.6772L22.3993 47.5802C21.0448 51.4695 19.7284 52.2135 15.1732 51.5733L14.7375 51.5121L15.1606 48.5017L15.5963 48.5629C17.7353 48.8635 18.9681 48.7137 19.7608 46.5227L21.2842 42.2935L19.1606 18.8902L22.3295 19.3356L23.3075 36.5189L28.9049 20.2597L31.8757 20.6772ZM44.1621 55.6475L41.3497 55.2522L42.7359 45.3891C43.4095 40.5963 44.0837 36.0862 44.7969 31.2989L37.9036 54.7679L35.2497 54.3949L35.1319 29.9405C34.4979 34.739 33.9029 39.2602 33.2293 44.0531L31.8431 53.9162L29.0704 53.5265L33.652 20.9268L37.6923 21.4947L37.5589 47.4487L44.5845 22.4633L48.7436 23.0478L44.1621 55.6475ZM57.2401 41.8937C55.3784 41.6321 54.5148 40.0162 54.7765 38.1545C55.0381 36.2928 56.3025 35.0567 58.1642 35.3183C59.9466 35.5689 60.8609 37.1111 60.5993 38.9728C60.3376 40.8345 59.0225 42.1442 57.2401 41.8937ZM75.8751 60.1044L65.6951 58.6737L66.5357 52.6925C67.0702 48.8899 67.5701 47.3444 70.7195 44.1921C74.9017 40.0135 75.7762 38.965 76.2104 35.8753L76.7003 32.3896C76.9452 30.6467 76.3547 29.6751 74.9287 29.4746C73.3047 29.2464 72.7409 30.0962 72.496 31.8391L71.7055 37.4638L68.7347 37.0463L69.5252 31.4216C70.0874 27.4209 71.8716 25.9347 75.3574 26.4246C78.8431 26.9145 80.2618 28.8912 79.7051 32.8523L79.193 36.4965C78.692 40.0614 77.0904 42.2599 74.3247 44.9815C70.4581 48.639 70.0082 49.8279 69.5462 53.1156L69.1231 56.126L76.2926 57.1336L75.8751 60.1044ZM82.5928 61.0486L79.5824 60.6255C82.1154 42.6026 87.1371 34.4623 89.0036 31.8163L81.5567 30.7697L81.9854 27.7197L92.2842 29.1671L91.8889 31.9794C87.3065 39.2929 84.4355 47.9374 82.5928 61.0486ZM105.323 64.243L102.312 63.8199L104.433 48.7282L100.234 48.1382L98.1134 63.2298L95.103 62.8067L99.6846 30.2071L102.695 30.6302L100.652 45.1673L104.851 45.7574L106.894 31.2203L109.904 31.6434L105.323 64.243ZM108.747 59.4327L111.87 37.2111C112.387 33.5273 114.352 31.905 117.759 32.3838C121.205 32.8681 122.647 34.9692 122.129 38.653L119.006 60.8746C118.488 64.5584 116.523 66.1807 113.077 65.6964C109.67 65.2176 108.229 63.1165 108.747 59.4327ZM115.995 60.4515L119.118 38.2299C119.352 36.5662 118.756 35.6342 117.33 35.4338C115.944 35.2389 115.114 35.9706 114.88 37.6342L111.757 59.8558C111.518 61.5591 112.108 62.5307 113.495 62.7256C114.921 62.926 115.756 62.1547 115.995 60.4515ZM123.517 66.8L120.229 66.338C121.824 61.311 123.498 56.2953 125.094 51.2683C123.586 50.2083 123.045 48.5973 123.39 46.1414L124.303 39.6453C124.905 35.3673 126.989 34.0445 130.792 34.5789L135.743 35.2748L131.161 67.8744L128.151 67.4513L130.227 52.6765L128.445 52.426C128.168 52.3871 127.97 52.3592 127.856 52.3029L123.517 66.8ZM127.353 40.0739L126.491 46.2136C126.212 48.1941 126.651 49.3867 128.631 49.6651L130.612 49.9434L132.304 37.9017L130.363 37.629C128.462 37.3618 127.643 38.0142 127.353 40.0739ZM138.715 35.6925L147.548 36.9339L147.12 39.984L141.297 39.1656L139.688 50.6131L141.827 50.9137C145.63 51.4482 147.088 53.4304 146.509 57.5499L145.618 63.8876C145.039 68.0071 143.046 69.5447 139.243 69.0103L134.133 68.2921L138.715 35.6925ZM142.642 63.5097L143.555 57.0136C143.822 55.1122 143.118 54.0843 141.415 53.8449L139.276 53.5443L137.567 65.7048L139.666 65.9998C141.409 66.2448 142.369 65.4506 142.642 63.5097ZM157.573 49.8952L158.335 44.4685C158.608 42.5276 158.023 41.5163 156.122 41.2491L154.062 40.9596L152.498 52.0903L154.597 52.3853C156.34 52.6302 157.289 51.9153 157.573 49.8952ZM149.909 70.5092L146.899 70.0862L151.48 37.4865L156.55 38.1991C160.353 38.7335 161.885 40.7665 161.306 44.886L160.555 50.2335C159.976 54.353 157.988 55.8509 154.185 55.3165L152.086 55.0214L149.909 70.5092ZM162.199 72.2365L158.911 71.7744C160.506 66.7475 162.181 61.7317 163.776 56.7048C162.269 55.6447 161.728 54.0337 162.073 51.5779L162.986 45.0817C163.587 40.8038 165.671 39.481 169.474 40.0154L174.425 40.7113L169.844 73.3109L166.833 72.8878L168.91 58.113L167.127 57.8625C166.85 57.8235 166.652 57.7957 166.539 57.7394L162.199 72.2365ZM166.036 45.5104L165.173 51.65C164.895 53.6306 165.333 54.8232 167.313 55.1015L169.294 55.3799L170.986 43.3382L169.045 43.0654C167.144 42.7982 166.325 43.4506 166.036 45.5104ZM183.035 59.5731C181.173 59.3114 180.31 57.6955 180.571 55.8338C180.833 53.9721 182.097 52.736 183.959 52.9977C185.742 53.2482 186.656 54.7904 186.394 56.6521C186.133 58.5138 184.818 59.8236 183.035 59.5731Z" fill="#F0EFEC"/>
<path d="M200.372 54.0925L198.462 67.679C198.2 69.5407 198.91 70.529 200.625 70.972L203.364 51.4835C201.599 51.397 200.628 52.2704 200.372 54.0925ZM206.176 51.8788L203.437 71.3673C205.168 71.4086 206.123 70.6541 206.384 68.7924L208.294 55.2059C208.55 53.3838 207.897 52.2822 206.176 51.8788ZM195.876 67.1135L197.729 53.9231C198.269 50.0809 199.606 48.3299 203.691 48.5808L204.209 44.897L207.179 45.3146L206.662 48.9984C210.657 49.8831 211.46 51.9347 210.92 55.7769L209.066 68.9673C208.532 72.7699 207.195 74.5209 203.11 74.27L202.598 77.9142L199.627 77.4967L200.139 73.8525C196.143 72.9678 195.341 70.9161 195.876 67.1135ZM210.837 73.7807L213.96 51.5591C214.478 47.8753 216.443 46.2529 219.85 46.7317C223.296 47.216 224.737 49.3171 224.22 53.0009L221.097 75.2225C220.579 78.9063 218.614 80.5286 215.168 80.0443C211.761 79.5655 210.32 77.4645 210.837 73.7807ZM218.086 74.7994L221.209 52.5778C221.443 50.9142 220.847 49.9821 219.421 49.7817C218.035 49.5869 217.205 50.3185 216.971 51.9821L213.848 74.2038C213.608 75.907 214.199 76.8787 215.585 77.0735C217.011 77.2739 217.847 76.5027 218.086 74.7994ZM233.746 60.6007L234.509 55.174C234.782 53.2331 234.197 52.2218 232.295 51.9546L230.236 51.6652L228.671 62.7958L230.771 63.0908C232.514 63.3358 233.462 62.6208 233.746 60.6007ZM226.083 81.2148L223.072 80.7917L227.654 48.192L232.724 48.9046C236.527 49.439 238.059 51.472 237.48 55.5915L236.728 60.939C236.149 65.0585 234.161 66.5564 230.359 66.022L228.259 65.727L226.083 81.2148ZM251.716 51.5737L242.239 78.4766C240.885 82.366 239.568 83.11 235.013 82.4698L234.577 82.4086L235 79.3982L235.436 79.4594C237.575 79.76 238.808 79.6102 239.601 77.4191L241.124 73.19L239 49.7867L242.169 50.2321L243.147 67.4154L248.745 51.1562L251.716 51.5737ZM264.002 86.544L261.19 86.1487L262.576 76.2856C263.249 71.4927 263.924 66.9827 264.637 62.1953L257.743 85.6644L255.09 85.2914L254.972 60.837C254.338 65.6355 253.743 70.1567 253.069 74.9496L251.683 84.8126L248.91 84.423L253.492 51.8233L257.532 52.3912L257.399 78.3452L264.424 53.3598L268.583 53.9443L264.002 86.544ZM277.08 72.7902C275.218 72.5286 274.355 70.9127 274.616 69.051C274.878 67.1892 276.142 65.9532 278.004 66.2148C279.786 66.4653 280.701 68.0076 280.439 69.8693C280.177 71.731 278.862 73.0407 277.08 72.7902ZM295.715 91.0009L285.535 89.5702L286.376 83.589C286.91 79.7864 287.41 78.2409 290.559 75.0885C294.742 70.9099 295.616 69.8614 296.05 66.7718L296.54 63.2861C296.785 61.5432 296.195 60.5715 294.769 60.3711C293.145 60.1429 292.581 60.9927 292.336 62.7356L291.545 68.3603L288.575 67.9428L289.365 62.3181C289.927 58.3174 291.711 56.8312 295.197 57.3211C298.683 57.811 300.102 59.7877 299.545 63.7488L299.033 67.3929C298.532 70.9579 296.93 73.1564 294.165 75.878C290.298 79.5354 289.848 80.7244 289.386 84.0121L288.963 87.0225L296.132 88.0301L295.715 91.0009ZM302.433 91.945L299.422 91.522C301.955 73.4991 306.977 65.3588 308.843 62.7128L301.397 61.6662L301.825 58.6162L312.124 60.0636L311.729 62.8759C307.146 70.1893 304.275 78.8339 302.433 91.945ZM325.162 95.1395L322.152 94.7164L324.273 79.6247L320.074 79.0346L317.953 94.1263L314.943 93.7032L319.524 61.1036L322.535 61.5267L320.492 76.0638L324.691 76.6539L326.734 62.1168L329.744 62.5399L325.162 95.1395ZM328.586 90.3292L331.709 68.1076C332.227 64.4238 334.192 62.8015 337.599 63.2802C341.045 63.7646 342.486 65.8656 341.969 69.5494L338.846 91.7711C338.328 95.4549 336.363 97.0772 332.917 96.5929C329.51 96.1141 328.069 94.013 328.586 90.3292ZM335.835 91.348L338.958 69.1264C339.192 67.4627 338.596 66.5307 337.17 66.3303C335.784 66.1354 334.954 66.867 334.72 68.5307L331.597 90.7523C331.357 92.4556 331.948 93.4272 333.334 93.6221C334.76 93.8225 335.596 93.0512 335.835 91.348ZM343.356 97.6965L340.069 97.2344C341.664 92.2075 343.338 87.1917 344.933 82.1648C343.426 81.1047 342.885 79.4938 343.23 77.0379L344.143 70.5417C344.745 66.2638 346.829 64.941 350.632 65.4754L355.583 66.1713L351.001 98.7709L347.991 98.3478L350.067 83.573L348.285 83.3225C348.008 83.2836 347.81 83.2557 347.696 83.1994L343.356 97.6965ZM347.193 70.9704L346.33 77.1101C346.052 79.0906 346.49 80.2832 348.471 80.5615L350.451 80.8399L352.144 68.7982L350.203 68.5255C348.302 68.2582 347.483 68.9106 347.193 70.9704ZM358.555 66.589L367.388 67.8304L366.959 70.8804L361.137 70.0621L359.528 81.5096L361.667 81.8102C365.469 82.3446 366.928 84.3269 366.349 88.4464L365.458 94.7841C364.879 98.9036 362.886 100.441 359.083 99.9067L353.973 99.1886L358.555 66.589ZM362.482 94.4062L363.395 87.91C363.662 86.0087 362.958 84.9808 361.255 84.7414L359.116 84.4408L357.407 96.6013L359.506 96.8963C361.249 97.1413 362.209 96.3471 362.482 94.4062ZM377.412 80.7917L378.175 75.365C378.448 73.4241 377.863 72.4128 375.962 72.1456L373.902 71.8561L372.338 82.9867L374.437 83.2818C376.18 83.5267 377.129 82.8118 377.412 80.7917ZM369.749 101.406L366.739 100.983L371.32 68.383L376.39 69.0956C380.193 69.63 381.725 71.663 381.146 75.7825L380.394 81.13C379.815 85.2495 377.828 86.7474 374.025 86.213L371.926 85.9179L369.749 101.406ZM382.039 103.133L378.751 102.671C380.346 97.644 382.021 92.6282 383.616 87.6013C382.109 86.5412 381.568 84.9302 381.913 82.4744L382.826 75.9782C383.427 71.7002 385.511 70.3775 389.314 70.9119L394.265 71.6077L389.684 104.207L386.673 103.784L388.75 89.0095L386.967 88.759C386.69 88.72 386.492 88.6922 386.379 88.6359L382.039 103.133ZM385.876 76.4068L385.013 82.5465C384.734 84.527 385.173 85.7196 387.153 85.998L389.134 86.2763L390.826 74.2347L388.885 73.9619C386.984 73.6947 386.165 74.3471 385.876 76.4068ZM402.875 90.4695C401.013 90.2079 400.15 88.592 400.411 86.7303C400.673 84.8686 401.937 83.6325 403.799 83.8942C405.581 84.1447 406.496 85.6869 406.234 87.5486C405.972 89.4103 404.657 90.7201 402.875 90.4695Z" fill="#F0EFEC"/>
<path d="M420.21 84.989L418.301 98.5755C418.039 100.437 418.749 101.426 420.464 101.869L423.203 82.38C421.437 82.2935 420.466 83.1669 420.21 84.989ZM426.015 82.7753L423.276 102.264C425.007 102.305 425.961 101.551 426.223 99.6888L428.133 86.1024C428.389 84.2803 427.736 83.1787 426.015 82.7753ZM415.714 98.01L417.568 84.8196C418.108 80.9774 419.445 79.2264 423.53 79.4773L424.048 75.7935L427.018 76.211L426.501 79.8948C430.496 80.7795 431.299 82.8312 430.759 86.6734L428.905 99.8638C428.37 103.666 427.034 105.417 422.949 105.166L422.437 108.811L419.466 108.393L419.978 104.749C415.982 103.864 415.18 101.813 415.714 98.01ZM430.676 104.677L433.799 82.4555C434.317 78.7717 436.282 77.1494 439.688 77.6282C443.135 78.1125 444.576 80.2136 444.058 83.8974L440.935 106.119C440.418 109.803 438.453 111.425 435.007 110.941C431.6 110.462 430.159 108.361 430.676 104.677ZM437.925 105.696L441.048 83.4743C441.282 81.8106 440.686 80.8786 439.26 80.6782C437.873 80.4834 437.044 81.215 436.81 82.8786L433.687 105.1C433.447 106.804 434.038 107.775 435.424 107.97C436.85 108.17 437.686 107.399 437.925 105.696ZM453.585 91.4972L454.348 86.0705C454.621 84.1296 454.036 83.1183 452.134 82.8511L450.074 82.5616L448.51 93.6923L450.61 93.9873C452.352 94.2322 453.301 93.5173 453.585 91.4972ZM445.922 112.111L442.911 111.688L447.493 79.0885L452.563 79.8011C456.366 80.3355 457.897 82.3685 457.319 86.488L456.567 91.8355C455.988 95.955 454 97.4529 450.198 96.9185L448.098 96.6234L445.922 112.111ZM471.554 82.4702L462.078 109.373C460.724 113.262 459.407 114.007 454.852 113.366L454.416 113.305L454.839 110.295L455.275 110.356C457.414 110.657 458.647 110.507 459.439 108.316L460.963 104.086L458.839 80.6832L462.008 81.1285L462.986 98.3119L468.584 82.0527L471.554 82.4702ZM483.841 117.44L481.028 117.045L482.415 107.182C483.088 102.389 483.762 97.8792 484.476 93.0918L477.582 116.561L474.928 116.188L474.811 91.7335C474.177 96.532 473.582 101.053 472.908 105.846L471.522 115.709L468.749 115.319L473.331 82.7198L477.371 83.2876L477.238 109.242L484.263 84.2563L488.422 84.8408L483.841 117.44ZM496.919 103.687C495.057 103.425 494.194 101.809 494.455 99.9474C494.717 98.0857 495.981 96.8497 497.843 97.1113C499.625 97.3618 500.54 98.9041 500.278 100.766C500.016 102.627 498.701 103.937 496.919 103.687ZM515.554 121.897L505.374 120.467L506.214 114.485C506.749 110.683 507.249 109.137 510.398 105.985C514.58 101.806 515.455 100.758 515.889 97.6683L516.379 94.1825C516.624 92.4397 516.033 91.468 514.607 91.2676C512.983 91.0394 512.42 91.8892 512.175 93.6321L511.384 99.2568L508.413 98.8393L509.204 93.2145C509.766 89.2139 511.55 87.7277 515.036 88.2176C518.522 88.7075 519.941 90.6842 519.384 94.6452L518.872 98.2894C518.371 101.854 516.769 104.053 514.003 106.774C510.137 110.432 509.687 111.621 509.225 114.909L508.802 117.919L515.971 118.927L515.554 121.897ZM522.272 122.842L519.261 122.418C521.794 104.396 526.816 96.2552 528.682 93.6092L521.235 92.5627L521.664 89.5126L531.963 90.96L531.568 93.7724C526.985 101.086 524.114 109.73 522.272 122.842ZM545.001 126.036L541.991 125.613L544.112 110.521L539.913 109.931L537.792 125.023L534.782 124.6L539.363 92.0001L542.374 92.4232L540.331 106.96L544.529 107.55L546.572 93.0133L549.583 93.4364L545.001 126.036ZM548.425 121.226L551.548 99.0041C552.066 95.3203 554.031 93.698 557.438 94.1767C560.884 94.661 562.325 96.7621 561.808 100.446L558.684 122.668C558.167 126.351 556.202 127.974 552.756 127.489C549.349 127.011 547.908 124.91 548.425 121.226ZM555.674 122.244L558.797 100.023C559.031 98.3592 558.435 97.4272 557.009 97.2267C555.622 97.0319 554.793 97.7635 554.559 99.4272L551.436 121.649C551.196 123.352 551.787 124.324 553.173 124.519C554.599 124.719 555.435 123.948 555.674 122.244ZM563.195 128.593L559.908 128.131C561.503 123.104 563.177 118.088 564.772 113.061C563.265 112.001 562.724 110.39 563.069 107.934L563.982 101.438C564.583 97.1603 566.668 95.8375 570.47 96.3719L575.422 97.0678L570.84 129.667L567.83 129.244L569.906 114.47L568.124 114.219C567.846 114.18 567.648 114.152 567.535 114.096L563.195 128.593ZM567.032 101.867L566.169 108.007C565.891 109.987 566.329 111.18 568.31 111.458L570.29 111.736L571.983 99.6947L570.042 99.4219C568.14 99.1547 567.322 99.8071 567.032 101.867ZM578.394 97.4855L587.227 98.7269L586.798 101.777L580.976 100.959L579.367 112.406L581.506 112.707C585.308 113.241 586.767 115.223 586.188 119.343L585.297 125.681C584.718 129.8 582.725 131.338 578.922 130.803L573.812 130.085L578.394 97.4855ZM582.321 125.303L583.234 118.807C583.501 116.905 582.797 115.877 581.094 115.638L578.955 115.337L577.246 127.498L579.345 127.793C581.088 128.038 582.048 127.244 582.321 125.303ZM597.251 111.688L598.014 106.261C598.287 104.321 597.702 103.309 595.8 103.042L593.741 102.753L592.176 113.883L594.276 114.178C596.019 114.423 596.967 113.708 597.251 111.688ZM589.588 132.302L586.577 131.879L591.159 99.2795L596.229 99.9921C600.032 100.526 601.564 102.559 600.985 106.679L600.233 112.026C599.654 116.146 597.666 117.644 593.864 117.109L591.764 116.814L589.588 132.302ZM601.878 134.029L598.59 133.567C600.185 128.54 601.859 123.525 603.455 118.498C601.947 117.438 601.406 115.827 601.752 113.371L602.665 106.875C603.266 102.597 605.35 101.274 609.153 101.808L614.104 102.504L609.523 135.104L606.512 134.681L608.589 119.906L606.806 119.655C606.529 119.616 606.331 119.589 606.217 119.532L601.878 134.029ZM605.715 107.303L604.852 113.443C604.573 115.424 605.012 116.616 606.992 116.894L608.973 117.173L610.665 105.131L608.724 104.858C606.823 104.591 606.004 105.244 605.715 107.303ZM622.714 121.366C620.852 121.104 619.989 119.488 620.25 117.627C620.512 115.765 621.776 114.529 623.638 114.791C625.42 115.041 626.335 116.583 626.073 118.445C625.811 120.307 624.496 121.617 622.714 121.366Z" fill="#F0EFEC"/>
<path d="M640.05 115.885L638.141 129.472C637.879 131.334 638.589 132.322 640.304 132.765L643.042 113.277C641.277 113.19 640.306 114.063 640.05 115.885ZM645.855 113.672L643.116 133.16C644.847 133.202 645.801 132.447 646.063 130.585L647.972 116.999C648.228 115.177 647.575 114.075 645.855 113.672ZM635.554 128.906L637.408 115.716C637.948 111.874 639.285 110.123 643.37 110.374L643.887 106.69L646.858 107.108L646.34 110.791C650.336 111.676 651.138 113.728 650.598 117.57L648.745 130.76C648.21 134.563 646.874 136.314 642.789 136.063L642.277 139.707L639.306 139.29L639.818 135.645C635.822 134.761 635.02 132.709 635.554 128.906ZM650.516 135.574L653.639 113.352C654.157 109.668 656.122 108.046 659.528 108.525C662.974 109.009 664.416 111.11 663.898 114.794L660.775 137.015C660.258 140.699 658.293 142.322 654.847 141.837C651.44 141.359 649.998 139.257 650.516 135.574ZM657.765 136.592L660.888 114.371C661.122 112.707 660.526 111.775 659.1 111.575C657.713 111.38 656.883 112.111 656.65 113.775L653.527 135.997C653.287 137.7 653.878 138.672 655.264 138.866C656.69 139.067 657.525 138.296 657.765 136.592ZM673.425 122.394L674.188 116.967C674.46 115.026 673.875 114.015 671.974 113.748L669.914 113.458L668.35 124.589L670.449 124.884C672.192 125.129 673.141 124.414 673.425 122.394ZM665.761 143.008L662.751 142.585L667.333 109.985L672.403 110.698C676.205 111.232 677.737 113.265 677.158 117.385L676.407 122.732C675.828 126.851 673.84 128.349 670.037 127.815L667.938 127.52L665.761 143.008ZM691.394 113.367L681.918 140.27C680.563 144.159 679.247 144.903 674.692 144.263L674.256 144.202L674.679 141.191L675.115 141.252C677.254 141.553 678.487 141.403 679.279 139.212L680.803 134.983L678.679 111.58L681.848 112.025L682.826 129.208L688.423 112.949L691.394 113.367ZM703.681 148.337L700.868 147.942L702.254 138.079C702.928 133.286 703.602 128.776 704.315 123.988L697.422 147.457L694.768 147.084L694.65 122.63C694.016 127.428 693.421 131.95 692.748 136.743L691.362 146.606L688.589 146.216L693.171 113.616L697.211 114.184L697.077 140.138L704.103 115.153L708.262 115.737L703.681 148.337ZM716.759 134.583C714.897 134.322 714.033 132.706 714.295 130.844C714.557 128.982 715.821 127.746 717.683 128.008C719.465 128.258 720.379 129.801 720.118 131.662C719.856 133.524 718.541 134.834 716.759 134.583ZM735.394 152.794L725.214 151.363L726.054 145.382C726.589 141.579 727.089 140.034 730.238 136.882C734.42 132.703 735.295 131.654 735.729 128.565L736.219 125.079C736.464 123.336 735.873 122.365 734.447 122.164C732.823 121.936 732.259 122.786 732.015 124.529L731.224 130.153L728.253 129.736L729.044 124.111C729.606 120.11 731.39 118.624 734.876 119.114C738.362 119.604 739.78 121.581 739.224 125.542L738.712 129.186C738.211 132.751 736.609 134.949 733.843 137.671C729.977 141.328 729.527 142.517 729.065 145.805L728.642 148.815L735.811 149.823L735.394 152.794ZM742.111 153.738L739.101 153.315C741.634 135.292 746.656 127.152 748.522 124.506L741.075 123.459L741.504 120.409L751.803 121.857L751.407 124.669C746.825 131.982 743.954 140.627 742.111 153.738ZM764.841 156.932L761.831 156.509L763.952 141.418L759.753 140.828L757.632 155.919L754.622 155.496L759.203 122.897L762.214 123.32L760.17 137.857L764.369 138.447L766.412 123.91L769.423 124.333L764.841 156.932ZM768.265 152.122L771.388 129.901C771.906 126.217 773.871 124.594 777.277 125.073C780.723 125.558 782.165 127.659 781.647 131.342L778.524 153.564C778.007 157.248 776.042 158.87 772.596 158.386C769.189 157.907 767.747 155.806 768.265 152.122ZM775.514 153.141L778.637 130.919C778.871 129.256 778.275 128.324 776.849 128.123C775.462 127.928 774.632 128.66 774.399 130.324L771.276 152.545C771.036 154.249 771.627 155.22 773.013 155.415C774.439 155.615 775.275 154.844 775.514 153.141ZM783.035 159.489L779.747 159.027C781.343 154 783.017 148.985 784.612 143.958C783.105 142.898 782.564 141.287 782.909 138.831L783.822 132.335C784.423 128.057 786.508 126.734 790.31 127.268L795.262 127.964L790.68 160.564L787.67 160.141L789.746 145.366L787.964 145.115C787.686 145.077 787.488 145.049 787.375 144.992L783.035 159.489ZM786.872 132.763L786.009 138.903C785.731 140.884 786.169 142.076 788.15 142.355L790.13 142.633L791.823 130.591L789.882 130.318C787.98 130.051 787.162 130.704 786.872 132.763ZM798.234 128.382L807.067 129.623L806.638 132.673L800.815 131.855L799.207 143.303L801.346 143.603C805.148 144.138 806.606 146.12 806.028 150.239L805.137 156.577C804.558 160.697 802.564 162.234 798.762 161.7L793.652 160.982L798.234 128.382ZM802.16 156.199L803.073 149.703C803.341 147.802 802.637 146.774 800.934 146.534L798.795 146.234L797.086 158.394L799.185 158.689C800.928 158.934 801.888 158.14 802.16 156.199ZM817.091 142.585L817.854 137.158C818.127 135.217 817.542 134.206 815.64 133.939L813.581 133.649L812.016 144.78L814.116 145.075C815.858 145.32 816.807 144.605 817.091 142.585ZM809.428 163.199L806.417 162.776L810.999 130.176L816.069 130.889C819.872 131.423 821.404 133.456 820.825 137.575L820.073 142.923C819.494 147.042 817.506 148.54 813.704 148.006L811.604 147.711L809.428 163.199ZM821.717 164.926L818.43 164.464C820.025 159.437 821.699 154.421 823.294 149.394C821.787 148.334 821.246 146.723 821.591 144.267L822.504 137.771C823.106 133.493 825.19 132.17 828.993 132.705L833.944 133.401L829.362 166L826.352 165.577L828.428 150.802L826.646 150.552C826.369 150.513 826.171 150.485 826.057 150.429L821.717 164.926ZM825.554 138.2L824.691 144.339C824.413 146.32 824.851 147.513 826.832 147.791L828.813 148.069L830.505 136.028L828.564 135.755C826.663 135.488 825.844 136.14 825.554 138.2ZM842.554 152.263C840.692 152.001 839.828 150.385 840.09 148.523C840.352 146.662 841.616 145.425 843.478 145.687C845.26 145.938 846.174 147.48 845.913 149.342C845.651 151.203 844.336 152.513 842.554 152.263Z" fill="#F0EFEC"/>
<path d="M859.89 146.782L857.981 160.368C857.719 162.23 858.428 163.218 860.143 163.661L862.882 144.173C861.117 144.086 860.146 144.96 859.89 146.782ZM865.695 144.568L862.956 164.057C864.687 164.098 865.641 163.344 865.903 161.482L867.812 147.895C868.068 146.073 867.415 144.972 865.695 144.568ZM855.394 159.803L857.248 146.613C857.788 142.77 859.125 141.019 863.209 141.27L863.727 137.586L866.698 138.004L866.18 141.688C870.176 142.573 870.978 144.624 870.438 148.466L868.585 161.657C868.05 165.459 866.713 167.21 862.629 166.959L862.116 170.604L859.146 170.186L859.658 166.542C855.662 165.657 854.86 163.606 855.394 159.803ZM870.356 166.47L873.479 144.249C873.997 140.565 875.962 138.942 879.368 139.421C882.814 139.905 884.256 142.007 883.738 145.69L880.615 167.912C880.097 171.596 878.132 173.218 874.686 172.734C871.28 172.255 869.838 170.154 870.356 166.47ZM877.605 167.489L880.728 145.267C880.962 143.604 880.365 142.672 878.939 142.471C877.553 142.276 876.723 143.008 876.489 144.672L873.366 166.893C873.127 168.596 873.718 169.568 875.104 169.763C876.53 169.963 877.365 169.192 877.605 167.489ZM893.265 153.29L894.027 147.863C894.3 145.923 893.715 144.911 891.814 144.644L889.754 144.355L888.19 155.485L890.289 155.78C892.032 156.025 892.981 155.31 893.265 153.29ZM885.601 173.904L882.591 173.481L887.172 140.881L892.243 141.594C896.045 142.128 897.577 144.161 896.998 148.281L896.247 153.628C895.668 157.748 893.68 159.246 889.877 158.711L887.778 158.416L885.601 173.904ZM911.234 144.263L901.758 171.166C900.403 175.055 899.087 175.799 894.532 175.159L894.096 175.098L894.519 172.088L894.955 172.149C897.094 172.449 898.327 172.3 899.119 170.109L900.643 165.879L898.519 142.476L901.688 142.922L902.666 160.105L908.263 143.846L911.234 144.263ZM923.52 179.233L920.708 178.838L922.094 168.975C922.768 164.182 923.442 159.672 924.155 154.885L917.262 178.354L914.608 177.981L914.49 153.526C913.856 158.325 913.261 162.846 912.588 167.639L911.202 177.502L908.429 177.112L913.01 144.513L917.051 145.081L916.917 171.035L923.943 146.049L928.102 146.634L923.52 179.233ZM936.598 165.48C934.737 165.218 933.873 163.602 934.135 161.74C934.397 159.879 935.661 158.643 937.523 158.904C939.305 159.155 940.219 160.697 939.958 162.559C939.696 164.42 938.381 165.73 936.598 165.48ZM955.233 183.69L945.054 182.26L945.894 176.278C946.429 172.476 946.929 170.93 950.078 167.778C954.26 163.599 955.135 162.551 955.569 159.461L956.059 155.976C956.304 154.233 955.713 153.261 954.287 153.061C952.663 152.832 952.099 153.682 951.854 155.425L951.064 161.05L948.093 160.632L948.884 155.008C949.446 151.007 951.23 149.521 954.716 150.011C958.202 150.5 959.62 152.477 959.064 156.438L958.551 160.082C958.05 163.647 956.449 165.846 953.683 168.567C949.816 172.225 949.367 173.414 948.905 176.702L948.481 179.712L955.651 180.72L955.233 183.69ZM961.951 184.634L958.941 184.211C961.474 166.189 966.496 158.048 968.362 155.402L960.915 154.356L961.344 151.306L971.643 152.753L971.247 155.565C966.665 162.879 963.794 171.523 961.951 184.634ZM984.681 187.829L981.671 187.406L983.792 172.314L979.593 171.724L977.472 186.816L974.461 186.393L979.043 153.793L982.053 154.216L980.01 168.753L984.209 169.343L986.252 154.806L989.263 155.229L984.681 187.829ZM988.105 183.019L991.228 160.797C991.746 157.113 993.711 155.491 997.117 155.97C1000.56 156.454 1002 158.555 1001.49 162.239L998.364 184.461C997.846 188.144 995.882 189.767 992.435 189.282C989.029 188.804 987.587 186.702 988.105 183.019ZM995.354 184.037L998.477 161.816C998.711 160.152 998.115 159.22 996.689 159.02C995.302 158.825 994.472 159.556 994.238 161.22L991.115 183.442C990.876 185.145 991.467 186.117 992.853 186.312C994.279 186.512 995.114 185.741 995.354 184.037ZM1002.87 190.386L999.587 189.924C1001.18 184.897 1002.86 179.881 1004.45 174.854C1002.94 173.794 1002.4 172.183 1002.75 169.727L1003.66 163.231C1004.26 158.953 1006.35 157.63 1010.15 158.165L1015.1 158.861L1010.52 191.46L1007.51 191.037L1009.59 176.262L1007.8 176.012C1007.53 175.973 1007.33 175.945 1007.21 175.889L1002.87 190.386ZM1006.71 163.66L1005.85 169.8C1005.57 171.78 1006.01 172.973 1007.99 173.251L1009.97 173.529L1011.66 161.488L1009.72 161.215C1007.82 160.948 1007 161.6 1006.71 163.66ZM1018.07 159.278L1026.91 160.52L1026.48 163.57L1020.66 162.752L1019.05 174.199L1021.19 174.5C1024.99 175.034 1026.45 177.016 1025.87 181.136L1024.98 187.474C1024.4 191.593 1022.4 193.131 1018.6 192.596L1013.49 191.878L1018.07 159.278ZM1022 187.096L1022.91 180.6C1023.18 178.698 1022.48 177.67 1020.77 177.431L1018.63 177.13L1016.93 189.291L1019.02 189.586C1020.77 189.831 1021.73 189.037 1022 187.096ZM1036.93 173.481L1037.69 168.054C1037.97 166.114 1037.38 165.102 1035.48 164.835L1033.42 164.546L1031.86 175.676L1033.96 175.971C1035.7 176.216 1036.65 175.501 1036.93 173.481ZM1029.27 194.095L1026.26 193.672L1030.84 161.072L1035.91 161.785C1039.71 162.319 1041.24 164.352 1040.66 168.472L1039.91 173.819C1039.33 177.939 1037.35 179.437 1033.54 178.902L1031.44 178.607L1029.27 194.095ZM1041.56 195.822L1038.27 195.36C1039.86 190.333 1041.54 185.318 1043.13 180.291C1041.63 179.231 1041.09 177.62 1041.43 175.164L1042.34 168.668C1042.95 164.39 1045.03 163.067 1048.83 163.601L1053.78 164.297L1049.2 196.897L1046.19 196.474L1048.27 181.699L1046.49 181.448C1046.21 181.409 1046.01 181.382 1045.9 181.325L1041.56 195.822ZM1045.39 169.096L1044.53 175.236C1044.25 177.216 1044.69 178.409 1046.67 178.687L1048.65 178.966L1050.34 166.924L1048.4 166.651C1046.5 166.384 1045.68 167.037 1045.39 169.096ZM1062.39 183.159C1060.53 182.897 1059.67 181.281 1059.93 179.42C1060.19 177.558 1061.46 176.322 1063.32 176.584C1065.1 176.834 1066.01 178.376 1065.75 180.238C1065.49 182.1 1064.18 183.41 1062.39 183.159Z" fill="#F0EFEC"/>
<path d="M1079.73 177.678L1077.82 191.264C1077.56 193.126 1078.27 194.114 1079.98 194.557L1082.72 175.069C1080.96 174.982 1079.99 175.856 1079.73 177.678ZM1085.53 175.464L1082.79 194.953C1084.53 194.994 1085.48 194.24 1085.74 192.378L1087.65 178.791C1087.91 176.969 1087.25 175.868 1085.53 175.464ZM1075.23 190.699L1077.09 177.509C1077.63 173.666 1078.96 171.915 1083.05 172.166L1083.57 168.482L1086.54 168.9L1086.02 172.584C1090.01 173.469 1090.82 175.52 1090.28 179.362L1088.42 192.553C1087.89 196.355 1086.55 198.106 1082.47 197.855L1081.96 201.5L1078.98 201.082L1079.5 197.438C1075.5 196.553 1074.7 194.502 1075.23 190.699ZM1090.19 197.366L1093.32 175.145C1093.84 171.461 1095.8 169.838 1099.21 170.317C1102.65 170.801 1104.09 172.903 1103.58 176.586L1100.45 198.808C1099.94 202.492 1097.97 204.114 1094.53 203.63C1091.12 203.151 1089.68 201.05 1090.19 197.366ZM1097.44 198.385L1100.57 176.163C1100.8 174.5 1100.2 173.568 1098.78 173.367C1097.39 173.172 1096.56 173.904 1096.33 175.568L1093.21 197.789C1092.97 199.492 1093.56 200.464 1094.94 200.659C1096.37 200.859 1097.2 200.088 1097.44 198.385ZM1113.1 184.186L1113.87 178.759C1114.14 176.819 1113.55 175.807 1111.65 175.54L1109.59 175.251L1108.03 186.381L1110.13 186.676C1111.87 186.921 1112.82 186.206 1113.1 184.186ZM1105.44 204.8L1102.43 204.377L1107.01 171.777L1112.08 172.49C1115.88 173.024 1117.42 175.057 1116.84 179.177L1116.09 184.524C1115.51 188.644 1113.52 190.142 1109.72 189.607L1107.62 189.312L1105.44 204.8ZM1131.07 175.159L1121.6 202.062C1120.24 205.951 1118.93 206.695 1114.37 206.055L1113.93 205.994L1114.36 202.984L1114.79 203.045C1116.93 203.345 1118.17 203.196 1118.96 201.005L1120.48 196.775L1118.36 173.372L1121.53 173.818L1122.5 191.001L1128.1 174.742L1131.07 175.159ZM1143.36 210.129L1140.55 209.734L1141.93 199.871C1142.61 195.078 1143.28 190.568 1143.99 185.781L1137.1 209.25L1134.45 208.877L1134.33 184.422C1133.7 189.221 1133.1 193.742 1132.43 198.535L1131.04 208.398L1128.27 208.008L1132.85 175.409L1136.89 175.977L1136.76 201.931L1143.78 176.945L1147.94 177.53L1143.36 210.129ZM1156.44 196.376C1154.58 196.114 1153.71 194.498 1153.97 192.636C1154.24 190.775 1155.5 189.539 1157.36 189.8C1159.14 190.051 1160.06 191.593 1159.8 193.455C1159.53 195.316 1158.22 196.626 1156.44 196.376ZM1175.07 214.586L1164.89 213.156L1165.73 207.174C1166.27 203.372 1166.77 201.826 1169.92 198.674C1174.1 194.495 1174.97 193.447 1175.41 190.357L1175.9 186.872C1176.14 185.129 1175.55 184.157 1174.13 183.957C1172.5 183.728 1171.94 184.578 1171.69 186.321L1170.9 191.946L1167.93 191.528L1168.72 185.904C1169.28 181.903 1171.07 180.417 1174.55 180.907C1178.04 181.396 1179.46 183.373 1178.9 187.334L1178.39 190.978C1177.89 194.543 1176.29 196.742 1173.52 199.463C1169.66 203.121 1169.21 204.31 1168.74 207.598L1168.32 210.608L1175.49 211.616L1175.07 214.586ZM1181.79 215.53L1178.78 215.107C1181.31 197.085 1186.33 188.944 1188.2 186.298L1180.75 185.252L1181.18 182.202L1191.48 183.649L1191.09 186.461C1186.5 193.775 1183.63 202.419 1181.79 215.53ZM1204.52 218.725L1201.51 218.302L1203.63 203.21L1199.43 202.62L1197.31 217.712L1194.3 217.289L1198.88 184.689L1201.89 185.112L1199.85 199.649L1204.05 200.239L1206.09 185.702L1209.1 186.125L1204.52 218.725ZM1207.94 213.915L1211.07 191.693C1211.58 188.009 1213.55 186.387 1216.96 186.866C1220.4 187.35 1221.84 189.451 1221.33 193.135L1218.2 215.357C1217.69 219.04 1215.72 220.663 1212.27 220.178C1208.87 219.7 1207.43 217.598 1207.94 213.915ZM1215.19 214.933L1218.32 192.712C1218.55 191.048 1217.95 190.116 1216.53 189.916C1215.14 189.721 1214.31 190.452 1214.08 192.116L1210.95 214.338C1210.71 216.041 1211.31 217.013 1212.69 217.207C1214.12 217.408 1214.95 216.637 1215.19 214.933ZM1222.71 221.282L1219.43 220.82C1221.02 215.793 1222.7 210.777 1224.29 205.75C1222.78 204.69 1222.24 203.079 1222.59 200.623L1223.5 194.127C1224.1 189.849 1226.19 188.526 1229.99 189.061L1234.94 189.757L1230.36 222.356L1227.35 221.933L1229.42 207.158L1227.64 206.908C1227.37 206.869 1227.17 206.841 1227.05 206.785L1222.71 221.282ZM1226.55 194.556L1225.69 200.696C1225.41 202.676 1225.85 203.869 1227.83 204.147L1229.81 204.425L1231.5 192.384L1229.56 192.111C1227.66 191.844 1226.84 192.496 1226.55 194.556ZM1237.91 190.174L1246.75 191.416L1246.32 194.466L1240.49 193.648L1238.89 205.095L1241.02 205.396C1244.83 205.93 1246.29 207.912 1245.71 212.032L1244.82 218.37C1244.24 222.489 1242.24 224.027 1238.44 223.492L1233.33 222.774L1237.91 190.174ZM1241.84 217.992L1242.75 211.495C1243.02 209.594 1242.32 208.566 1240.61 208.327L1238.47 208.026L1236.76 220.187L1238.86 220.482C1240.61 220.727 1241.57 219.933 1241.84 217.992ZM1256.77 204.377L1257.53 198.95C1257.81 197.01 1257.22 195.998 1255.32 195.731L1253.26 195.442L1251.69 206.572L1253.79 206.867C1255.54 207.112 1256.49 206.397 1256.77 204.377ZM1249.11 224.991L1246.1 224.568L1250.68 191.968L1255.75 192.681C1259.55 193.215 1261.08 195.248 1260.5 199.368L1259.75 204.715C1259.17 208.835 1257.19 210.333 1253.38 209.798L1251.28 209.503L1249.11 224.991ZM1261.4 226.718L1258.11 226.256C1259.7 221.229 1261.38 216.214 1262.97 211.187C1261.47 210.127 1260.92 208.516 1261.27 206.06L1262.18 199.564C1262.78 195.286 1264.87 193.963 1268.67 194.497L1273.62 195.193L1269.04 227.793L1266.03 227.37L1268.11 212.595L1266.32 212.344C1266.05 212.305 1265.85 212.278 1265.74 212.221L1261.4 226.718ZM1265.23 199.992L1264.37 206.132C1264.09 208.112 1264.53 209.305 1266.51 209.583L1268.49 209.862L1270.18 197.82L1268.24 197.547C1266.34 197.28 1265.52 197.933 1265.23 199.992ZM1282.23 214.055C1280.37 213.793 1279.51 212.177 1279.77 210.316C1280.03 208.454 1281.29 207.218 1283.16 207.48C1284.94 207.73 1285.85 209.272 1285.59 211.134C1285.33 212.996 1284.01 214.305 1282.23 214.055Z" fill="#F0EFEC"/>
</g>
<defs>
<clipPath id="clip0_0_43">
<rect width="1264.78" height="64" fill="white" transform="translate(9.60742 0.299805) rotate(8)"/>
</clipPath>
</defs>
</svg>
