<svg width="32" height="32" viewBox="0 0 32 32" fill="none" xmlns="http://www.w3.org/2000/svg">
<path d="M9.33301 23.9997V20.6663M9.33301 20.6663V18.6663C9.33301 18.0383 9.33301 17.7237 9.53834 17.5277C9.74367 17.333 10.073 17.333 10.733 17.333H11.6663C12.633 17.333 13.417 18.0797 13.417 18.9997C13.417 19.9197 12.633 20.6663 11.6663 20.6663H9.33301ZM27.9997 17.333H26.2503C25.1503 17.333 24.5997 17.333 24.2583 17.6583C23.917 17.9837 23.917 18.5077 23.917 19.5557V20.6663M23.917 20.6663V23.9997M23.917 20.6663H26.833M20.9997 20.6663C20.9997 22.5063 19.433 23.9997 17.4997 23.9997C17.0637 23.9997 16.8463 23.9997 16.6823 23.9103C16.2943 23.697 16.333 23.2637 16.333 22.889V18.4437C16.333 18.069 16.293 17.6357 16.6823 17.4223C16.845 17.333 17.0637 17.333 17.4997 17.333C19.433 17.333 20.9997 18.8263 20.9997 20.6663Z" stroke="#020204" stroke-width="1.5" stroke-linecap="round" stroke-linejoin="round"/>
<path d="M20 29.3332H14.3027C9.956 29.3332 7.78 29.3332 6.27067 28.2692C5.84113 27.9679 5.45719 27.6065 5.13067 27.1958C4 25.7745 4 23.7292 4 19.6358V16.2425C4 12.2918 4 10.3158 4.62533 8.7385C5.63067 6.20117 7.756 4.20117 10.452 3.2545C12.1267 2.6665 14.224 2.6665 18.424 2.6665C20.8213 2.6665 22.0213 2.6665 22.9787 3.0025C24.5187 3.54384 25.7333 4.6865 26.308 6.13584C26.6667 7.03717 26.6667 8.1665 26.6667 10.4238V13.3332" stroke="#020204" stroke-width="1.5" stroke-linecap="round" stroke-linejoin="round"/>
<path d="M4 15.9998C4 14.8212 4.46821 13.6909 5.30162 12.8575C6.13503 12.024 7.26538 11.5558 8.444 11.5558C9.332 11.5558 10.3787 11.7105 11.2413 11.4798C11.6183 11.3784 11.9619 11.1796 12.2378 10.9035C12.5137 10.6274 12.7122 10.2835 12.8133 9.9065C13.044 9.04384 12.8893 7.99717 12.8893 7.10917C12.8897 5.93078 13.358 4.80077 14.1914 3.96765C15.0248 3.13453 16.1549 2.6665 17.3333 2.6665" stroke="#020204" stroke-width="1.5" stroke-linecap="round" stroke-linejoin="round"/>
</svg>
