<svg width="69" height="241" viewBox="0 0 69 241" fill="none" xmlns="http://www.w3.org/2000/svg">
<path d="M14.8867 50.9302C10.4639 50.9302 6.87702 49.4469 4.12621 46.4803C1.3754 43.5138 0 39.4954 0 34.4253C0 30.4879 0.916937 26.5774 2.75081 22.6939C4.63862 18.8104 7.44337 15.0348 11.165 11.3671C14.8867 7.64539 19.5254 4.16643 25.0809 0.930176L31.877 10.0726C27.616 12.0143 23.8134 14.4145 20.4693 17.2732C17.1791 20.1319 14.8867 22.9636 13.5922 25.7684C16.2891 25.6066 18.7433 26.0111 20.9547 26.982C23.2201 27.9528 25 29.3822 26.2945 31.27C27.6429 33.1039 28.3172 35.2883 28.3172 37.8234C28.3172 41.7069 27.0496 44.8622 24.5146 47.2894C22.0334 49.7166 18.8242 50.9302 14.8867 50.9302ZM51.1327 50.9302C46.7098 50.9302 43.123 49.4469 40.3722 46.4803C37.6214 43.5138 36.246 39.4954 36.246 34.4253C36.246 30.4879 37.1629 26.5774 38.9968 22.6939C40.8846 18.8104 43.6893 15.0348 47.411 11.3671C51.1327 7.64539 55.7713 4.16643 61.3269 0.930176L68.123 10.0726C63.8619 12.0143 60.0593 14.4145 56.7152 17.2732C53.425 20.1319 51.1327 22.9636 49.8382 25.7684C52.5351 25.6066 54.9892 26.0111 57.2006 26.982C59.466 27.9528 61.246 29.3822 62.5405 31.27C63.8889 33.1039 64.5631 35.2883 64.5631 37.8234C64.5631 41.7069 63.2956 44.8622 60.7605 47.2894C58.2794 49.7166 55.0701 50.9302 51.1327 50.9302Z" fill="#CA252A"/>
</svg>
