<svg width="153" height="40" viewBox="0 0 153 40" fill="none" xmlns="http://www.w3.org/2000/svg">
<g clip-path="url(#clip0_16_105)">
<path fill-rule="evenodd" clip-rule="evenodd" d="M138.471 0C139.003 0 139.746 0.0149501 140.125 0.0336377C140.504 0.0560628 141.072 0.0971756 141.388 0.130813C141.704 0.160713 142.139 0.209301 142.354 0.242939C142.57 0.272839 142.938 0.340115 143.172 0.39244C143.406 0.444765 144.019 0.627904 144.528 0.796092C145.041 0.968018 146.092 1.36046 146.869 1.67067C147.646 1.98089 148.515 2.31353 148.801 2.40696C149.087 2.50414 149.422 2.60505 149.544 2.63122C149.697 2.66485 149.823 2.66859 149.946 2.64617C150.042 2.62748 150.184 2.58263 150.258 2.54152C150.336 2.50414 150.466 2.39949 150.544 2.30979C150.626 2.22009 150.73 2.06311 150.774 1.95846C150.823 1.85755 150.878 1.6632 150.897 1.52865C150.919 1.3941 150.938 1.17732 150.938 1.04277C150.942 0.908218 150.96 0.743767 150.986 0.672754C151.012 0.601741 151.046 0.538203 151.068 0.530728C151.09 0.523253 151.116 0.586791 151.131 0.669017C151.15 0.751242 151.176 1.26702 151.198 1.82017C151.217 2.36959 151.243 4.35795 151.257 6.23793C151.269 8.28609 151.265 10.8201 151.239 12.5543C151.217 14.1465 151.179 15.6341 151.161 15.862C151.139 16.09 151.113 16.2844 151.098 16.3031C151.079 16.318 151.042 16.2993 151.008 16.2657C150.96 16.2134 150.938 16.0564 150.904 15.6004C150.878 15.2715 150.834 14.7819 150.804 14.5165C150.774 14.2512 150.7 13.6793 150.637 13.2458C150.574 12.8122 150.485 12.2329 150.433 11.9563C150.384 11.6798 150.291 11.2425 150.228 10.9846C150.165 10.7267 150.027 10.2558 149.927 9.93807C149.823 9.62038 149.648 9.12329 149.537 8.8355C149.422 8.54771 149.229 8.09547 149.099 7.82637C148.972 7.55727 148.749 7.12372 148.601 6.85462C148.448 6.58551 148.173 6.13327 147.98 5.84549C147.791 5.5577 147.456 5.09424 147.237 4.81767C147.018 4.54109 146.535 4.01036 146.167 3.64035C145.795 3.27033 145.301 2.81809 145.067 2.63495C144.833 2.45181 144.457 2.17898 144.231 2.02947C144.004 1.88371 143.666 1.67441 143.476 1.56976C143.291 1.46511 142.964 1.30066 142.756 1.20722C142.544 1.11004 142.191 0.968018 141.964 0.885793C141.737 0.803567 141.362 0.691442 141.128 0.631641C140.894 0.571841 140.541 0.493353 140.348 0.463453C140.154 0.429815 139.675 0.39244 139.289 0.381227C138.754 0.366277 138.467 0.373752 138.1 0.42234C137.832 0.455978 137.449 0.523253 137.245 0.571841C137.041 0.624166 136.699 0.725079 136.483 0.79983C136.268 0.87458 135.9 1.02782 135.666 1.13994C135.432 1.25581 135.097 1.43521 134.923 1.53986C134.748 1.64451 134.447 1.85007 134.254 1.99584C134.06 2.1416 133.782 2.37706 133.641 2.52283C133.496 2.66485 133.302 2.88163 133.21 3.00497C133.117 3.12831 132.99 3.31145 132.927 3.4161C132.86 3.51701 132.741 3.745 132.663 3.92066C132.582 4.09632 132.455 4.4327 132.381 4.66817C132.307 4.90363 132.21 5.28112 132.162 5.50911C132.095 5.85296 132.08 6.04357 132.08 6.68643C132.084 7.32554 132.095 7.52737 132.165 7.90112C132.214 8.1478 132.318 8.55145 132.396 8.79813C132.478 9.0448 132.634 9.42977 132.741 9.65776C132.853 9.88575 133.05 10.2296 133.18 10.424C133.31 10.6183 133.581 10.9547 133.789 11.1677C133.994 11.377 134.313 11.676 134.495 11.8255C134.677 11.975 134.997 12.2105 135.201 12.345C135.406 12.4833 135.814 12.7188 136.112 12.8683C136.409 13.0215 136.833 13.2234 137.059 13.3168C137.286 13.4065 137.769 13.5859 138.137 13.713C138.505 13.8363 139.099 14.0232 139.456 14.1241C139.813 14.225 140.749 14.4679 141.537 14.6623C142.325 14.8604 143.242 15.1033 143.58 15.208C143.919 15.3164 144.42 15.4846 144.695 15.5892C144.97 15.6939 145.398 15.8658 145.643 15.9779C145.888 16.09 146.271 16.2806 146.497 16.4077C146.724 16.5311 147.073 16.7478 147.278 16.8824C147.482 17.0207 147.809 17.2599 148.002 17.4169C148.196 17.5738 148.575 17.9289 148.842 18.2017C149.106 18.4783 149.452 18.8633 149.608 19.0576C149.76 19.252 149.998 19.5734 150.132 19.7678C150.262 19.9621 150.488 20.3246 150.629 20.5713C150.767 20.818 150.964 21.2067 151.064 21.431C151.165 21.6552 151.321 22.0514 151.41 22.3093C151.503 22.5672 151.633 22.997 151.7 23.2623C151.767 23.5277 151.859 23.9351 151.9 24.1593C151.941 24.3836 152.008 24.8321 152.049 25.1498C152.09 25.4675 152.142 26.0468 152.168 26.4392C152.194 26.8691 152.201 27.5306 152.19 28.1211C152.179 28.6556 152.142 29.3209 152.108 29.5974C152.079 29.874 152.019 30.2964 151.978 30.5318C151.934 30.7673 151.841 31.1971 151.767 31.4849C151.696 31.7727 151.584 32.1502 151.525 32.3258C151.462 32.5015 151.347 32.8042 151.265 32.9986C151.183 33.1929 151.049 33.4882 150.964 33.6527C150.882 33.8171 150.715 34.1198 150.592 34.3254C150.47 34.531 150.243 34.8748 150.087 35.0916C149.931 35.3084 149.663 35.6522 149.485 35.8578C149.31 36.0634 149.035 36.3549 148.872 36.5081C148.712 36.6614 148.426 36.9043 148.244 37.0538C148.062 37.2033 147.776 37.4163 147.612 37.5285C147.449 37.6406 147.148 37.8312 146.943 37.9545C146.739 38.0741 146.338 38.2834 146.052 38.4217C145.765 38.56 145.379 38.7319 145.197 38.803C145.015 38.874 144.654 39.0048 144.398 39.087C144.142 39.173 143.666 39.3075 143.339 39.3898C143.012 39.472 142.503 39.5804 142.206 39.629C141.908 39.6813 141.44 39.7486 141.165 39.7785C140.89 39.8121 140.314 39.8569 139.883 39.8794C139.452 39.9018 138.828 39.9093 138.49 39.8943C138.152 39.8831 137.669 39.8569 137.412 39.8345C137.156 39.8158 136.673 39.7635 136.335 39.7224C135.996 39.6813 135.495 39.6028 135.22 39.5542C134.945 39.5019 134.492 39.4122 134.217 39.3486C133.942 39.2888 133.44 39.1618 133.102 39.0683C132.764 38.9711 132.18 38.788 131.801 38.6609C131.422 38.5301 130.932 38.347 130.705 38.2573C130.478 38.1676 129.969 37.9471 129.572 37.7714C129.174 37.5995 128.68 37.4014 128.476 37.3304C128.171 37.2332 128.041 37.207 127.77 37.207C127.469 37.2033 127.417 37.2145 127.257 37.308C127.16 37.364 127.012 37.4986 126.93 37.607C126.844 37.7116 126.748 37.8611 126.711 37.9321C126.673 38.0031 126.61 38.1713 126.566 38.3059C126.521 38.4404 126.473 38.7095 126.454 38.9039C126.436 39.0982 126.406 39.2963 126.38 39.3449C126.358 39.3898 126.328 39.4271 126.309 39.4271C126.294 39.4271 126.272 39.3748 126.253 39.3075C126.239 39.2403 126.205 38.7207 126.183 38.1564C126.153 37.4911 126.138 35.1738 126.138 31.5783C126.138 27.994 126.157 25.6431 126.183 24.9442C126.205 24.3462 126.239 23.8043 126.253 23.737C126.272 23.6697 126.298 23.6211 126.32 23.6286C126.343 23.6361 126.387 23.7295 126.421 23.8342C126.458 23.9426 126.514 24.2266 126.543 24.4696C126.573 24.7088 126.632 25.2956 126.673 25.7665C126.718 26.2374 126.785 26.8541 126.826 27.1307C126.867 27.4073 126.952 27.8707 127.012 28.1585C127.071 28.4463 127.179 28.8911 127.249 29.1489C127.32 29.4068 127.45 29.8366 127.543 30.102C127.632 30.3674 127.773 30.7561 127.855 30.9616C127.937 31.1672 128.1 31.5447 128.219 31.8026C128.338 32.0605 128.542 32.4716 128.673 32.7183C128.806 32.965 129.022 33.3424 129.156 33.5592C129.286 33.776 129.512 34.1198 129.657 34.3254C129.802 34.531 130.077 34.901 130.274 35.1477C130.467 35.3943 130.906 35.8765 131.244 36.2166C131.582 36.5567 132.039 36.9828 132.266 37.1622C132.492 37.3453 132.901 37.6406 133.176 37.8275C133.451 38.0106 133.945 38.2947 134.272 38.4554C134.599 38.6161 135.034 38.8104 135.238 38.8852C135.443 38.9637 135.792 39.0721 136.019 39.1319C136.245 39.1917 136.621 39.2702 136.855 39.3113C137.089 39.3524 137.542 39.4047 137.858 39.4271C138.178 39.4533 138.631 39.4608 138.88 39.4458C139.125 39.4346 139.534 39.3972 139.79 39.3673C140.047 39.3374 140.415 39.2776 140.608 39.2365C140.801 39.1954 141.135 39.1094 141.351 39.0459C141.566 38.9861 141.893 38.874 142.076 38.803C142.258 38.7282 142.585 38.5824 142.8 38.4741C143.016 38.3657 143.365 38.1601 143.58 38.0143C143.796 37.8686 144.123 37.6182 144.305 37.4575C144.487 37.293 144.758 37.0202 144.903 36.8445C145.052 36.6726 145.264 36.3885 145.379 36.2129C145.498 36.0372 145.673 35.727 145.773 35.5214C145.869 35.3159 146.003 34.9982 146.063 34.8113C146.126 34.6244 146.211 34.2806 146.26 34.0451C146.323 33.7162 146.341 33.4845 146.341 33.0547C146.341 32.6921 146.319 32.3669 146.278 32.139C146.245 31.9446 146.167 31.6157 146.104 31.4101C146.04 31.2046 145.925 30.9018 145.851 30.7374C145.773 30.5729 145.639 30.3113 145.55 30.1581C145.461 30.0048 145.267 29.717 145.119 29.5227C144.974 29.3283 144.68 28.992 144.469 28.7789C144.257 28.5659 143.907 28.2482 143.692 28.0763C143.476 27.9043 143.12 27.639 142.893 27.4895C142.666 27.34 142.31 27.1157 142.094 26.9924C141.879 26.8691 141.488 26.656 141.221 26.5215C140.953 26.3906 140.485 26.1701 140.18 26.0393C139.872 25.9048 139.356 25.6955 139.029 25.5684C138.702 25.4451 138.1 25.2358 137.691 25.1012C137.282 24.9667 136.472 24.72 135.889 24.5518C135.305 24.3836 134.577 24.1631 134.272 24.0584C133.964 23.9575 133.522 23.7968 133.288 23.7071C133.053 23.6137 132.593 23.4044 132.266 23.2437C131.939 23.0829 131.445 22.7989 131.17 22.6158C130.895 22.4326 130.486 22.1224 130.259 21.928C130.033 21.7337 129.698 21.4085 129.516 21.2104C129.334 21.0086 129.033 20.6573 128.851 20.4256C128.669 20.1976 128.383 19.8014 128.215 19.5435C128.045 19.2856 127.796 18.867 127.662 18.6091C127.528 18.3512 127.346 17.9663 127.257 17.7495C127.168 17.5327 127.023 17.1365 126.933 16.8712C126.848 16.6058 126.729 16.1835 126.673 15.9368C126.614 15.6901 126.532 15.279 126.491 15.0211C126.447 14.7632 126.391 14.3259 126.358 14.0493C126.328 13.7728 126.287 13.1224 126.265 12.6104C126.242 12.0946 126.235 11.4069 126.246 11.078C126.257 10.7491 126.283 10.2707 126.306 10.0128C126.324 9.75493 126.376 9.33633 126.417 9.07844C126.458 8.82055 126.547 8.39074 126.618 8.12537C126.685 7.85627 126.807 7.45636 126.889 7.22837C126.971 7.00038 127.104 6.64905 127.19 6.44349C127.279 6.23793 127.424 5.92771 127.517 5.75205C127.61 5.57638 127.799 5.26617 127.937 5.06061C128.074 4.85504 128.29 4.5523 128.416 4.38785C128.542 4.2234 128.817 3.8945 129.025 3.65903C129.237 3.42357 129.583 3.06851 129.798 2.87416C130.01 2.6798 130.33 2.41444 130.501 2.28363C130.675 2.15281 130.976 1.95472 131.17 1.84634C131.363 1.73795 131.716 1.55855 131.95 1.4539C132.184 1.34551 132.559 1.18479 132.786 1.09883C133.013 1.01287 133.488 0.84468 133.845 0.725079C134.202 0.609216 134.755 0.448503 135.071 0.370015C135.387 0.291527 135.874 0.190614 136.149 0.149501C136.424 0.104651 136.844 0.0523253 137.078 0.0373752C137.312 0.0224251 137.94 0.00373752 138.471 0ZM17.3902 0.489615C19.2593 0.485878 23.7406 0.500828 27.3487 0.519516C30.9568 0.538203 34.5017 0.571841 35.2263 0.594266C35.9509 0.612954 36.6569 0.642854 36.7981 0.657804C36.9356 0.676492 37.0433 0.702654 37.0359 0.725079C37.0285 0.743767 36.9727 0.78488 36.9133 0.81478C36.8538 0.84468 36.6123 0.882055 36.3596 0.900743C36.0995 0.915693 35.7576 0.968018 35.5421 1.02408C35.3377 1.07641 35.0553 1.17732 34.9104 1.24833C34.7655 1.31935 34.5537 1.4539 34.4348 1.54733C34.3196 1.64077 34.145 1.82017 34.0521 1.94725C33.9592 2.07806 33.8588 2.27615 33.8254 2.38828C33.7808 2.54525 33.7734 2.69475 33.7882 3.02366C33.8031 3.36377 33.844 3.58802 33.974 4.10754C34.0669 4.46634 34.2267 5.03071 34.3307 5.35961C34.4348 5.68851 34.6392 6.30146 34.7841 6.7238C34.929 7.14614 35.282 8.13659 35.5681 8.92894C35.8542 9.7213 36.3299 11.0257 36.6271 11.8255C36.9244 12.6254 37.9723 15.4509 38.9607 18.1046C39.9491 20.7582 40.9747 23.5053 41.2459 24.2154C41.5135 24.9255 41.7587 25.546 41.7885 25.5983C41.8405 25.6805 41.8553 25.6843 41.8999 25.6357C41.9297 25.6058 42.004 25.4525 42.0672 25.2993C42.1266 25.1461 42.6357 23.7893 43.1968 22.2906C43.7541 20.7918 44.6497 18.3774 45.1847 16.9272C45.7198 15.4771 46.6414 12.9729 47.2359 11.3583C47.8267 9.74372 48.5959 7.65071 48.9378 6.70512C49.2833 5.75952 49.6066 4.85878 49.6586 4.70554C49.7069 4.5523 49.7887 4.24956 49.8296 4.03279C49.889 3.75621 49.9113 3.5058 49.915 3.17316C49.915 2.84425 49.8965 2.63495 49.8481 2.46303C49.8147 2.32848 49.7441 2.13413 49.6884 2.03321C49.6363 1.92856 49.5026 1.75664 49.3874 1.64451C49.2462 1.50996 49.0604 1.38662 48.8077 1.26328C48.6033 1.16237 48.2949 1.05024 48.1203 1.00913C47.9456 0.968018 47.5963 0.919431 47.3399 0.900743C47.0129 0.878318 46.8457 0.852155 46.7714 0.807305C46.7157 0.773667 46.6711 0.732554 46.6711 0.713867C46.6711 0.698917 46.7677 0.676492 46.8829 0.657804C47.0018 0.642854 47.7264 0.612954 48.4919 0.594266C49.2573 0.571841 52.8543 0.538203 56.4809 0.519516C60.1076 0.500828 67.8291 0.485878 84.2012 0.48214L84.1863 7.5199C84.1752 11.3882 84.1529 14.8903 84.1306 15.3014C84.112 15.7125 84.086 16.1162 84.0711 16.1984C84.0563 16.2881 84.034 16.333 84.0154 16.3105C83.9968 16.2881 83.9634 16.1984 83.9411 16.105C83.9188 16.0115 83.8853 15.3986 83.8668 14.7408C83.8482 14.083 83.8036 13.1935 83.7739 12.7599C83.7404 12.3263 83.681 11.691 83.6401 11.3396C83.5992 10.9883 83.5063 10.3828 83.4394 9.99413C83.3688 9.60543 83.2388 8.98127 83.1459 8.61125C83.053 8.24124 82.8932 7.68435 82.7892 7.37787C82.6814 7.06766 82.5216 6.64158 82.4324 6.4248C82.3395 6.20802 82.1612 5.83053 82.0311 5.58386C81.9048 5.33718 81.6893 4.96717 81.5555 4.7616C81.4217 4.55604 81.1988 4.24583 81.0576 4.07016C80.9201 3.8945 80.6451 3.59176 80.4482 3.39741C80.255 3.20306 79.9168 2.90779 79.7013 2.74334C79.4821 2.57889 79.1216 2.33969 78.9024 2.21261C78.6794 2.08928 78.3227 1.90987 78.1072 1.81644C77.8917 1.72674 77.5238 1.58845 77.2897 1.5137C77.0556 1.43895 76.6692 1.33803 76.4351 1.28571C76.201 1.23712 75.8145 1.16984 75.5804 1.13621C75.3463 1.10631 74.8187 1.06146 74.4099 1.04277C73.9343 1.01661 73.4475 1.01661 73.0536 1.03903C72.7155 1.05772 72.3142 1.10257 72.1618 1.13621C72.0095 1.17358 71.7754 1.25207 71.6416 1.31561C71.493 1.38662 71.3295 1.50248 71.2143 1.62208C71.114 1.73047 70.9728 1.90614 70.9096 2.01826C70.8427 2.13039 70.7572 2.31353 70.7164 2.42565C70.6755 2.53778 70.6235 2.77324 70.6012 2.94891C70.5789 3.12457 70.5454 3.84591 70.5269 4.55604C70.5083 5.26617 70.4897 8.96632 70.4897 19.7117L71.4112 19.6668C71.9166 19.6444 72.5446 19.6033 72.8121 19.5809C73.0796 19.5585 73.4698 19.5061 73.6853 19.4688C73.9008 19.4276 74.2501 19.3417 74.4657 19.2707C74.6812 19.1997 74.9636 19.0875 75.0974 19.0203C75.2311 18.953 75.4652 18.811 75.6176 18.71C75.7699 18.6054 76.0375 18.3849 76.2084 18.2167C76.3756 18.0522 76.606 17.8093 76.7137 17.6747C76.8215 17.5402 76.985 17.3159 77.0816 17.1702C77.1782 17.0244 77.3269 16.7665 77.416 16.5909C77.5052 16.4152 77.639 16.1125 77.7096 15.9181C77.7839 15.7238 77.8842 15.3949 77.9363 15.1893C77.9883 14.9837 78.0626 14.6062 78.1035 14.3483C78.1443 14.0905 78.1964 13.6868 78.215 13.4513C78.2372 13.2159 78.2633 12.8384 78.2744 12.6104C78.2856 12.3824 78.3116 12.0049 78.3339 11.7695C78.3524 11.534 78.3859 11.2387 78.4082 11.1154C78.4268 10.9921 78.4528 10.865 78.4639 10.8351C78.4825 10.7902 78.4936 10.7977 78.5197 10.8612C78.5382 10.9098 78.5717 11.691 78.594 12.5992C78.62 13.541 78.6386 16.7105 78.6386 19.9359C78.6386 23.1913 78.62 26.3383 78.594 27.3063C78.5717 28.237 78.5382 29.0368 78.5197 29.0817C78.4899 29.1602 78.4862 29.1564 78.4491 29.0181C78.4268 28.9359 78.3896 28.7191 78.3673 28.5322C78.3487 28.3454 78.3041 27.7997 78.2744 27.3176C78.2447 26.8354 78.1852 26.2038 78.1443 25.916C78.1035 25.6282 78.0106 25.1498 77.9363 24.8508C77.8619 24.5518 77.7393 24.1407 77.6613 23.9351C77.587 23.7295 77.4569 23.4268 77.3752 23.2623C77.2897 23.0979 77.1188 22.8026 76.9887 22.6083C76.8475 22.3915 76.6023 22.1 76.3645 21.8608C76.1489 21.644 75.8368 21.3786 75.6733 21.2702C75.5098 21.1581 75.2088 20.9899 75.0045 20.889C74.8001 20.7881 74.4582 20.6461 74.2427 20.5751C74.0272 20.5078 73.6779 20.4106 73.4624 20.3695C73.2469 20.3246 72.7452 20.2462 72.3476 20.1938C71.95 20.1415 71.3666 20.0892 70.4897 20.0481V36.9977L70.7349 37.435C70.8687 37.678 71.0508 37.977 71.14 38.1003C71.2254 38.2236 71.3704 38.3844 71.4595 38.4554C71.5487 38.5264 71.7085 38.6198 71.8088 38.6684C71.9129 38.7133 72.1135 38.7805 72.2547 38.8104C72.4182 38.8478 72.7935 38.8777 73.258 38.8927C73.689 38.9039 74.2539 38.8964 74.5957 38.8702C74.9227 38.8478 75.4243 38.7917 75.7105 38.7506C75.9966 38.7095 76.4462 38.6198 76.7137 38.5488C76.9813 38.4815 77.3715 38.3619 77.587 38.2872C77.8025 38.2124 78.1927 38.0442 78.4602 37.9134C78.7277 37.7826 79.1105 37.5621 79.3148 37.4238C79.5192 37.2893 79.8128 37.0725 79.9651 36.9454C80.1175 36.8221 80.3739 36.5829 80.5374 36.4184C80.6971 36.254 80.9535 35.9699 81.0984 35.783C81.2471 35.5962 81.4886 35.2598 81.6373 35.0355C81.7822 34.8113 82.0348 34.3553 82.1946 34.0264C82.3544 33.6975 82.5439 33.2789 82.6145 33.092C82.6851 32.9052 82.804 32.5688 82.8821 32.3445C82.9564 32.1203 83.0716 31.7054 83.1422 31.4288C83.2091 31.1523 83.3019 30.7486 83.3428 30.5318C83.3837 30.315 83.4506 29.9376 83.4915 29.6909C83.5323 29.4442 83.6029 28.9658 83.6438 28.6257C83.6847 28.2856 83.7441 27.6988 83.7776 27.3176C83.8073 26.9363 83.8482 26.0468 83.8668 25.3367C83.8891 24.6265 83.9225 23.9613 83.9411 23.8603C83.9634 23.7557 83.9968 23.6548 84.0154 23.6361C84.034 23.6137 84.0563 23.6398 84.0674 23.7108C84.0823 23.7706 84.1083 24.1668 84.1306 24.5892C84.1529 25.019 84.1789 28.4313 84.2198 39.4346L71.3629 39.4159C62.8982 39.4047 58.1271 39.386 57.3913 39.3561C56.7782 39.3337 56.0833 39.2963 55.8492 39.2739C55.6151 39.2552 55.3959 39.2216 55.3662 39.2029C55.3216 39.1767 55.329 39.1618 55.4108 39.1319C55.4702 39.1094 55.7266 39.0646 55.9904 39.031C56.2506 39.001 56.6965 38.9412 56.9826 38.9001C57.2687 38.8628 57.67 38.788 57.8744 38.7357C58.0788 38.6834 58.3797 38.5787 58.5432 38.5077C58.7067 38.4367 58.9297 38.3246 59.0412 38.2573C59.1526 38.1937 59.3793 38.0031 59.5428 37.8387C59.7212 37.6593 59.9144 37.4126 60.0221 37.2407C60.1188 37.0762 60.3268 36.6389 60.7802 35.5962L60.8099 22.0663C60.8285 12.4048 60.8248 8.13659 60.795 7.13493C60.7727 6.365 60.7356 5.4979 60.717 5.21011C60.6947 4.92232 60.6538 4.4925 60.6204 4.25704C60.587 4.02157 60.5201 3.6852 60.468 3.50953C60.4197 3.33387 60.3231 3.09093 60.2525 2.96759C60.1856 2.84425 60.0073 2.60132 59.8549 2.42565C59.7026 2.24999 59.4611 1.99957 59.3198 1.86502C59.1601 1.71926 58.9334 1.55855 58.7439 1.45763C58.573 1.36793 58.2831 1.25581 58.0973 1.20722C57.9115 1.16237 57.5883 1.10257 57.3727 1.07267C57.0978 1.03903 56.5107 1.02408 55.4033 1.02408C54.0433 1.02408 53.7869 1.03529 53.5454 1.09136C53.3931 1.12499 53.1181 1.22965 52.9323 1.32308C52.7465 1.41278 52.4641 1.57723 52.3006 1.68562C52.1371 1.79401 51.8621 2.01826 51.6912 2.18271C51.5203 2.34716 51.301 2.5901 51.197 2.72465C51.0967 2.85921 50.9332 3.13578 50.8328 3.34135C50.7325 3.54691 50.5096 4.05895 50.3386 4.48129C50.1677 4.90363 49.7627 5.92771 49.4394 6.76118C49.1198 7.59465 48.5476 9.08965 48.1686 10.0876C47.7933 11.0855 46.9089 13.4401 46.2066 15.3201C45.5043 17.2001 44.3264 20.3807 43.5869 22.384C42.8475 24.3873 41.6435 27.6352 40.9115 29.5974C40.1795 31.5596 39.2022 34.1572 38.7452 35.3719C38.2844 36.5866 37.7345 38.0293 37.519 38.5862C37.3034 39.1393 37.0916 39.6738 37.047 39.7747C37.0062 39.8719 36.9541 39.9429 36.9356 39.9317C36.917 39.9205 36.8538 39.8158 36.8018 39.7C36.7498 39.5804 36.5268 39.0272 36.3039 38.4741C36.0846 37.9172 35.6053 36.6913 35.2448 35.7457C34.8844 34.8001 34.223 33.0509 33.7771 31.8586C33.3312 30.6664 32.4431 28.2781 31.8077 26.5514C31.1723 24.8246 30.091 21.9168 29.411 20.0854C28.7272 18.2541 28.0807 16.5236 27.9692 16.2358C27.8577 15.948 27.7537 15.7163 27.7351 15.72C27.7165 15.7238 27.5976 15.9742 27.475 16.2806C27.3487 16.5834 26.9696 17.5589 26.6315 18.4409C26.2934 19.323 25.6319 21.0834 25.1637 22.3466C24.6918 23.6099 23.8372 25.9309 23.2612 27.5044C22.6853 29.0779 21.708 31.7278 21.0875 33.391C20.4669 35.0542 19.7089 37.065 19.4042 37.8574C19.0995 38.6497 18.7762 39.4608 18.687 39.6626C18.5978 39.8644 18.5124 40.0139 18.4975 39.999C18.4826 39.984 18.3637 39.7 18.23 39.3711C18.0999 39.0422 17.6986 38.0069 17.3419 37.0725C16.9852 36.1381 16.3274 34.4039 15.8853 33.2228C15.4394 32.0418 14.6702 29.9712 14.1685 28.6257C13.6669 27.2802 12.7082 24.6826 12.0319 22.8512C11.3594 21.0198 10.3003 18.1644 9.67979 16.4974C9.06296 14.8305 8.2046 12.5357 7.77356 11.3957C7.34252 10.2558 6.69968 8.55519 6.34296 7.62081C5.98624 6.68643 5.51432 5.468 5.29509 4.9111C5.07214 4.35795 4.84175 3.78611 4.77487 3.64035C4.70798 3.49832 4.53705 3.20306 4.39585 2.98628C4.25093 2.7695 4.01684 2.45929 3.87563 2.29484C3.73443 2.13039 3.53749 1.9323 3.43345 1.85381C3.33312 1.77532 3.05071 1.61087 2.80547 1.49127C2.56022 1.36793 2.20722 1.21843 2.02514 1.15863C1.83935 1.09883 1.55694 1.02408 1.39344 0.990444C1.22995 0.956806 0.888088 0.915693 0.631695 0.893268C0.326995 0.870843 0.137486 0.837205 0.0817487 0.79983C0.0371585 0.76993 0 0.732554 0 0.717604C0 0.698917 0.0854646 0.676492 0.193224 0.661541C0.300984 0.646591 1.05159 0.612954 1.85793 0.590529C2.66427 0.568103 5.72613 0.538203 8.65793 0.523253C11.5897 0.508303 15.5211 0.493353 17.3902 0.489615ZM16.9889 1.05772C16.844 1.09136 16.6099 1.16984 16.4687 1.23338C16.3312 1.29692 16.1231 1.41652 16.0042 1.50248C15.8853 1.58845 15.7478 1.71926 15.6995 1.79027C15.6512 1.86129 15.5843 1.99584 15.5508 2.08928C15.5211 2.18271 15.4765 2.39201 15.4579 2.55647C15.4356 2.72092 15.4208 2.97881 15.4208 3.12831C15.4208 3.27407 15.4394 3.52822 15.4617 3.68894C15.484 3.84591 15.5434 4.14491 15.5954 4.35048C15.6437 4.55604 15.7887 5.03444 15.9113 5.41567C16.0339 5.7969 16.3237 6.63784 16.5541 7.28443C16.7845 7.93102 17.2601 9.24289 17.6131 10.1997C17.9661 11.1565 18.7502 13.2757 19.3596 14.909C19.969 16.5423 20.7382 18.5942 21.0689 19.4688C21.3996 20.3433 21.931 21.73 22.2468 22.5522C22.5664 23.3745 22.9491 24.35 23.1014 24.72C23.2538 25.09 23.4099 25.4525 23.4433 25.5235L23.5102 25.6544C23.6365 25.3367 23.8855 24.6975 24.1419 24.0285C24.3983 23.3595 25.1414 21.3749 25.7954 19.6183C26.4457 17.8616 27.1071 16.0863 27.2595 15.6752L27.5382 14.9277C25.5539 9.56806 24.833 7.63576 24.6547 7.17231C24.48 6.70885 24.2274 6.06974 24.0973 5.75205C23.9672 5.43436 23.7592 4.93727 23.6328 4.64948C23.5065 4.36169 23.2835 3.89076 23.1349 3.60297C22.99 3.31518 22.767 2.93022 22.6481 2.74334C22.5255 2.55647 22.2691 2.24999 22.0722 2.0519C21.8158 1.79401 21.6337 1.64825 21.4033 1.51743C21.2287 1.42026 20.9871 1.30813 20.8645 1.27076C20.7419 1.22965 20.5078 1.17358 20.3443 1.13621C20.1808 1.10257 19.8278 1.05398 19.564 1.02408C19.3001 0.994181 18.8877 0.968018 18.6536 0.960543C18.4195 0.953068 18.007 0.956806 17.7432 0.971756C17.4794 0.986706 17.1375 1.02782 16.9889 1.05772ZM92.3389 0.526991C93.2084 0.523253 96.0585 0.538203 98.6744 0.556891C101.29 0.575578 104.252 0.612954 105.251 0.631641C106.251 0.654066 107.34 0.687704 107.667 0.706392C107.994 0.728817 108.455 0.76993 108.689 0.79983C108.923 0.82973 109.283 0.897005 109.488 0.949331C109.692 1.00166 110.179 1.15116 110.565 1.28197C110.952 1.41652 111.498 1.61835 111.773 1.73421C112.048 1.85007 112.535 2.07806 112.85 2.24251C113.166 2.40323 113.616 2.6499 113.846 2.78819C114.077 2.92648 114.467 3.18811 114.719 3.36751C114.968 3.54691 115.34 3.83096 115.544 4.00289C115.749 4.17481 116.087 4.48129 116.302 4.68685C116.514 4.89242 116.841 5.23627 117.031 5.45305C117.217 5.66982 117.503 6.01367 117.662 6.21924C117.822 6.4248 118.105 6.82845 118.294 7.11624C118.484 7.40403 118.751 7.84132 118.892 8.088C119.03 8.33467 119.279 8.82429 119.45 9.17188C119.617 9.52321 119.855 10.0614 119.977 10.3679C120.1 10.6781 120.278 11.1565 120.375 11.4331C120.468 11.7097 120.62 12.1993 120.709 12.517C120.799 12.8347 120.925 13.3168 120.988 13.5822C121.051 13.8475 121.159 14.3708 121.23 14.7408C121.297 15.1108 121.389 15.6677 121.43 15.9742C121.471 16.2844 121.531 16.7777 121.56 17.0767C121.59 17.3757 121.635 17.9551 121.661 18.3662C121.687 18.8521 121.698 19.6332 121.683 20.59C121.672 21.4571 121.638 22.3205 121.605 22.683C121.572 23.0231 121.512 23.5613 121.471 23.879C121.427 24.1967 121.337 24.7686 121.267 25.1498C121.196 25.531 121.055 26.1776 120.955 26.5887C120.851 26.9999 120.672 27.6315 120.557 27.9903C120.442 28.3491 120.23 28.9396 120.089 29.2984C119.944 29.6572 119.688 30.2366 119.52 30.5879C119.349 30.9392 119.089 31.4326 118.944 31.6905C118.796 31.9483 118.543 32.3595 118.38 32.6061C118.216 32.8528 117.956 33.2228 117.8 33.4284C117.648 33.634 117.395 33.9517 117.239 34.1385C117.086 34.3254 116.707 34.7291 116.399 35.0393C116.094 35.3458 115.689 35.727 115.507 35.8802C115.325 36.0335 115.039 36.2614 114.876 36.3885C114.712 36.5119 114.363 36.7548 114.095 36.9305C113.828 37.1061 113.43 37.3491 113.203 37.4761C112.977 37.6032 112.579 37.805 112.312 37.9246C112.044 38.048 111.52 38.2648 111.141 38.4105C110.762 38.5563 110.272 38.7282 110.045 38.7917C109.818 38.8553 109.421 38.945 109.153 38.9973C108.886 39.0459 108.395 39.1132 108.057 39.1431C107.719 39.173 107.076 39.2178 106.626 39.2402C106.177 39.2627 105.014 39.2963 104.044 39.315C103.074 39.3374 99.3098 39.3636 95.6832 39.3748C91.1684 39.3898 88.8126 39.386 88.2143 39.3561C87.735 39.3337 87.3262 39.3001 87.3039 39.2814C87.2779 39.2589 87.2928 39.2328 87.3411 39.2104C87.382 39.1879 87.5232 39.1431 87.6569 39.1094C87.7907 39.0758 88.2069 39.0048 88.5859 38.9562C88.9649 38.9039 89.448 38.8254 89.6635 38.7768C89.879 38.7282 90.206 38.631 90.3881 38.5638C90.5739 38.4927 90.8191 38.3769 90.938 38.3059C91.0569 38.2349 91.2464 38.1003 91.3542 38.0069C91.4657 37.9134 91.6478 37.7228 91.7592 37.5771C91.8744 37.4313 92.0342 37.1884 92.1122 37.0351C92.194 36.8819 92.3686 36.4932 92.7551 35.5962L92.7922 22.9633C92.822 13.399 92.822 9.79605 92.7885 8.12537C92.7662 6.91442 92.7291 5.6773 92.7105 5.37829C92.6882 5.07929 92.6473 4.62705 92.6139 4.36916C92.5804 4.11128 92.521 3.7749 92.4838 3.62166C92.4429 3.46842 92.3612 3.23296 92.298 3.09841C92.2349 2.96386 92.1122 2.76203 92.0268 2.6499C91.9376 2.53778 91.7258 2.29484 91.5549 2.1117C91.3802 1.92856 91.1201 1.70057 90.964 1.59966C90.8117 1.49875 90.5479 1.3642 90.3806 1.3044C90.2097 1.24086 89.9087 1.15863 89.7118 1.12126C89.5111 1.08014 89.0392 1.01287 88.6602 0.968018C88.2812 0.926906 87.865 0.867105 87.7312 0.837205C87.5975 0.803567 87.4414 0.758717 87.3857 0.732554C87.3299 0.710129 87.2816 0.676492 87.2853 0.661541C87.2853 0.642854 87.3894 0.620429 87.5194 0.609216C87.6458 0.594266 88.4261 0.571841 89.2547 0.556891C90.0834 0.545678 91.4694 0.530728 92.3389 0.526991ZM103.839 1.18479C103.717 1.24833 103.531 1.37167 103.423 1.46137C103.319 1.55107 103.148 1.723 103.052 1.84634C102.951 1.96967 102.814 2.19019 102.743 2.33221C102.628 2.57142 102.613 2.63495 102.591 3.06103C102.576 3.31892 102.543 5.00828 102.517 6.81724C102.487 9.07097 102.479 13.6681 102.494 21.4123C102.505 27.9193 102.531 33.5517 102.557 34.6805C102.58 35.7606 102.61 36.8034 102.624 36.9977C102.65 37.3266 102.665 37.3752 102.818 37.6331C102.907 37.7864 103.096 38.033 103.241 38.1788C103.386 38.3246 103.624 38.5114 103.765 38.5974C103.906 38.6796 104.152 38.7917 104.304 38.8441C104.456 38.8964 104.735 38.9562 104.917 38.9786C105.155 39.0085 105.352 39.0085 105.604 38.9824C105.798 38.9599 106.084 38.9076 106.236 38.8628C106.389 38.8217 106.634 38.7319 106.775 38.6647C106.916 38.5974 107.154 38.4703 107.295 38.3769C107.436 38.2834 107.674 38.1078 107.815 37.9844C107.957 37.8611 108.202 37.5995 108.358 37.4051C108.514 37.2108 108.737 36.9118 108.848 36.7361C108.96 36.5604 109.138 36.2577 109.246 36.0634C109.35 35.869 109.528 35.5065 109.644 35.2598C109.755 35.0131 109.937 34.5833 110.045 34.3067C110.153 34.0301 110.327 33.5331 110.435 33.2042C110.543 32.8753 110.71 32.3109 110.807 31.9521C110.903 31.5933 111.059 30.9542 111.152 30.5318C111.245 30.1095 111.371 29.4816 111.435 29.1303C111.498 28.7789 111.591 28.2108 111.643 27.8595C111.691 27.5082 111.765 26.9401 111.806 26.5887C111.847 26.2374 111.907 25.6768 111.936 25.3367C111.97 24.9966 112.018 24.3574 112.048 23.9164C112.081 23.4754 112.126 22.6008 112.148 21.9729C112.174 21.2702 112.182 20.2088 112.17 19.2071C112.156 18.3139 112.13 17.2786 112.107 16.9086C112.085 16.5385 112.044 15.8994 112.011 15.4883C111.981 15.0772 111.914 14.3521 111.862 13.8812C111.81 13.4102 111.728 12.7263 111.676 12.3675C111.624 12.0087 111.542 11.463 111.49 11.1528C111.438 10.8463 111.338 10.2969 111.267 9.93807C111.197 9.57927 111.071 9.0149 110.992 8.686C110.914 8.3571 110.788 7.87122 110.718 7.60212C110.643 7.33302 110.495 6.85462 110.391 6.53693C110.29 6.21924 110.138 5.78195 110.056 5.56517C109.974 5.34839 109.807 4.94474 109.684 4.66817C109.566 4.39159 109.361 3.98046 109.239 3.75247C109.112 3.52822 108.897 3.17316 108.759 2.96759C108.622 2.76203 108.395 2.45929 108.254 2.29858C108.116 2.13413 107.89 1.90614 107.752 1.79401C107.618 1.67815 107.418 1.52865 107.306 1.46511C107.199 1.39783 106.983 1.29692 106.831 1.2446C106.678 1.18853 106.4 1.11378 106.218 1.07267C105.976 1.02034 105.69 0.994181 105.196 0.982968C104.702 0.971756 104.445 0.982968 104.285 1.02034C104.163 1.04651 103.962 1.12126 103.839 1.18479Z" fill="white"/>
</g>
<defs>
<clipPath id="clip0_16_105">
<rect width="152.195" height="40" fill="white"/>
</clipPath>
</defs>
</svg>
