<svg width="114" height="30" viewBox="0 0 114 30" fill="none" xmlns="http://www.w3.org/2000/svg">
<g clip-path="url(#clip0_0_233)">
<path fill-rule="evenodd" clip-rule="evenodd" d="M103.72 0C104.118 0 104.675 0.0111982 104.959 0.025196C105.243 0.0419933 105.669 0.0727884 105.905 0.0979843C106.142 0.120381 106.468 0.156775 106.629 0.181971C106.79 0.204367 107.066 0.254759 107.241 0.293953C107.417 0.333147 107.876 0.470325 108.257 0.596305C108.641 0.725084 109.429 1.01904 110.011 1.2514C110.592 1.48376 111.244 1.73292 111.458 1.80291C111.672 1.8757 111.923 1.95129 112.015 1.97088C112.129 1.99608 112.223 1.99888 112.315 1.98208C112.388 1.96809 112.493 1.93449 112.549 1.9037C112.608 1.8757 112.705 1.79731 112.763 1.73012C112.825 1.66293 112.903 1.54535 112.936 1.46697C112.972 1.39138 113.014 1.2458 113.028 1.14502C113.045 1.04423 113.058 0.881859 113.058 0.781075C113.061 0.680291 113.075 0.557111 113.095 0.503919C113.114 0.450728 113.139 0.403136 113.156 0.397536C113.173 0.391937 113.192 0.43953 113.203 0.50112C113.217 0.56271 113.237 0.949048 113.253 1.36338C113.267 1.77492 113.287 3.26428 113.298 4.67245C113.306 6.20661 113.303 8.1047 113.284 9.4037C113.267 10.5963 113.239 11.7105 113.225 11.8813C113.209 12.0521 113.189 12.1976 113.178 12.2116C113.164 12.2228 113.136 12.2088 113.111 12.1837C113.075 12.1445 113.058 12.0269 113.033 11.6853C113.014 11.439 112.981 11.0722 112.958 10.8735C112.936 10.6747 112.88 10.2464 112.833 9.92161C112.786 9.59687 112.719 9.16294 112.68 8.95577C112.644 8.7486 112.574 8.42105 112.527 8.22788C112.48 8.03472 112.377 7.68197 112.301 7.44401C112.223 7.20605 112.093 6.83371 112.009 6.61814C111.923 6.40258 111.778 6.06383 111.681 5.86226C111.586 5.66069 111.419 5.33595 111.308 5.13438C111.194 4.93281 110.988 4.59407 110.843 4.3785C110.701 4.16293 110.45 3.81579 110.286 3.60862C110.122 3.40146 109.76 3.00392 109.485 2.72676C109.206 2.44961 108.836 2.11086 108.661 1.97368C108.485 1.83651 108.204 1.63214 108.035 1.52016C107.865 1.41097 107.611 1.2542 107.47 1.17581C107.33 1.09742 107.085 0.974244 106.93 0.904256C106.771 0.831467 106.507 0.725084 106.337 0.663494C106.167 0.601904 105.886 0.517917 105.71 0.473124C105.535 0.428332 105.271 0.369541 105.126 0.347144C104.981 0.321949 104.622 0.293953 104.333 0.285554C103.932 0.274356 103.718 0.279955 103.442 0.316349C103.242 0.341545 102.955 0.391937 102.802 0.428332C102.649 0.467525 102.393 0.543113 102.231 0.599104C102.07 0.655095 101.794 0.769877 101.619 0.853864C101.444 0.94065 101.193 1.07503 101.062 1.15342C100.932 1.2318 100.706 1.38578 100.561 1.49496C100.417 1.60414 100.208 1.78052 100.102 1.8897C99.9935 1.99608 99.8488 2.15846 99.7792 2.25084C99.7096 2.34323 99.615 2.4804 99.5677 2.55879C99.5176 2.63438 99.4285 2.80515 99.3701 2.93673C99.3088 3.06831 99.2142 3.32027 99.1586 3.49664C99.1029 3.67301 99.0305 3.95577 98.9943 4.12654C98.9442 4.3841 98.9331 4.52688 98.9331 5.0084C98.9359 5.48712 98.9442 5.6383 98.9971 5.91825C99.0333 6.10302 99.1112 6.40538 99.1697 6.59015C99.2309 6.77492 99.3478 7.06327 99.4285 7.23404C99.512 7.40482 99.6595 7.66238 99.757 7.80795C99.8544 7.95353 100.058 8.20549 100.213 8.36506C100.367 8.52184 100.606 8.7458 100.742 8.85778C100.879 8.96977 101.118 9.14614 101.271 9.24692C101.424 9.3505 101.73 9.52688 101.953 9.63886C102.176 9.75364 102.493 9.90482 102.663 9.97481C102.833 10.042 103.194 10.1764 103.47 10.2716C103.745 10.3639 104.191 10.5039 104.458 10.5795C104.725 10.6551 105.427 10.8371 106.017 10.9826C106.607 11.131 107.294 11.313 107.547 11.3914C107.801 11.4726 108.177 11.5985 108.382 11.6769C108.588 11.7553 108.909 11.8841 109.092 11.9681C109.276 12.0521 109.563 12.1949 109.732 12.29C109.902 12.3824 110.164 12.5448 110.317 12.6456C110.47 12.7492 110.715 12.9283 110.86 13.0459C111.004 13.1635 111.288 13.4295 111.489 13.6338C111.686 13.841 111.945 14.1293 112.062 14.2749C112.176 14.4205 112.354 14.6613 112.454 14.8068C112.552 14.9524 112.722 15.224 112.827 15.4087C112.93 15.5935 113.078 15.8847 113.153 16.0526C113.228 16.2206 113.345 16.5174 113.412 16.7105C113.482 16.9037 113.579 17.2256 113.629 17.4244C113.679 17.6232 113.749 17.9283 113.779 18.0963C113.81 18.2643 113.86 18.6002 113.891 18.8382C113.921 19.0762 113.96 19.5101 113.98 19.804C113.999 20.126 114.005 20.6215 113.996 21.0638C113.988 21.4642 113.96 21.9625 113.935 22.1697C113.913 22.3768 113.868 22.6932 113.838 22.8695C113.804 23.0459 113.735 23.3679 113.679 23.5834C113.626 23.799 113.543 24.0818 113.498 24.2133C113.451 24.3449 113.365 24.5717 113.303 24.7172C113.242 24.8628 113.142 25.084 113.078 25.2072C113.017 25.3304 112.891 25.5571 112.8 25.7111C112.708 25.8651 112.538 26.1226 112.421 26.285C112.304 26.4474 112.104 26.7049 111.97 26.8589C111.839 27.0129 111.633 27.2312 111.511 27.346C111.391 27.4608 111.177 27.6428 111.041 27.7548C110.904 27.8667 110.69 28.0263 110.567 28.1103C110.445 28.1943 110.219 28.3371 110.066 28.4295C109.913 28.519 109.613 28.6758 109.398 28.7794C109.184 28.883 108.895 29.0118 108.758 29.065C108.622 29.1181 108.352 29.2161 108.16 29.2777C107.968 29.3421 107.611 29.4429 107.367 29.5045C107.122 29.5661 106.74 29.6473 106.518 29.6837C106.295 29.7229 105.944 29.7732 105.738 29.7956C105.532 29.8208 105.101 29.8544 104.778 29.8712C104.455 29.888 103.988 29.8936 103.734 29.8824C103.481 29.874 103.119 29.8544 102.927 29.8376C102.735 29.8236 102.373 29.7844 102.12 29.7536C101.867 29.7229 101.491 29.6641 101.285 29.6277C101.079 29.5885 100.739 29.5213 100.534 29.4737C100.328 29.4289 99.9518 29.3337 99.6985 29.2637C99.4452 29.1909 99.0082 29.0538 98.7244 28.9586C98.4405 28.8606 98.0731 28.7234 97.9033 28.6562C97.7335 28.589 97.3522 28.4239 97.0544 28.2923C96.7565 28.1635 96.3864 28.0151 96.2333 27.9619C96.005 27.8891 95.9076 27.8695 95.7044 27.8695C95.479 27.8667 95.44 27.8751 95.3203 27.9451C95.248 27.9871 95.1366 28.0879 95.0754 28.1691C95.0114 28.2475 94.939 28.3595 94.9112 28.4127C94.8834 28.4659 94.8361 28.5918 94.8027 28.6926C94.7693 28.7934 94.7331 28.995 94.7192 29.1405C94.7052 29.2861 94.683 29.4345 94.6635 29.4709C94.6468 29.5045 94.6245 29.5325 94.6106 29.5325C94.5995 29.5325 94.5828 29.4933 94.5689 29.4429C94.5577 29.3925 94.5327 29.0034 94.516 28.5806C94.4937 28.0823 94.4826 26.3466 94.4826 23.6534C94.4826 20.9686 94.4965 19.2077 94.516 18.6842C94.5327 18.2363 94.5577 17.8304 94.5689 17.78C94.5828 17.7296 94.6023 17.6932 94.619 17.6988C94.6357 17.7044 94.6691 17.7744 94.6941 17.8527C94.7219 17.9339 94.7637 18.1467 94.786 18.3287C94.8082 18.5078 94.8528 18.9474 94.8834 19.3001C94.9168 19.6529 94.9669 20.1148 94.9975 20.322C95.0281 20.5291 95.0921 20.8763 95.1367 21.0918C95.1812 21.3074 95.2619 21.6405 95.3148 21.8337C95.3677 22.0269 95.4651 22.3488 95.5347 22.5476C95.6015 22.7464 95.7072 23.0375 95.7685 23.1915C95.8297 23.3455 95.9522 23.6282 96.0412 23.8214C96.1303 24.0146 96.2834 24.3225 96.3808 24.5073C96.481 24.6921 96.6424 24.9748 96.7426 25.1372C96.84 25.2996 97.0098 25.5571 97.1184 25.7111C97.2269 25.8651 97.4329 26.1422 97.5804 26.327C97.7251 26.5118 98.0536 26.8729 98.3069 27.1277C98.5601 27.3824 98.9025 27.7016 99.0723 27.836C99.242 27.9731 99.5482 28.1943 99.7542 28.3343C99.9601 28.4714 100.33 28.6842 100.575 28.8046C100.82 28.925 101.146 29.0706 101.299 29.1265C101.452 29.1853 101.714 29.2665 101.883 29.3113C102.053 29.3561 102.334 29.4149 102.51 29.4457C102.685 29.4765 103.025 29.5157 103.261 29.5325C103.501 29.5521 103.84 29.5577 104.027 29.5465C104.21 29.5381 104.516 29.5101 104.708 29.4877C104.901 29.4653 105.176 29.4205 105.321 29.3897C105.466 29.3589 105.716 29.2945 105.877 29.2469C106.039 29.2021 106.284 29.1181 106.42 29.065C106.557 29.009 106.802 28.8998 106.963 28.8186C107.124 28.7374 107.386 28.5834 107.547 28.4742C107.709 28.3651 107.954 28.1775 108.09 28.0571C108.227 27.9339 108.43 27.7296 108.538 27.598C108.65 27.4692 108.808 27.2564 108.895 27.1249C108.984 26.9933 109.114 26.7609 109.19 26.6069C109.262 26.453 109.362 26.215 109.407 26.075C109.454 25.9351 109.518 25.6775 109.554 25.5011C109.602 25.2548 109.615 25.0812 109.615 24.7592C109.615 24.4877 109.599 24.2441 109.568 24.0734C109.543 23.9278 109.485 23.6814 109.437 23.5274C109.39 23.3735 109.304 23.1467 109.248 23.0235C109.19 22.9003 109.089 22.7044 109.023 22.5896C108.956 22.4748 108.811 22.2592 108.7 22.1137C108.591 21.9681 108.371 21.7161 108.213 21.5566C108.054 21.397 107.792 21.159 107.631 21.0302C107.47 20.9015 107.202 20.7027 107.033 20.5907C106.863 20.4787 106.596 20.3108 106.434 20.2184C106.273 20.126 105.98 19.9664 105.78 19.8656C105.58 19.7676 105.229 19.6025 105.001 19.5045C104.77 19.4037 104.383 19.2469 104.138 19.1517C103.893 19.0594 103.442 18.9026 103.136 18.8018C102.83 18.701 102.223 18.5162 101.786 18.3903C101.349 18.2643 100.803 18.0991 100.575 18.0207C100.344 17.9451 100.013 17.8248 99.8377 17.7576C99.6623 17.6876 99.3172 17.5308 99.0723 17.4104C98.8273 17.29 98.4572 17.0773 98.2512 16.9401C98.0452 16.8029 97.7391 16.5706 97.5693 16.425C97.3995 16.2794 97.149 16.0358 97.0126 15.8875C96.8762 15.7363 96.6508 15.4731 96.5144 15.2996C96.378 15.1288 96.1637 14.832 96.0384 14.6389C95.9104 14.4457 95.7239 14.1321 95.6237 13.939C95.5235 13.7458 95.3871 13.4574 95.3203 13.2951C95.2535 13.1327 95.145 12.8359 95.0782 12.6372C95.0142 12.4384 94.9251 12.1221 94.8834 11.9373C94.8388 11.7525 94.7776 11.4446 94.747 11.2514C94.7136 11.0582 94.6718 10.7307 94.6468 10.5235C94.6245 10.3164 94.5939 9.82923 94.5772 9.44569C94.5605 9.05935 94.5549 8.54423 94.5633 8.29787C94.5716 8.05151 94.5911 7.69317 94.6078 7.5C94.6217 7.30683 94.6607 6.99328 94.6913 6.80011C94.7219 6.60694 94.7887 6.285 94.8416 6.08623C94.8917 5.88466 94.9836 5.58511 95.0448 5.41433C95.106 5.24356 95.2062 4.9804 95.2702 4.82643C95.337 4.67245 95.4456 4.44009 95.5152 4.30851C95.5848 4.17693 95.7267 3.94457 95.8297 3.79059C95.9327 3.63662 96.0941 3.40985 96.1887 3.28667C96.2834 3.16349 96.4893 2.91713 96.6452 2.74076C96.8039 2.56439 97.0627 2.29843 97.2241 2.15286C97.3828 2.00728 97.6222 1.80851 97.7502 1.71053C97.881 1.61254 98.1065 1.46417 98.2512 1.38298C98.3959 1.30179 98.6603 1.16741 98.8357 1.08903C99.011 1.00784 99.2921 0.887458 99.4619 0.823068C99.6317 0.758679 99.988 0.632699 100.255 0.543113C100.522 0.456327 100.937 0.335946 101.174 0.277156C101.41 0.218365 101.775 0.142777 101.981 0.111982C102.187 0.0783875 102.501 0.0391937 102.677 0.0279955C102.852 0.0167973 103.322 0.00279955 103.72 0ZM13.0259 0.366741C14.4259 0.363942 17.7826 0.37514 20.4852 0.389138C23.1878 0.403136 25.8431 0.428332 26.3859 0.445129C26.9286 0.459127 27.4574 0.481523 27.5632 0.492721C27.6662 0.506719 27.7469 0.526316 27.7413 0.543113C27.7358 0.557111 27.694 0.587906 27.6495 0.610302C27.605 0.632699 27.424 0.660694 27.2348 0.674692C27.04 0.68589 26.7839 0.725084 26.6225 0.767077C26.4694 0.806271 26.2578 0.881859 26.1493 0.935051C26.0407 0.988242 25.8821 1.08903 25.793 1.15901C25.7067 1.229 25.5759 1.36338 25.5063 1.45857C25.4368 1.55655 25.3616 1.70493 25.3366 1.78891C25.3032 1.9065 25.2976 2.01848 25.3087 2.26484C25.3199 2.5196 25.3505 2.68757 25.4479 3.07671C25.5175 3.34547 25.6372 3.7682 25.7151 4.01456C25.793 4.26092 25.9461 4.72005 26.0547 5.03639C26.1632 5.35274 26.4276 6.09463 26.6419 6.68813C26.8563 7.28164 27.2125 8.25868 27.4352 8.85778C27.6578 9.45689 28.4427 11.5733 29.1831 13.561C29.9235 15.5487 30.6917 17.6064 30.8948 18.1383C31.0952 18.6702 31.2789 19.1349 31.3012 19.1741C31.3402 19.2357 31.3513 19.2385 31.3847 19.2021C31.407 19.1797 31.4626 19.065 31.51 18.9502C31.5545 18.8354 31.9358 17.8192 32.3561 16.6965C32.7736 15.5739 33.4444 13.7654 33.8452 12.6792C34.246 11.5929 34.9362 9.71725 35.3816 8.50784C35.8241 7.29843 36.4003 5.73068 36.6563 5.0224C36.9152 4.31411 37.1573 3.63942 37.1963 3.52464C37.2325 3.40985 37.2937 3.18309 37.3243 3.02072C37.3689 2.81355 37.3856 2.62598 37.3883 2.37682C37.3883 2.13046 37.3744 1.97368 37.3382 1.84491C37.3132 1.74412 37.2603 1.59854 37.2186 1.52296C37.1796 1.44457 37.0794 1.31579 36.9931 1.2318C36.8873 1.13102 36.7482 1.03863 36.5589 0.946249C36.4058 0.870661 36.1748 0.786674 36.044 0.755879C35.9132 0.725084 35.6515 0.68869 35.4595 0.674692C35.2146 0.657895 35.0893 0.638298 35.0336 0.604703C34.9919 0.579507 34.9585 0.548712 34.9585 0.534715C34.9585 0.523516 35.0309 0.506719 35.1171 0.492721C35.2062 0.481523 35.749 0.459127 36.3223 0.445129C36.8957 0.428332 39.5899 0.403136 42.3065 0.389138C45.023 0.37514 50.8067 0.363942 63.07 0.361142L63.0589 5.6327C63.0505 8.53024 63.0338 11.1534 63.0171 11.4614C63.0032 11.7693 62.9837 12.0717 62.9726 12.1333C62.9615 12.2004 62.9448 12.234 62.9309 12.2172C62.9169 12.2004 62.8919 12.1333 62.8752 12.0633C62.8585 11.9933 62.8334 11.5342 62.8195 11.0414C62.8056 10.5487 62.7722 9.88242 62.7499 9.55767C62.7249 9.23292 62.6804 8.757 62.6497 8.49384C62.6191 8.23068 62.5495 7.77716 62.4994 7.486C62.4466 7.19485 62.3491 6.72732 62.2796 6.45017C62.21 6.17301 62.0903 5.75588 62.0124 5.52632C61.9316 5.29395 61.812 4.9748 61.7452 4.81243C61.6756 4.65006 61.542 4.3673 61.4446 4.18253C61.3499 3.99776 61.1885 3.72061 61.0883 3.56663C60.9881 3.41265 60.8211 3.18029 60.7153 3.04871C60.6124 2.91713 60.4064 2.69037 60.2589 2.54479C60.1141 2.39922 59.8609 2.17805 59.6994 2.05487C59.5352 1.93169 59.2652 1.75252 59.101 1.65734C58.934 1.56495 58.6668 1.43057 58.5054 1.36058C58.3439 1.29339 58.0684 1.18981 57.8931 1.13382C57.7177 1.07783 57.4282 1.00224 57.2529 0.963046C57.0775 0.926652 56.7881 0.87626 56.6127 0.851064C56.4374 0.828668 56.0421 0.795073 55.736 0.781075C55.3797 0.761478 55.0151 0.761478 54.7201 0.778276C54.4668 0.792273 54.1662 0.825868 54.0521 0.851064C53.938 0.879059 53.7626 0.93785 53.6624 0.985442C53.5511 1.03863 53.4286 1.12542 53.3423 1.21501C53.2672 1.29619 53.1614 1.42777 53.1141 1.51176C53.064 1.59574 53 1.73292 52.9694 1.81691C52.9387 1.9009 52.8998 2.07727 52.8831 2.20885C52.8664 2.34043 52.8413 2.88074 52.8274 3.41265C52.8135 3.94457 52.7996 6.71613 52.7996 14.7648L53.4898 14.7312C53.8684 14.7144 54.3388 14.6837 54.5392 14.6669C54.7395 14.6501 55.0318 14.6109 55.1932 14.5829C55.3547 14.5521 55.6163 14.4877 55.7777 14.4345C55.9392 14.3813 56.1507 14.2973 56.2509 14.2469C56.3511 14.1965 56.5264 14.0901 56.6406 14.0146C56.7547 13.9362 56.9551 13.771 57.0831 13.645C57.2084 13.5218 57.3809 13.3399 57.4616 13.2391C57.5424 13.1383 57.6648 12.9703 57.7372 12.8611C57.8095 12.752 57.9209 12.5588 57.9877 12.4272C58.0545 12.2956 58.1547 12.0689 58.2076 11.9233C58.2632 11.7777 58.3384 11.5314 58.3773 11.3774C58.4163 11.2234 58.472 10.9407 58.5026 10.7475C58.5332 10.5543 58.5722 10.252 58.5861 10.0756C58.6028 9.89922 58.6223 9.61646 58.6306 9.44569C58.639 9.27492 58.6585 8.99216 58.6752 8.81579C58.6891 8.63942 58.7141 8.41825 58.7308 8.32587C58.7447 8.23348 58.7642 8.1383 58.7726 8.1159C58.7865 8.08231 58.7948 8.08791 58.8143 8.1355C58.8282 8.17189 58.8533 8.757 58.87 9.43729C58.8895 10.1428 58.9034 12.5168 58.9034 14.9328C58.9034 17.3712 58.8895 19.7284 58.87 20.4535C58.8533 21.1506 58.8282 21.7497 58.8143 21.7833C58.7921 21.8421 58.7893 21.8393 58.7614 21.7357C58.7447 21.6741 58.7169 21.5118 58.7002 21.3718C58.6863 21.2318 58.6529 20.8231 58.6306 20.4619C58.6084 20.1008 58.5638 19.6277 58.5332 19.4121C58.5026 19.1965 58.433 18.8382 58.3773 18.6142C58.3217 18.3903 58.2298 18.0823 58.1714 17.9283C58.1157 17.7744 58.0183 17.5476 57.9571 17.4244C57.8931 17.3012 57.765 17.0801 57.6676 16.9345C57.5618 16.7721 57.3781 16.5538 57.2 16.3746C57.0386 16.2122 56.8048 16.0134 56.6823 15.9323C56.5598 15.8483 56.3344 15.7223 56.1813 15.6467C56.0282 15.5711 55.7722 15.4647 55.6107 15.4115C55.4493 15.3611 55.1877 15.2884 55.0262 15.2576C54.8648 15.224 54.4891 15.1652 54.1912 15.126C53.8934 15.0868 53.4564 15.0476 52.7996 15.0168V27.7128L52.9833 28.0403C53.0835 28.2223 53.2199 28.4463 53.2867 28.5386C53.3507 28.631 53.4592 28.7514 53.526 28.8046C53.5928 28.8578 53.7125 28.9278 53.7877 28.9642C53.8656 28.9978 54.0159 29.0482 54.1217 29.0706C54.2441 29.0985 54.5252 29.1209 54.8731 29.1321C55.196 29.1405 55.6191 29.1349 55.8751 29.1153C56.1201 29.0985 56.4958 29.0566 56.7101 29.0258C56.9245 28.995 57.2612 28.9278 57.4616 28.8746C57.662 28.8242 57.9543 28.7346 58.1157 28.6786C58.2771 28.6226 58.5694 28.4966 58.7698 28.3987C58.9702 28.3007 59.2569 28.1355 59.41 28.0319C59.563 27.9311 59.7829 27.7688 59.897 27.6736C60.0112 27.5812 60.2032 27.402 60.3257 27.2788C60.4454 27.1557 60.6374 26.9429 60.746 26.8029C60.8573 26.6629 61.0382 26.411 61.1495 26.243C61.2581 26.075 61.4473 25.7335 61.567 25.4871C61.6867 25.2408 61.8287 24.9272 61.8815 24.7872C61.9344 24.6473 62.0235 24.3953 62.0819 24.2273C62.1376 24.0594 62.2239 23.7486 62.2768 23.5414C62.3269 23.3343 62.3965 23.0319 62.4271 22.8695C62.4577 22.7072 62.5078 22.4244 62.5384 22.2396C62.569 22.0549 62.6219 21.6965 62.6525 21.4418C62.6831 21.187 62.7277 20.7475 62.7527 20.4619C62.775 20.1764 62.8056 19.5101 62.8195 18.9782C62.8362 18.4463 62.8613 17.9479 62.8752 17.8723C62.8919 17.794 62.9169 17.7184 62.9309 17.7044C62.9448 17.6876 62.9615 17.7072 62.9698 17.7604C62.981 17.8052 63.0004 18.1019 63.0171 18.4183C63.0338 18.7402 63.0533 21.2962 63.0839 29.5381L53.4537 29.5241C47.1133 29.5157 43.5395 29.5017 42.9884 29.4793C42.5291 29.4625 42.0086 29.4345 41.8333 29.4177C41.6579 29.4037 41.4937 29.3785 41.4715 29.3645C41.4381 29.3449 41.4436 29.3337 41.5049 29.3113C41.5494 29.2945 41.7414 29.2609 41.9391 29.2357C42.1339 29.2133 42.4679 29.1685 42.6822 29.1377C42.8965 29.1097 43.1971 29.0538 43.3502 29.0146C43.5033 28.9754 43.7287 28.897 43.8512 28.8438C43.9737 28.7906 44.1407 28.7066 44.2242 28.6562C44.3077 28.6086 44.4774 28.4659 44.5999 28.3427C44.7335 28.2083 44.8782 28.0235 44.959 27.8947C45.0313 27.7716 45.1872 27.444 45.5268 26.6629L45.549 16.5286C45.5629 9.29172 45.5602 6.09463 45.5379 5.34435C45.5212 4.76764 45.4934 4.11814 45.4794 3.90258C45.4627 3.68701 45.4321 3.36506 45.4071 3.18869C45.382 3.01232 45.3319 2.76036 45.293 2.62878C45.2568 2.4972 45.1844 2.31523 45.1315 2.22284C45.0814 2.13046 44.9478 1.94849 44.8337 1.81691C44.7196 1.68533 44.5387 1.49776 44.4329 1.39698C44.3132 1.28779 44.1435 1.16741 44.0015 1.09183C43.8735 1.02464 43.6564 0.94065 43.5172 0.904256C43.378 0.870661 43.1359 0.825868 42.9745 0.803472C42.7685 0.778276 42.3287 0.767077 41.4993 0.767077C40.4806 0.767077 40.2886 0.775476 40.1076 0.817469C39.9935 0.842665 39.7876 0.921053 39.6484 0.991042C39.5092 1.05823 39.2977 1.18141 39.1752 1.2626C39.0528 1.34379 38.8468 1.51176 38.7188 1.63494C38.5907 1.75812 38.4265 1.94009 38.3486 2.04087C38.2734 2.14166 38.151 2.34882 38.0758 2.5028C38.0007 2.65678 37.8337 3.04031 37.7056 3.35666C37.5776 3.67301 37.2742 4.44009 37.0321 5.06439C36.7927 5.68869 36.3641 6.80851 36.0802 7.55599C35.7991 8.30347 35.1366 10.0672 34.6106 11.4754C34.0845 12.8835 33.2022 15.266 32.6483 16.7665C32.0945 18.2671 31.1927 20.6999 30.6444 22.1697C30.096 23.6394 29.364 25.5851 29.0217 26.495C28.6765 27.4048 28.2646 28.4854 28.1032 28.9026C27.9417 29.3169 27.7831 29.7173 27.7497 29.7928C27.7191 29.8656 27.6801 29.9188 27.6662 29.9104C27.6523 29.902 27.605 29.8236 27.566 29.7368C27.527 29.6473 27.36 29.2329 27.193 28.8186C27.0288 28.4015 26.6698 27.4832 26.3998 26.7749C26.1298 26.0666 25.6344 24.7564 25.3004 23.8634C24.9664 22.9703 24.3012 21.1814 23.8252 19.888C23.3493 18.5946 22.5393 16.4166 22.03 15.0448C21.5178 13.673 21.0335 12.3768 20.95 12.1613C20.8665 11.9457 20.7886 11.7721 20.7747 11.7749C20.7608 11.7777 20.6717 11.9653 20.5799 12.1949C20.4852 12.4216 20.2013 13.1523 19.9481 13.813C19.6948 14.4737 19.1993 15.7923 18.8486 16.7385C18.4952 17.6848 17.855 19.4233 17.4236 20.6019C16.9922 21.7805 16.2602 23.7654 15.7953 25.0112C15.3305 26.257 14.7627 27.7632 14.5345 28.3567C14.3063 28.9502 14.0641 29.5577 13.9973 29.7089C13.9305 29.86 13.8665 29.972 13.8554 29.9608C13.8442 29.9496 13.7552 29.7368 13.655 29.4905C13.5576 29.2441 13.257 28.4686 12.9898 27.7688C12.7226 27.0689 12.2299 25.7699 11.8987 24.8852C11.5647 24.0006 10.9885 22.4496 10.6128 21.4418C10.237 20.4339 9.51895 18.4882 9.01239 17.1165C8.50861 15.7447 7.71536 13.6058 7.25055 12.3572C6.78852 11.1086 6.14557 9.3897 5.8227 8.53584C5.49984 7.68197 5.01833 6.40818 4.75113 5.70829C4.48393 5.0084 4.13045 4.09575 3.96623 3.67861C3.79923 3.26428 3.62667 2.83595 3.57657 2.72676C3.52647 2.62038 3.39843 2.39922 3.29267 2.23684C3.18412 2.07447 3.00877 1.84211 2.903 1.71893C2.79724 1.59574 2.64972 1.44737 2.57179 1.38858C2.49664 1.32979 2.28511 1.20661 2.10141 1.11702C1.91771 1.02464 1.65329 0.912654 1.51691 0.867861C1.37774 0.823068 1.16621 0.767077 1.04374 0.741881C0.921279 0.716685 0.665213 0.68589 0.473164 0.669093C0.244932 0.652296 0.102983 0.6271 0.061233 0.599104C0.0278332 0.576708 0 0.548712 0 0.537514C0 0.523516 0.0640163 0.506719 0.144733 0.495521C0.225449 0.484323 0.787679 0.459127 1.39166 0.442329C1.99564 0.425532 4.2891 0.403136 6.48513 0.391937C8.68117 0.380739 11.6259 0.369541 13.0259 0.366741ZM12.7253 0.792273C12.6168 0.817469 12.4414 0.87626 12.3357 0.923852C12.2327 0.971445 12.0768 1.06103 11.9878 1.12542C11.8987 1.18981 11.7957 1.28779 11.7595 1.34099C11.7233 1.39418 11.6732 1.49496 11.6482 1.56495C11.6259 1.63494 11.5925 1.79171 11.5786 1.91489C11.5619 2.03807 11.5508 2.23124 11.5508 2.34323C11.5508 2.45241 11.5647 2.64278 11.5814 2.76316C11.5981 2.88074 11.6426 3.1047 11.6816 3.25868C11.7178 3.41265 11.8263 3.771 11.9182 4.05655C12.01 4.34211 12.2271 4.97201 12.3997 5.45633C12.5723 5.94065 12.9285 6.92329 13.1929 7.63998C13.4574 8.35666 14.0446 9.94401 14.5011 11.1674C14.9576 12.3908 15.5337 13.9278 15.7814 14.5829C16.0291 15.238 16.4272 16.2766 16.6637 16.8925C16.9031 17.5084 17.1898 18.2391 17.3039 18.5162C17.418 18.7934 17.5349 19.065 17.56 19.1181L17.6101 19.2161C17.7047 18.9782 17.8912 18.4994 18.0832 17.9983C18.2753 17.4972 18.8319 16.0106 19.3218 14.6949C19.8089 13.3791 20.3043 12.0493 20.4184 11.7413L20.6272 11.1814C19.1409 7.16685 18.6009 5.71949 18.4673 5.37234C18.3365 5.0252 18.1472 4.54647 18.0498 4.30851C17.9524 4.07055 17.7965 3.69821 17.7019 3.48264C17.6073 3.26708 17.4403 2.91433 17.3289 2.69877C17.2204 2.4832 17.0534 2.19485 16.9643 2.05487C16.8725 1.91489 16.6804 1.68533 16.5329 1.53695C16.3409 1.34379 16.2045 1.2346 16.0319 1.13662C15.9011 1.06383 15.7202 0.979843 15.6283 0.951848C15.5365 0.921053 15.3611 0.879059 15.2387 0.851064C15.1162 0.825868 14.8518 0.789474 14.6542 0.767077C14.4566 0.744681 14.1476 0.725084 13.9723 0.719485C13.7969 0.713886 13.488 0.716685 13.2904 0.727884C13.0927 0.739082 12.8367 0.769877 12.7253 0.792273ZM69.1655 0.394737C69.8168 0.391937 71.9516 0.403136 73.9111 0.417133C75.8705 0.431131 78.0888 0.459127 78.8375 0.473124C79.5862 0.489922 80.4018 0.515118 80.6467 0.529115C80.8916 0.545913 81.2368 0.576708 81.4121 0.599104C81.5875 0.621501 81.8574 0.671893 82.0105 0.711086C82.1636 0.75028 82.5282 0.862262 82.8177 0.960247C83.1071 1.06103 83.5163 1.21221 83.7223 1.29899C83.9282 1.38578 84.2928 1.55655 84.5294 1.67973C84.766 1.80011 85.1028 1.98488 85.2754 2.08847C85.4479 2.19205 85.7402 2.38802 85.9294 2.5224C86.1159 2.65678 86.3942 2.86954 86.5473 2.99832C86.7004 3.1271 86.9537 3.35666 87.1151 3.51064C87.2738 3.66461 87.5187 3.92217 87.6607 4.08455C87.7998 4.24692 88.0141 4.50448 88.1338 4.65846C88.2535 4.81243 88.465 5.11478 88.607 5.33035C88.7489 5.54591 88.9493 5.87346 89.0551 6.05823C89.1581 6.243 89.3446 6.60974 89.4726 6.8701C89.5978 7.13326 89.776 7.5364 89.8678 7.76596C89.9597 7.99832 90.0933 8.35666 90.1656 8.56383C90.2352 8.771 90.3493 9.13774 90.4161 9.3757C90.4829 9.61366 90.5776 9.97481 90.6249 10.1736C90.6722 10.3723 90.7529 10.7643 90.8058 11.0414C90.8559 11.3186 90.9255 11.7357 90.9561 11.9653C90.9867 12.1977 91.0313 12.5672 91.0535 12.7912C91.0758 13.0151 91.1092 13.4491 91.1287 13.757C91.1482 14.1209 91.1565 14.706 91.1454 15.4227C91.137 16.0722 91.112 16.7189 91.0869 16.9905C91.0619 17.2452 91.0173 17.6484 90.9867 17.8863C90.9533 18.1243 90.8865 18.5526 90.8336 18.8382C90.7808 19.1237 90.675 19.6081 90.5998 19.916C90.5219 20.224 90.3883 20.6971 90.302 20.9658C90.2157 21.2346 90.0571 21.6769 89.9513 21.9457C89.8428 22.2144 89.6507 22.6484 89.5255 22.9115C89.3974 23.1747 89.2026 23.5442 89.0941 23.7374C88.9827 23.9306 88.7935 24.2385 88.671 24.4233C88.5485 24.6081 88.3537 24.8852 88.2368 25.0392C88.1227 25.1932 87.9334 25.4311 87.8165 25.5711C87.7024 25.7111 87.4185 26.0134 87.1875 26.2458C86.9593 26.4754 86.6559 26.7609 86.5195 26.8757C86.3831 26.9905 86.1688 27.1613 86.0463 27.2564C85.9239 27.3488 85.6622 27.5308 85.4618 27.6624C85.2614 27.794 84.9636 27.9759 84.7938 28.0711C84.6241 28.1663 84.3262 28.3175 84.1258 28.4071C83.9254 28.4994 83.533 28.6618 83.2491 28.771C82.9652 28.8802 82.5978 29.009 82.428 29.0566C82.2582 29.1041 81.9604 29.1713 81.76 29.2105C81.5596 29.2469 81.1922 29.2973 80.9389 29.3197C80.6857 29.3421 80.2041 29.3757 79.8674 29.3925C79.5306 29.4093 78.6594 29.4345 77.933 29.4485C77.2065 29.4653 74.387 29.4849 71.6705 29.4933C68.2887 29.5045 66.5241 29.5017 66.076 29.4793C65.717 29.4625 65.4108 29.4373 65.3941 29.4233C65.3746 29.4065 65.3857 29.3869 65.4219 29.3701C65.4525 29.3533 65.5583 29.3197 65.6585 29.2945C65.7587 29.2693 66.0704 29.2161 66.3543 29.1797C66.6382 29.1405 67.0001 29.0818 67.1615 29.0454C67.3229 29.009 67.5679 28.9362 67.7043 28.8858C67.8434 28.8326 68.0271 28.7458 68.1162 28.6926C68.2053 28.6394 68.3472 28.5386 68.4279 28.4686C68.5114 28.3987 68.6478 28.2559 68.7313 28.1467C68.8176 28.0375 68.9373 27.8555 68.9957 27.7408C69.0569 27.626 69.1878 27.3348 69.4772 26.6629L69.5051 17.2005C69.5273 10.0364 69.5273 7.33763 69.5023 6.08623C69.4856 5.17917 69.4577 4.25252 69.4438 4.02856C69.4271 3.80459 69.3965 3.46585 69.3715 3.27268C69.3464 3.07951 69.3019 2.82755 69.274 2.71277C69.2434 2.59798 69.1822 2.42161 69.1349 2.32083C69.0876 2.22005 68.9957 2.06887 68.9317 1.98488C68.8649 1.9009 68.7062 1.71893 68.5782 1.58175C68.4474 1.44457 68.2526 1.2738 68.1357 1.19821C68.0216 1.12262 67.8239 1.02184 67.6987 0.977044C67.5707 0.929451 67.3452 0.867861 67.1977 0.839866C67.0474 0.809071 66.6939 0.758679 66.41 0.725084C66.1261 0.694289 65.8144 0.649496 65.7142 0.6271C65.614 0.601904 65.4971 0.568309 65.4553 0.548712C65.4136 0.531915 65.3774 0.506719 65.3802 0.495521C65.3802 0.481523 65.4581 0.464726 65.5555 0.456327C65.6502 0.445129 66.2347 0.428332 66.8553 0.417133C67.476 0.408735 68.5142 0.397536 69.1655 0.394737ZM77.7799 0.887458C77.688 0.935051 77.5489 1.02744 77.4681 1.09463C77.3902 1.16181 77.2622 1.29059 77.1898 1.38298C77.1147 1.47536 77.0117 1.64054 76.9588 1.74692C76.8725 1.92609 76.8614 1.97368 76.8447 2.29283C76.8335 2.486 76.8085 3.7514 76.789 5.10638C76.7667 6.79451 76.7612 10.238 76.7723 16.0386C76.7807 20.9127 76.8001 25.1316 76.8196 25.977C76.8363 26.7861 76.8586 27.5672 76.8697 27.7128C76.8892 27.9591 76.9003 27.9955 77.0145 28.1887C77.0813 28.3035 77.2232 28.4882 77.3318 28.5974C77.4403 28.7066 77.6184 28.8466 77.7242 28.911C77.83 28.9726 78.0137 29.0566 78.1278 29.0958C78.2419 29.1349 78.4506 29.1797 78.587 29.1965C78.7652 29.2189 78.9127 29.2189 79.1019 29.1993C79.2467 29.1825 79.461 29.1433 79.5751 29.1097C79.6892 29.079 79.8729 29.0118 79.9787 28.9614C80.0845 28.911 80.2626 28.8158 80.3684 28.7458C80.4741 28.6758 80.6523 28.5442 80.758 28.4519C80.8638 28.3595 81.0475 28.1635 81.1644 28.0179C81.2813 27.8723 81.4483 27.6484 81.5318 27.5168C81.6153 27.3852 81.7489 27.1585 81.8296 27.0129C81.9075 26.8673 82.0411 26.5957 82.1274 26.411C82.2109 26.2262 82.3473 25.9043 82.428 25.6971C82.5087 25.4899 82.6395 25.1176 82.7203 24.8712C82.801 24.6249 82.9262 24.2021 82.9986 23.9334C83.071 23.6646 83.1879 23.1859 83.2574 22.8695C83.327 22.5532 83.4217 22.0829 83.469 21.8197C83.5163 21.5566 83.5859 21.131 83.6248 20.8679C83.661 20.6047 83.7167 20.1792 83.7473 19.916C83.7779 19.6529 83.8225 19.2329 83.8447 18.9782C83.8698 18.7234 83.906 18.2447 83.9282 17.9143C83.9533 17.584 83.9867 16.9289 84.0034 16.4586C84.0229 15.9323 84.0284 15.1372 84.0201 14.3869C84.0089 13.7178 83.9895 12.9423 83.9728 12.6652C83.9561 12.388 83.9254 11.9093 83.9004 11.6013C83.8781 11.2934 83.828 10.7503 83.7891 10.3975C83.7501 10.0448 83.6889 9.53248 83.6499 9.26372C83.6109 8.99496 83.5497 8.58623 83.5107 8.35386C83.4718 8.1243 83.3966 7.71277 83.3437 7.44401C83.2908 7.17525 83.1962 6.75252 83.1378 6.50616C83.0793 6.2598 82.9847 5.89586 82.9318 5.69429C82.8761 5.49272 82.7648 5.13438 82.6869 4.89642C82.6117 4.65846 82.4976 4.33091 82.4364 4.16853C82.3751 4.00616 82.2499 3.70381 82.158 3.49664C82.069 3.28947 81.9159 2.98152 81.824 2.81075C81.7294 2.64278 81.568 2.37682 81.465 2.22284C81.362 2.06887 81.1922 1.84211 81.0865 1.72172C80.9835 1.59854 80.8137 1.42777 80.7107 1.34379C80.6105 1.257 80.4602 1.14502 80.3767 1.09742C80.296 1.04703 80.1346 0.971445 80.0204 0.932251C79.9063 0.890258 79.6976 0.834267 79.5612 0.803472C79.3803 0.764278 79.166 0.744681 78.7958 0.736282C78.4256 0.727884 78.2336 0.736282 78.1139 0.764278C78.022 0.783875 77.8717 0.839866 77.7799 0.887458Z" fill="#020204"/>
</g>
<defs>
<clipPath id="clip0_0_233">
<rect width="114" height="29.9616" fill="white"/>
</clipPath>
</defs>
</svg>
