<svg width="40" height="41" viewBox="0 0 40 41" fill="none" xmlns="http://www.w3.org/2000/svg">
<g clip-path="url(#clip0_0_165)">
<path d="M30.3856 30.9823C30.2098 31.1581 29.9714 31.2569 29.7227 31.2569C29.4741 31.2569 29.2356 31.1581 29.0598 30.9823L20 21.9225L10.9402 30.9823C10.7644 31.1581 10.5259 31.2569 10.2773 31.2569C10.0286 31.2569 9.79018 31.1581 9.61437 30.9823C9.43855 30.8065 9.33978 30.5681 9.33978 30.3194C9.33978 30.0708 9.43855 29.8323 9.61437 29.6565L18.6742 20.5967L9.61437 11.5369C9.43855 11.3611 9.33978 11.1226 9.33978 10.874C9.33978 10.6253 9.43855 10.3869 9.61437 10.2111C9.79018 10.0353 10.0286 9.93648 10.2773 9.93648C10.5259 9.93648 10.7644 10.0353 10.9402 10.2111L20 19.2709L29.0598 10.2111C29.2356 10.0353 29.4741 9.93648 29.7227 9.93648C29.9714 9.93648 30.2098 10.0353 30.3856 10.2111C30.5614 10.3869 30.6602 10.6253 30.6602 10.874C30.6602 11.1226 30.5614 11.3611 30.3856 11.5369L21.3258 20.5967L30.3856 29.6565C30.5614 29.8323 30.6602 30.0708 30.6602 30.3194C30.6602 30.5681 30.5614 30.8065 30.3856 30.9823Z" fill="#F4444A"/>
</g>
<defs>
<clipPath id="clip0_0_165">
<rect width="40" height="40" fill="white" transform="translate(0 0.59668)"/>
</clipPath>
</defs>
</svg>
