<svg width="32" height="32" viewBox="0 0 32 32" fill="none" xmlns="http://www.w3.org/2000/svg">
<g clip-path="url(#clip0_0_1792)">
<path d="M24.1259 24.1257C23.9852 24.2664 23.7945 24.3454 23.5956 24.3454C23.3966 24.3454 23.2059 24.2664 23.0652 24.1257L15.8174 16.8779L8.56954 24.1257C8.42889 24.2664 8.23812 24.3454 8.03921 24.3454C7.8403 24.3454 7.64953 24.2664 7.50888 24.1257C7.36823 23.9851 7.28921 23.7943 7.28921 23.5954C7.28921 23.3965 7.36823 23.2057 7.50888 23.065L14.7567 15.8172L7.50888 8.56936C7.36823 8.42871 7.28921 8.23794 7.28921 8.03903C7.28921 7.84012 7.36823 7.64935 7.50888 7.5087C7.64953 7.36805 7.8403 7.28903 8.03921 7.28903C8.23812 7.28903 8.42889 7.36805 8.56954 7.5087L15.8174 14.7565L23.0652 7.5087C23.2059 7.36805 23.3966 7.28903 23.5956 7.28903C23.7945 7.28903 23.9852 7.36805 24.1259 7.5087C24.2665 7.64935 24.3456 7.84012 24.3456 8.03903C24.3456 8.23794 24.2665 8.42871 24.1259 8.56936L16.878 15.8172L24.1259 23.065C24.2665 23.2057 24.3456 23.3965 24.3456 23.5954C24.3456 23.7943 24.2665 23.9851 24.1259 24.1257Z" fill="#CA252A"/>
</g>
<defs>
<clipPath id="clip0_0_1792">
<rect width="32" height="32" fill="white"/>
</clipPath>
</defs>
</svg>
