<svg width="40" height="41" viewBox="0 0 40 41" fill="none" xmlns="http://www.w3.org/2000/svg">
<path d="M34.6875 20.5967C34.6875 20.8453 34.5887 21.0838 34.4129 21.2596C34.2371 21.4354 33.9986 21.5342 33.75 21.5342H20.9375V34.3467C20.9375 34.5953 20.8387 34.8338 20.6629 35.0096C20.4871 35.1854 20.2486 35.2842 20 35.2842C19.7514 35.2842 19.5129 35.1854 19.3371 35.0096C19.1613 34.8338 19.0625 34.5953 19.0625 34.3467V21.5342H6.25C6.00136 21.5342 5.7629 21.4354 5.58709 21.2596C5.41127 21.0838 5.3125 20.8453 5.3125 20.5967C5.3125 20.348 5.41127 20.1096 5.58709 19.9338C5.7629 19.758 6.00136 19.6592 6.25 19.6592H19.0625V6.84668C19.0625 6.59804 19.1613 6.35958 19.3371 6.18377C19.5129 6.00795 19.7514 5.90918 20 5.90918C20.2486 5.90918 20.4871 6.00795 20.6629 6.18377C20.8387 6.35958 20.9375 6.59804 20.9375 6.84668V19.6592H33.75C33.9986 19.6592 34.2371 19.758 34.4129 19.9338C34.5887 20.1096 34.6875 20.348 34.6875 20.5967Z" fill="#F4444A"/>
</svg>
