<svg width="69" height="241" viewBox="0 0 69 241" fill="none" xmlns="http://www.w3.org/2000/svg">
<path d="M54.1133 190.93C58.5361 190.93 62.123 192.413 64.8738 195.38C67.6246 198.347 69 202.365 69 207.435C69 211.372 68.0831 215.283 66.2492 219.166C64.3614 223.05 61.5566 226.826 57.835 230.493C54.1133 234.215 49.4746 237.694 43.9191 240.93L37.123 231.788C41.384 229.846 45.1866 227.446 48.5307 224.587C51.8209 221.728 54.1133 218.897 55.4078 216.092C52.7109 216.254 50.2567 215.849 48.0453 214.878C45.7799 213.908 44 212.478 42.7055 210.59C41.3571 208.756 40.6828 206.572 40.6828 204.037C40.6828 200.153 41.9504 196.998 44.4854 194.571C46.9666 192.144 50.1758 190.93 54.1133 190.93ZM17.8673 190.93C22.2902 190.93 25.877 192.413 28.6278 195.38C31.3786 198.347 32.754 202.365 32.754 207.435C32.754 211.372 31.8371 215.283 30.0032 219.166C28.1154 223.05 25.3107 226.826 21.589 230.493C17.8673 234.215 13.2287 237.694 7.67314 240.93L0.877022 231.788C5.13808 229.846 8.94067 227.446 12.2848 224.587C15.575 221.728 17.8673 218.897 19.1618 216.092C16.4649 216.254 14.0108 215.849 11.7994 214.878C9.53398 213.908 7.75404 212.478 6.45955 210.59C5.11111 208.756 4.43689 206.572 4.43689 204.037C4.43689 200.153 5.70442 196.998 8.23948 194.571C10.7206 192.144 13.9299 190.93 17.8673 190.93Z" fill="#CA252A"/>
</svg>
