<svg width="30" height="31" viewBox="0 0 30 31" fill="none" xmlns="http://www.w3.org/2000/svg">
<path d="M29.6875 15.5967C29.6875 15.8453 29.5887 16.0838 29.4129 16.2596C29.2371 16.4354 28.9986 16.5342 28.75 16.5342H15.9375V29.3467C15.9375 29.5953 15.8387 29.8338 15.6629 30.0096C15.4871 30.1854 15.2486 30.2842 15 30.2842C14.7514 30.2842 14.5129 30.1854 14.3371 30.0096C14.1613 29.8338 14.0625 29.5953 14.0625 29.3467V16.5342H1.25C1.00136 16.5342 0.762903 16.4354 0.587087 16.2596C0.411272 16.0838 0.3125 15.8453 0.3125 15.5967C0.3125 15.348 0.411272 15.1096 0.587087 14.9338C0.762903 14.758 1.00136 14.6592 1.25 14.6592H14.0625V1.84668C14.0625 1.59804 14.1613 1.35958 14.3371 1.18377C14.5129 1.00795 14.7514 0.90918 15 0.90918C15.2486 0.90918 15.4871 1.00795 15.6629 1.18377C15.8387 1.35958 15.9375 1.59804 15.9375 1.84668V14.6592H28.75C28.9986 14.6592 29.2371 14.758 29.4129 14.9338C29.5887 15.1096 29.6875 15.348 29.6875 15.5967Z" fill="#020204"/>
</svg>
